<svg xmlns="http://www.w3.org/2000/svg" width="16" height="16" viewBox="0 0 26.051 26.051">
	<defs>
		<style>
			.a{fill:#EF9B81;}
		</style>
	</defs>
	<path class="a" d="M17.963,93.025l7.406-7.406a2.328,2.328,0,0,0,0-3.292l-1.646-1.646a2.328,2.328,0,0,0-3.292,0l-7.406,7.406L5.619,80.682a2.328,2.328,0,0,0-3.292,0L.682,82.328a2.328,2.328,0,0,0,0,3.292l7.406,7.406L.682,100.431a2.328,2.328,0,0,0,0,3.292l1.646,1.646a2.328,2.328,0,0,0,3.292,0l7.406-7.406,7.406,7.406a2.328,2.328,0,0,0,3.292,0l1.646-1.646a2.328,2.328,0,0,0,0-3.292Z" transform="translate(0 -80)" />
</svg>
