<svg xmlns="http://www.w3.org/2000/svg" width="57.744" height="57.258" viewBox="0 0 57.744 57.258"><defs><style>.a{fill:#ef9b81;}</style></defs><path class="a" d="M56.843,31.648q-.911-1.159-1.853-2.165a3.863,3.863,0,0,0,.285-1.994,3.817,3.817,0,0,0-.847-1.98c.288-.526.5-.96.642-1.251a4.022,4.022,0,0,0,.141-3.137,4.084,4.084,0,0,0-2.175-2.331c-.47-.211-.959-.417-1.462-.615a28.687,28.687,0,0,0,.574-5,4.2,4.2,0,0,0-1.209-3.048,4.267,4.267,0,0,0-3.07-1.288c-.867,0-1.774.033-2.7.11A3.826,3.826,0,0,0,43.722,7.39a3.95,3.95,0,0,0-.646-.31c-.123-.361-.238-.669-.336-.916a4.061,4.061,0,0,0-5.367-2.228c-.588.253-1.19.532-1.795.838a23.112,23.112,0,0,0-2.985-3.583,4.24,4.24,0,0,0-6.066.177Q25.6,2.38,24.8,3.4a3.865,3.865,0,0,0-3.82.993c-.8-.325-1.474-.541-1.914-.67a4.059,4.059,0,0,0-3.166.367,4.008,4.008,0,0,0-1.92,2.494c-.191.734-.365,1.5-.51,2.3a23.107,23.107,0,0,0-4.54.151,4.237,4.237,0,0,0-2.858,1.705,4.186,4.186,0,0,0-.76,3.2q.223,1.314.526,2.532a3.857,3.857,0,0,0-1.553,3.371c-.761.441-1.35.842-1.726,1.113A4.057,4.057,0,0,0,.908,23.677,4.009,4.009,0,0,0,1.7,26.724c.493.641,1.03,1.292,1.61,1.934q-.078.163-.14.333a23.084,23.084,0,0,0-2.6,3.6,4.237,4.237,0,0,0-.407,3.3,4.185,4.185,0,0,0,2.058,2.563q1.184.636,2.34,1.144A3.869,3.869,0,0,0,6.19,42.721c-.1.777-.139,1.414-.154,1.839a4.057,4.057,0,0,0,1.136,2.977A4.013,4.013,0,0,0,9.263,48.7a4.07,4.07,0,0,0,.8.084c.8,0,1.632-.02,2.484-.083q.081.155.176.3a23.115,23.115,0,0,0,1.318,4.643A4.236,4.236,0,0,0,16.4,55.992a4.281,4.281,0,0,0,.739.224,4.176,4.176,0,0,0,2.548-.276q1.282-.568,2.439-1.2a3.848,3.848,0,0,0,1.485.657q.145.03.294.049a3.834,3.834,0,0,0,1.761-.183c.461.45.86.8,1.143,1.038a4.067,4.067,0,0,0,1.789.868,4.11,4.11,0,0,0,1.259.061,4.009,4.009,0,0,0,2.758-1.518c.459-.583.916-1.2,1.358-1.859a23.141,23.141,0,0,0,4.959,2.075q.148.042.3.072a4.234,4.234,0,0,0,3-.492,4.187,4.187,0,0,0,1.976-2.627q.352-1.416.568-2.764a3.865,3.865,0,0,0,1.654-.976,3.823,3.823,0,0,0,1.02-1.786c.575-.083,1.045-.174,1.38-.246a4.058,4.058,0,0,0,2.6-1.836,4.007,4.007,0,0,0,.493-3.109c-.152-.61-.327-1.237-.526-1.87a23.161,23.161,0,0,0,4.611-2.612,4.237,4.237,0,0,0,1.694-2.864A4.185,4.185,0,0,0,56.843,31.648Zm-2.167-4.087a3.28,3.28,0,0,1-.414,2.027,3.332,3.332,0,0,1-.294.435,20.342,20.342,0,0,1-3.282,3.195c-.324-.494-.67-.986-1.04-1.47q-.183-.239-.373-.475-.3-.368-.615-.726a21.739,21.739,0,0,0,1.6-2.117,3.259,3.259,0,0,0,.542-1.867,3.335,3.335,0,0,0-.074-.637c-.012-.057-.029-.111-.045-.166a3.3,3.3,0,0,0-1.156-1.753,3.364,3.364,0,0,0-.282-.2l-.155-.1c.121-.284.234-.564.339-.84l.022-.048q.265.138.532.285a28.25,28.25,0,0,1,3.443,2.261,3.3,3.3,0,0,1,.266.227,3.209,3.209,0,0,1,.987,1.965ZM45.2,42.221a2.643,2.643,0,0,1-.2,1.333,2.693,2.693,0,0,1-.406.659c-.036.043-.076.083-.114.124a2.688,2.688,0,0,1-1.767.842,16.882,16.882,0,0,1-2.778-.038c-.188-.018-.382-.04-.58-.066-.314-.041-.639-.092-.973-.156a16.207,16.207,0,0,0,.563-5.827,13.275,13.275,0,0,0,5.5-.878l0,.009a21.809,21.809,0,0,1,.627,2.965c.011.08.022.16.032.241.016.12.032.24.046.362.009.079.018.158.027.237S45.193,42.155,45.2,42.221Zm-6.057,4.051q-.061.293-.131.591-.233.977-.573,1.994-.095.284-.2.57-.325.9-.73,1.833a3.054,3.054,0,0,1-1.743,1.648,3.108,3.108,0,0,1-1.3.191,3.07,3.07,0,0,1-.637-.111,3.189,3.189,0,0,1-.343-.12,18.274,18.274,0,0,1-2.72-2.06q-.214-.2-.424-.406c-.157-.156-.312-.318-.464-.483a21.922,21.922,0,0,0,1.989-2.382l-.01-.006a15.882,15.882,0,0,0,1.986.95,3.159,3.159,0,0,0,.5.149,3.038,3.038,0,0,0,1.795-.178h0c.03-.013.061-.024.091-.037.073-.033.144-.071.213-.11a3,3,0,0,0,1.388-1.63c.135-.378.263-.771.384-1.175.358.07.708.126,1.045.171C39.222,45.87,39.184,46.071,39.143,46.273ZM28.634,50.311c-.022.021-.046.039-.068.06a2.643,2.643,0,0,1-1.182.613,2.7,2.7,0,0,1-.7.068c-.078,0-.155-.011-.232-.02a2.69,2.69,0,0,1-1.685-.873,16.869,16.869,0,0,1-1.632-2.151q-.153-.239-.307-.5c-.183-.308-.364-.636-.539-.982-.187.079-.374.155-.559.227.186.372.38.724.576,1.054-.247.136-.5.269-.757.4q-.269.132-.546.26-.812.371-1.7.694-.28.1-.569.2-1.029.348-2.154.635a3.053,3.053,0,0,1-2.371-.365,3.12,3.12,0,0,1-.913-.852c-.031-.044-.058-.09-.086-.135a3.086,3.086,0,0,1-.285-.573,3.166,3.166,0,0,1-.129-.422,19.023,19.023,0,0,1-.38-2.612c-.023-.305-.04-.627-.05-.962-.005-.193-.008-.389-.008-.59s0-.421.012-.637l.234.029q.3.036.6.066a21.966,21.966,0,0,0,3.011.095,15.816,15.816,0,0,0,.46,2.093,3.046,3.046,0,0,0,1.52,1.846,3.077,3.077,0,0,0,.8.287,3.018,3.018,0,0,0,.475.057l.081,0q.12,0,.24-.006c.057,0,.114-.009.171-.016l.026,0a3.021,3.021,0,0,0,.571-.123l.008,0c.186-.061.375-.127.564-.195l0-.008a17.151,17.151,0,0,0,6.09-3.575,13.3,13.3,0,0,0,4.126,3.839,21.636,21.636,0,0,1-1.874,2.234c-.138.145-.279.29-.424.435L29,49.952Q28.821,50.132,28.634,50.311ZM10.3,41.113a2.724,2.724,0,0,1-.215-.358,2.687,2.687,0,0,1-.256-1.7,16.738,16.738,0,0,1,.61-2.359c.06-.178.125-.361.195-.548.157-.419.341-.859.555-1.308v0a16.754,16.754,0,0,0,4.712,1.82c.241.05.485.091.73.127a13.325,13.325,0,0,0-.493,5.667,21.622,21.622,0,0,1-2.828-.1q-.3-.029-.6-.066l-.3-.04c-.108-.015-.216-.028-.326-.045a2.683,2.683,0,0,1-.271-.054,2.63,2.63,0,0,1-1.219-.694A2.738,2.738,0,0,1,10.3,41.113ZM3.7,29.3c.017-.054.036-.107.057-.16a3.1,3.1,0,0,1,.287-.567,3.2,3.2,0,0,1,.222-.308,19.389,19.389,0,0,1,2.8-2.728l.016-.013q.219-.173.451-.346t.491-.353l.051.088q.156.263.313.516a21.977,21.977,0,0,0,1.768,2.456,15.825,15.825,0,0,0-1.364,1.639,3.044,3.044,0,0,0-.525,2.333,3.009,3.009,0,0,0,1.291,1.979c.343.231.7.459,1.075.681l.033.02c-.228.475-.424.94-.59,1.383q-.454-.193-.911-.415-.269-.131-.539-.273-.771-.4-1.55-.894-.253-.159-.507-.327-.912-.6-1.834-1.318a3.054,3.054,0,0,1-1.167-2.1A3.113,3.113,0,0,1,3.7,29.3Zm4.339-7c.015-.073.031-.147.053-.22a2.732,2.732,0,0,1,.222-.536,2.69,2.69,0,0,1,1.116-1.1,16.586,16.586,0,0,1,2-.882q.263-.1.55-.191c.484-.159,1.014-.309,1.579-.434a16.115,16.115,0,0,0,1.793,5.431,13.319,13.319,0,0,0-4.778,3.091A21.768,21.768,0,0,1,8.92,25.141c-.106-.17-.211-.341-.315-.517l-.079-.137c-.066-.112-.132-.225-.2-.339-.035-.062-.065-.125-.1-.189A2.639,2.639,0,0,1,8.039,22.3Zm3.57-4.429q-.06-.294-.113-.6-.166-.94-.256-1.95-.027-.3-.048-.6-.065-.97-.066-2a3.055,3.055,0,0,1,.938-2.208,3.174,3.174,0,0,1,2.27-.879c.267.008.629.027,1.061.067.287.046.577.1.871.157a17.729,17.729,0,0,1,1.949.518q.28.092.559.2t.581.227a22.285,22.285,0,0,0-.891,3,15.851,15.851,0,0,0-2.191-.076,3.046,3.046,0,0,0-2.164,1.018,3.009,3.009,0,0,0-.77,2.234c.031.444.075.9.134,1.366-.591.129-1.146.284-1.653.449Q11.707,18.336,11.609,17.869Zm8.518-7.391c.043-.107.086-.213.13-.321l.02-.048a2.646,2.646,0,0,1,1.278-1.362c.069-.034.139-.067.211-.1a2.747,2.747,0,0,1,.554-.154,2.678,2.678,0,0,1,.985.018,2.746,2.746,0,0,1,.576.187,16.548,16.548,0,0,1,1.877,1.009c.16.1.324.205.491.317.418.28.857.6,1.3.964a16.151,16.151,0,0,0-3.19,4.731,13.316,13.316,0,0,0-5.3-1.858,21.958,21.958,0,0,1,.854-2.825q.06-.161.123-.323Zm7.355-1.933Q28.2,7.761,29.039,7q.222-.2.453-.4.613-.533,1.284-1.056A3.066,3.066,0,0,1,33.1,4.922c.068.01.136.021.2.035a3.136,3.136,0,0,1,1.861,1.2,19.075,19.075,0,0,1,1.392,2.223q.137.256.275.532a18.5,18.5,0,0,1,.746,1.709l-.015.007a16.326,16.326,0,0,0-2.7,1.533A16.1,16.1,0,0,0,33.3,9.933a3.048,3.048,0,0,0-4.351-.3c-.326.292-.655.6-.98.928-.459-.379-.915-.715-1.349-1.007.149-.186.3-.371.464-.555Q27.276,8.77,27.482,8.545Zm12.411,2.349a2.707,2.707,0,0,1,.829.322,2.661,2.661,0,0,1,1.244,1.675c.074.306.164.726.245,1.233.029.184.058.379.083.585.056.446.1.941.12,1.471a17.241,17.241,0,0,0-5.838.537,13.339,13.339,0,0,0-1.369-3.929A15.609,15.609,0,0,1,37.82,11.3q.274-.123.557-.239c.132-.054.267-.105.4-.157A2.652,2.652,0,0,1,39.893,10.894Zm10.131,7.353a3.143,3.143,0,0,1-.051.492,24.067,24.067,0,0,1-.88,3.252c-.063.181-.13.367-.2.555q-.155.415-.336.846a22.4,22.4,0,0,0-2.911-1.45,19.921,19.921,0,0,0,.416-2.288,3.019,3.019,0,0,0-.65-2.266,3.064,3.064,0,0,0-2.1-1.138c-.1-.01-.193-.017-.29-.026-.019-.549-.062-1.063-.119-1.528q.347,0,.7.008.3.008.6.023.657.034,1.337.1.3.031.6.07.626.079,1.271.188l.112.021A3.119,3.119,0,0,1,49.476,16.4a3.084,3.084,0,0,1,.5,1.205A3.047,3.047,0,0,1,50.024,18.246Zm-1.1,6.072a2.8,2.8,0,0,1,.3.222,2.733,2.733,0,0,1,.916,1.513c0,.021.007.043.011.064a2.662,2.662,0,0,1-.393,1.98,20.893,20.893,0,0,1-1.51,2q-.184.216-.387.441c-.239.265-.5.537-.772.81a16.361,16.361,0,0,0-3.919-3.868A14.659,14.659,0,0,0,45.5,22.52a22.246,22.246,0,0,1,2.816,1.428q.2.121.409.248l.118.073ZM38.86,38.479a10.762,10.762,0,0,0-.764-2.652,11.082,11.082,0,0,0,3.364-1.3,2.183,2.183,0,0,0,1.013-1.382,2.159,2.159,0,0,0-.281-1.671A12.591,12.591,0,0,0,38.9,27.9a8.538,8.538,0,0,0,.787-1.294,11.88,11.88,0,0,1,2.878,1.213l.223.13.008-.01a17.18,17.18,0,0,1,4.733,5.119,2.408,2.408,0,0,1,.314,1.866,2.445,2.445,0,0,1-1.135,1.549A14.01,14.01,0,0,1,38.86,38.479Zm-1.6,7.994a2.4,2.4,0,0,1-.836,1.13c-.056.042-.116.08-.176.118l-.043.028c-.034.021-.072.038-.108.057s-.077.042-.118.061a2.445,2.445,0,0,1-1.92.054,15.592,15.592,0,0,1-3.253-1.765q-.168-.119-.337-.246-.108-.082-.217-.167l0,0c-.215-.169-.43-.349-.642-.539l-.068-.06c-.056-.051-.112-.1-.167-.155l-.115-.11c-.048-.046-.095-.091-.142-.138q-.123-.122-.243-.249l-.081-.087c-.065-.07-.13-.142-.194-.214l-.075-.086c-.081-.094-.162-.189-.24-.287l-.013-.015q-.138-.172-.271-.352c-.118-.159-.232-.322-.342-.491a10.744,10.744,0,0,0,1.677-2.328,11.111,11.111,0,0,0,3.007,1.786,2.245,2.245,0,0,0,.36.107,2.179,2.179,0,0,0,1.353-.155A2.157,2.157,0,0,0,35.2,41.118a14.508,14.508,0,0,0,.7-2.728q.045-.307.075-.62a9.732,9.732,0,0,0,.009-1.782,8.1,8.1,0,0,0,1.507-.061,10.029,10.029,0,0,1,.768,2.482c.036.205.065.413.09.623A16.583,16.583,0,0,1,37.259,46.473Zm-16.9.124a2.443,2.443,0,0,1-.474.106h-.005c-.069.008-.138.012-.207.014-.04,0-.079,0-.119,0s-.085,0-.128,0a2.361,2.361,0,0,1-.281-.038,2.44,2.44,0,0,1-.652-.23c-.019-.01-.035-.021-.054-.031a2.447,2.447,0,0,1-.731-.616l.006.03a2.458,2.458,0,0,1-.462-.869,14.013,14.013,0,0,1-.01-8.1c.066-.191.138-.382.217-.572a9.3,9.3,0,0,1,.85-1.592c.166-.248.348-.484.537-.715a9.831,9.831,0,0,0,1.186.329c.14.029.279.054.415.075a8.24,8.24,0,0,0-.343,1.761c-.018.208-.03.413-.034.614a11.152,11.152,0,0,0,.441,3.3,2.2,2.2,0,0,0,1.663,1.528,2.156,2.156,0,0,0,1.114-.066A14.549,14.549,0,0,0,25.86,40.4q.274-.154.541-.324a9.743,9.743,0,0,0,1.421-1.092,8.181,8.181,0,0,0,1.051,1.231,10.022,10.022,0,0,1-1.535,2.22q-.209.231-.436.452A16.587,16.587,0,0,1,20.362,46.6ZM11.716,34.442l-.044-.024c-.12-.066-.241-.134-.362-.2l-.2-.119-.234-.139q-.18-.109-.36-.223l-.1-.063c-.162-.1-.324-.208-.487-.318h0l-.028-.019a2.409,2.409,0,0,1-1.034-1.584,2.445,2.445,0,0,1,.421-1.874,14.012,14.012,0,0,1,6.39-4.98,10.8,10.8,0,0,0,1.7,2.068,11.166,11.166,0,0,0-2.248,2.307,2.181,2.181,0,0,0-.376,1.672,2.157,2.157,0,0,0,.926,1.419,14.282,14.282,0,0,0,2.579,1.393c-.154.2-.3.4-.44.6a9.91,9.91,0,0,0-.972,1.861A14.9,14.9,0,0,1,11.716,34.442Zm8.244-19.809A12.073,12.073,0,0,1,24.133,16.3a10.837,10.837,0,0,0-.583,2.459,11.177,11.177,0,0,0-3.223-.365,2.182,2.182,0,0,0-1.551.73,2.156,2.156,0,0,0-.552,1.6,14.241,14.241,0,0,0,.532,3.059q.092.308.2.613a9.533,9.533,0,0,0,.6,1.343,8.3,8.3,0,0,0-1.694.87,10.056,10.056,0,0,1-1.605-1.894c-.115-.173-.226-.35-.333-.533a16.572,16.572,0,0,1-1.986-7.253,2.407,2.407,0,0,1,.617-1.788,2.444,2.444,0,0,1,1.738-.817A15.6,15.6,0,0,1,19.959,14.633Zm4.894,1.429a16.63,16.63,0,0,1,4.5-5.981,2.418,2.418,0,0,1,1.8-.613,2.494,2.494,0,0,1,.332.046,2.41,2.41,0,0,1,1.359.809,14.369,14.369,0,0,1,3.146,6.471,11.274,11.274,0,0,0-2.491,1.187,11.2,11.2,0,0,0-1.415-2.15,2.185,2.185,0,0,0-3.119-.217,14.1,14.1,0,0,0-2.123,2.338c-.127.179-.244.357-.354.534a9.352,9.352,0,0,0-.652,1.238,8.3,8.3,0,0,0-1.7-.79,10.1,10.1,0,0,1,.5-2.285C24.7,16.453,24.774,16.257,24.853,16.062Zm18.4.789a2.547,2.547,0,0,1,.264.04,2.46,2.46,0,0,1,1.428.875,2.419,2.419,0,0,1,.52,1.815c-.029.24-.079.606-.162,1.058l-.007,0c-.032.176-.069.366-.111.567l-.005.025q-.049.233-.109.485-.066.278-.146.575c-.078.289-.168.59-.268.9-.015.045-.029.089-.044.134-.048.144-.1.29-.153.436l-.048.132a12.722,12.722,0,0,1-1.755,3.256,11.108,11.108,0,0,0-2.677-1.188,13.41,13.41,0,0,0,.872-3.39,2.166,2.166,0,0,0-.466-1.624,2.2,2.2,0,0,0-1.507-.815,12.785,12.785,0,0,0-4.55.3,8.832,8.832,0,0,0-.548-1.816C36.168,17.057,39.338,16.464,43.25,16.852Zm-4.169,9.607a7.739,7.739,0,0,1-.687,1.113,7.251,7.251,0,0,0-3.942-1.066h-.068c-.254.008-.513.029-.777.064a8.708,8.708,0,0,0-1.556.357,9.175,9.175,0,0,0-.937.347,9.376,9.376,0,0,0-1.876,1.09q-.078.06-.149.117l-.022.017v-.01c0-.012,0-.027,0-.04a9.043,9.043,0,0,1,.141-1.4c.029-.166.064-.337.105-.515a7.963,7.963,0,0,1,1.642-3.362c1.681-1.972,4.326-2.794,7.862-2.444a1.674,1.674,0,0,1,.171.026,1.593,1.593,0,0,1,.924.566A1.565,1.565,0,0,1,40.25,22.5a12.982,12.982,0,0,1-.867,3.309l-.037.084q-.1.234-.216.467C39.114,26.391,39.1,26.425,39.081,26.459Zm2.781,5.786a1.575,1.575,0,0,1,.037.174l.013.014a1.588,1.588,0,0,1-.763,1.574,10.415,10.415,0,0,1-3.321,1.257c-.2.037-.415.068-.63.09a7.343,7.343,0,0,1-1.3.024,7.217,7.217,0,0,0-1.287-3.106,7.6,7.6,0,0,0-.81-.941A8.987,8.987,0,0,0,31.888,29.9a9.436,9.436,0,0,0-2.394-.953,9.322,9.322,0,0,1,2.68-1.427,7.447,7.447,0,0,1,6.137.714l.223.13h0A11.778,11.778,0,0,1,41.682,31.8q.042.066.076.134l-.04-.033A1.555,1.555,0,0,1,41.862,32.245ZM35.394,37.5c-.016.209-.039.422-.068.637a13.836,13.836,0,0,1-.7,2.777,1.557,1.557,0,0,1-.828.9,1.581,1.581,0,0,1-1.242.035,10.457,10.457,0,0,1-2.951-1.781c-.157-.137-.313-.283-.465-.437a7.386,7.386,0,0,1-.888-1.085,7.208,7.208,0,0,0,1.7-3.045,7.64,7.64,0,0,0,.21-1.094,8.519,8.519,0,0,0,.055-1.19c-.006-.254-.021-.5-.046-.744-.013-.125-.027-.248-.044-.368q-.03-.213-.068-.417a10.026,10.026,0,0,0-.253-1.047,8.725,8.725,0,0,0-.341-.944c-.021-.049-.043-.1-.063-.142l.057.008,0-.006a9.347,9.347,0,0,1,2.215.916,7.8,7.8,0,0,1,2.481,2.19,6.641,6.641,0,0,1,1.13,2.639c.04.2.068.413.091.625A8.7,8.7,0,0,1,35.394,37.5Zm-7.9.967a8.72,8.72,0,0,1-1.228.981q-.265.176-.551.341A13.858,13.858,0,0,1,23.1,40.942a1.557,1.557,0,0,1-1.219-.1,1.583,1.583,0,0,1-.79-.959,10.5,10.5,0,0,1-.413-3.245c.008-.207.022-.417.046-.631a7.478,7.478,0,0,1,.335-1.552,7.291,7.291,0,0,0,4-.788c.152-.079.3-.16.437-.243a8.629,8.629,0,0,0,1.123-.81q.215-.182.411-.37a9.877,9.877,0,0,0,.827-.895c.131-.16.251-.318.361-.471l.034-.047c.174-.244.321-.476.444-.686l.068-.119.008-.014.036-.066.009-.016.051-.1a8.677,8.677,0,0,1,.37,1.027,9.573,9.573,0,0,1,.241,1.025q.034.194.061.4a7.758,7.758,0,0,1-.218,3.219,6.638,6.638,0,0,1-1.39,2.512C27.8,38.17,27.651,38.321,27.5,38.469ZM19.612,24.437c-.08-.2-.155-.414-.223-.631a13.472,13.472,0,0,1-.561-3.124,1.557,1.557,0,0,1,.4-1.156A1.582,1.582,0,0,1,20.351,19a10.6,10.6,0,0,1,2.488.21c.214.044.434.1.658.161.2.055.395.118.594.19A7.549,7.549,0,0,1,25.6,20.3a7.3,7.3,0,0,0-.1,4.58c.063.208.135.408.211.6a9.036,9.036,0,0,0,.53,1.126c.017.03.032.061.049.091a9.9,9.9,0,0,0,.949,1.375,8.822,8.822,0,0,0,.816.872l.082.073-.11.017-.185.025c-.221.027-.478.049-.762.059a8.314,8.314,0,0,1-4.517-1.064,6.641,6.641,0,0,1-2.091-1.967c-.118-.171-.228-.351-.333-.537A8.535,8.535,0,0,1,19.612,24.437Zm6.72-4.373a8.468,8.468,0,0,1,.524-1.042c.11-.187.228-.373.355-.558a13.435,13.435,0,0,1,2.149-2.4,1.564,1.564,0,0,1,1.161-.4,1.633,1.633,0,0,1,.215.029,1.559,1.559,0,0,1,.879.523,10.61,10.61,0,0,1,1.372,2.1c.014.027.027.053.041.081.076.157.148.322.218.491l.028.068a8.153,8.153,0,0,1,.463,1.569,7.343,7.343,0,0,0-3.965,3.181c-.036.06-.069.121-.1.181a8.416,8.416,0,0,0-.453.915c-.016.038-.031.075-.046.113-.063.156-.122.31-.173.46a9.738,9.738,0,0,0-.289,1.035q-.053.236-.093.464a9.691,9.691,0,0,0-.151,1.469c0,.05,0,.1,0,.15-.057-.054-.118-.113-.181-.177l-.011-.012c-.181-.183-.385-.408-.6-.669a8.252,8.252,0,0,1-1.837-4.1,6.64,6.64,0,0,1,.278-2.884C26.174,20.458,26.25,20.261,26.332,20.065Zm-2.916,9.071c.079.03.157.058.236.085a8.722,8.722,0,0,0,1.119.311c.118.024.235.045.352.065l.168.026a9.911,9.911,0,0,0,1.872.1,8.768,8.768,0,0,0,.953-.091l.1-.015.019,0,.087-.016-.013.024-.052.094a8.841,8.841,0,0,1-.517.8l-.058.08c-.1.134-.207.272-.322.412a8.071,8.071,0,0,1-3.234,2.426,6.64,6.64,0,0,1-2.837.444c-.207-.012-.417-.036-.628-.066a8.6,8.6,0,0,1-1.381-.318q-.31-.1-.624-.221a13.707,13.707,0,0,1-2.644-1.412,1.557,1.557,0,0,1-.668-1.024,1.581,1.581,0,0,1,.273-1.212,10.526,10.526,0,0,1,2.218-2.252q.247-.182.517-.354a7.55,7.55,0,0,1,1.528-.75A7.216,7.216,0,0,0,23.416,29.136ZM50.49,39.458a3.163,3.163,0,0,1-.476.3A19.226,19.226,0,0,1,47,40.957l-.177.052q-.193.057-.394.111-.354.1-.73.182c-.007-.051-.015-.1-.022-.154A22.188,22.188,0,0,0,45,38c.146-.061.287-.121.421-.181l0-.007a15.542,15.542,0,0,0,1.6-.827,3.045,3.045,0,0,0,1.414-1.929,3.008,3.008,0,0,0-.392-2.33q-.294-.461-.592-.885c.292-.286.566-.573.821-.855q.284.326.562.672.186.233.369.476.515.682,1.006,1.439.162.251.322.51.422.684.826,1.425a3.054,3.054,0,0,1,.232,2.388,3.118,3.118,0,0,1-.621,1.116A3.084,3.084,0,0,1,50.49,39.458Zm2.3-20.118a3.486,3.486,0,0,1,1.856,1.989,3.424,3.424,0,0,1-.12,2.67c-.121.254-.3.618-.538,1.058-.065-.057-.13-.115-.2-.168a28.188,28.188,0,0,0-3.564-2.321q-.265-.144-.536-.283l-.042-.022a24.665,24.665,0,0,0,.919-3.411,3.737,3.737,0,0,0,.053-.4l.258.094c.188.071.377.145.567.22Q52.111,19.036,52.789,19.34Zm-4.92-9.9a3.737,3.737,0,0,1,.759.077,3.657,3.657,0,0,1,1.88,1.03,3.6,3.6,0,0,1,1.037,2.613,28.13,28.13,0,0,1-.541,4.8c-.129-.047-.258-.093-.389-.139a3.67,3.67,0,0,0-.644-1.767,3.725,3.725,0,0,0-2.453-1.557c-.452-.077-.919-.145-1.4-.2A25.942,25.942,0,0,0,45.487,9.8c-.022-.093-.051-.183-.08-.273Q46.6,9.441,47.869,9.44ZM43.326,7.861c.028.016.057.029.085.046a3.228,3.228,0,0,1,1.378,1.671,3.294,3.294,0,0,1,.11.362,25.365,25.365,0,0,1,.615,4.284c-.422-.041-.852-.072-1.287-.093q-.3-.014-.6-.021c-.266-.006-.534-.008-.8,0-.087-.562-.186-1.026-.267-1.358A3.259,3.259,0,0,0,41.029,10.7a3.321,3.321,0,0,0-.689-.305,3.238,3.238,0,0,0-1.533-.108c-.1.018-.21.041-.314.069l-.272.077-.063.018a19.147,19.147,0,0,0-.769-1.77l.222-.087a28.98,28.98,0,0,1,3.26-1.047,3.307,3.307,0,0,1,1.5-.041c.075.015.15.035.224.056A3.3,3.3,0,0,1,43.326,7.861ZM35.91,5.28q.819-.408,1.7-.789a3.412,3.412,0,0,1,2.047-.21,3.511,3.511,0,0,1,.638.2,3.418,3.418,0,0,1,1.883,1.909c.058.146.122.314.191.5a3.909,3.909,0,0,0-1.65.068A28.965,28.965,0,0,0,37.38,8.034c-.09.035-.176.072-.264.108A19.7,19.7,0,0,0,35.652,5.8c-.07-.1-.144-.185-.221-.273C35.589,5.442,35.748,5.36,35.91,5.28Zm-8.938-3.5A3.6,3.6,0,0,1,29.542.6a3.687,3.687,0,0,1,.852.074,3.588,3.588,0,0,1,1.779.945,22.507,22.507,0,0,1,2.867,3.429l-.07.037a3.7,3.7,0,0,0-4.563-.029c-.452.351-.908.727-1.362,1.126A20.923,20.923,0,0,0,25.63,3.744c-.078-.044-.158-.081-.237-.12Q26.126,2.7,26.972,1.776Zm-4.152,2.2a3.244,3.244,0,0,1,1.567-.066l.021.005a3.226,3.226,0,0,1,.605.2,3.286,3.286,0,0,1,.319.157,20.319,20.319,0,0,1,3.26,2.325c-.525.482-1.041,1-1.537,1.544q-.2.222-.4.451c-.18.21-.359.423-.531.642a17.142,17.142,0,0,0-2-1.079,3.355,3.355,0,0,0-2.584-.063A3.251,3.251,0,0,0,19.72,9.876c-.012.028-.023.057-.034.085-.038.091-.075.182-.112.275-.206-.085-.413-.165-.62-.241.025-.077.051-.154.077-.232a27.68,27.68,0,0,1,1.824-4.19,3.239,3.239,0,0,1,.3-.459,3.191,3.191,0,0,1,.439-.467A3.251,3.251,0,0,1,22.82,3.978ZM14.567,6.734A3.408,3.408,0,0,1,16.2,4.613a3.454,3.454,0,0,1,2.417-.383q.141.029.281.07c.394.115.978.3,1.679.579a3.91,3.91,0,0,0-.256.411,27.727,27.727,0,0,0-1.866,4.32l-.062.191a18.9,18.9,0,0,0-2.929-.7c-.475-.075-.939-.132-1.389-.173Q14.276,7.856,14.567,6.734Zm-8.657,7.1a3.586,3.586,0,0,1,.652-2.74A3.638,3.638,0,0,1,9.015,9.631a22.3,22.3,0,0,1,3.515-.187,3.75,3.75,0,0,0-.886.637,3.653,3.653,0,0,0-1.122,2.641c0,.679.022,1.385.074,2.106a20.928,20.928,0,0,0-3.919,1.161c-.1.043-.2.091-.3.142Q6.112,15.025,5.909,13.835Zm-.8,4.535A3.265,3.265,0,0,1,6.53,16.736a3.319,3.319,0,0,1,.379-.189,20.281,20.281,0,0,1,3.74-1.116c.061.637.148,1.283.264,1.931q.053.3.115.594.106.511.241,1.02a17.2,17.2,0,0,0-2.121.93,3.327,3.327,0,0,0-1.5,1.63,3.367,3.367,0,0,0-.135.372A3.247,3.247,0,0,0,7.728,24.3q-.273.188-.531.379A28.075,28.075,0,0,1,5.162,20.9a3.245,3.245,0,0,1-.226-.73,3.2,3.2,0,0,1-.054-.659A3.258,3.258,0,0,1,5.11,18.371ZM2.178,26.356a3.409,3.409,0,0,1-.673-2.591,3.459,3.459,0,0,1,1.409-2.322c.33-.238.832-.58,1.472-.961a3.877,3.877,0,0,0,.225.662,27.991,27.991,0,0,0,2.116,3.894A19.961,19.961,0,0,0,3.8,27.88c-.062.075-.118.154-.174.233Q2.894,27.286,2.178,26.356ZM2.51,37.922a3.587,3.587,0,0,1-1.764-2.2,3.639,3.639,0,0,1,.35-2.836,22.117,22.117,0,0,1,1.853-2.7,3.759,3.759,0,0,0,.019.472,3.652,3.652,0,0,0,1.4,2.506c.6.465,1.239.928,1.919,1.371A20.912,20.912,0,0,0,4.7,38.528a3.976,3.976,0,0,0-.092.433Q3.574,38.493,2.51,37.922Zm3.111,3.306a3.277,3.277,0,0,1-.433-2.013,3.334,3.334,0,0,1,.1-.527,20.339,20.339,0,0,1,1.508-3.823c.5.308,1.012.6,1.545.881q.266.139.538.271.493.239,1,.452a17.292,17.292,0,0,0-.644,2.478,3.261,3.261,0,0,0,.459,2.339c.038.061.075.122.117.181a3.25,3.25,0,0,0,1.962,1.286c-.01.233-.014.46-.015.683a28.2,28.2,0,0,1-4.112-.7,3.241,3.241,0,0,1-.807-.318,3.2,3.2,0,0,1-.551-.386A3.268,3.268,0,0,1,5.621,41.227Zm4.446,6.951a3.408,3.408,0,0,1-2.459-1.06,3.457,3.457,0,0,1-.969-2.537c.013-.364.045-.889.118-1.525a3.884,3.884,0,0,0,.746.265q.52.127,1.064.24a27.138,27.138,0,0,0,3.2.47,19.917,19.917,0,0,0,.445,3.747c.025.115.057.227.093.337Q11.218,48.184,10.067,48.179Zm9.374,7.209a3.586,3.586,0,0,1-2.816.045A3.639,3.639,0,0,1,14.6,53.415a22.3,22.3,0,0,1-1.092-3.547,3.752,3.752,0,0,0,.386.276,3.7,3.7,0,0,0,1.192.475,3.654,3.654,0,0,0,1.644-.04c.727-.184,1.479-.406,2.239-.667a20.971,20.971,0,0,0,2.317,4.006,4,4,0,0,0,.35.4Q20.59,54.876,19.441,55.387Zm5.742-.606a3.267,3.267,0,0,1-2.994-.762,3.337,3.337,0,0,1-.42-.462,20.372,20.372,0,0,1-2.232-3.847c.565-.209,1.132-.441,1.694-.7q.273-.126.545-.26.423-.21.839-.442a17.425,17.425,0,0,0,1.707,2.255,3.293,3.293,0,0,0,1.551.967c.076.022.153.041.231.057a3.383,3.383,0,0,0,.544.066l.018,0a3.252,3.252,0,0,0,2.365-.889l.022-.019c.138-.132.269-.264.4-.4.162.174.325.346.492.511-.108.123-.218.246-.331.369a28.055,28.055,0,0,1-3.2,2.947,3.256,3.256,0,0,1-.608.38A3.191,3.191,0,0,1,25.183,54.782Zm6.956.561a3.408,3.408,0,0,1-2.345,1.291,3.458,3.458,0,0,1-2.6-.792c-.24-.2-.563-.483-.938-.841a3.874,3.874,0,0,0,.532-.351,27.9,27.9,0,0,0,3.3-3.067c.094-.1.187-.209.28-.315a18.95,18.95,0,0,0,2.86,2.153l.219.133Q32.844,54.444,32.139,55.343Zm11.482-2.6a3.586,3.586,0,0,1-1.694,2.251,3.643,3.643,0,0,1-2.835.361,22.51,22.51,0,0,1-4.14-1.648,3.749,3.749,0,0,0,1.026-.228A3.653,3.653,0,0,0,38.064,51.5c.265-.607.521-1.247.757-1.913.368.1.729.181,1.076.253a20.807,20.807,0,0,0,3.718.429,3.974,3.974,0,0,0,.53-.03Q43.937,51.46,43.621,52.738ZM46,48.716a3.282,3.282,0,0,1-1.127.732,3.249,3.249,0,0,1-.634.174,3.328,3.328,0,0,1-.617.047,20.364,20.364,0,0,1-4.61-.65c.212-.646.4-1.314.563-2q.069-.293.13-.59.071-.345.13-.694a17.453,17.453,0,0,0,2.913.044,3.288,3.288,0,0,0,1.765-.671,3.359,3.359,0,0,0,.535-.509c.012-.015.022-.031.034-.046a3.249,3.249,0,0,0,.714-2.4c-.009-.084-.019-.17-.029-.255q.4-.089.772-.19a27.556,27.556,0,0,1,.423,4.668,3.269,3.269,0,0,1-.028.437,3.231,3.231,0,0,1-.934,1.9Zm5.336-6.4a3.41,3.41,0,0,1-.42,2.644,3.458,3.458,0,0,1-2.22,1.565c-.286.062-.675.138-1.145.21.01-.118.015-.237.014-.357a27.573,27.573,0,0,0-.448-4.8l0-.022A19.806,19.806,0,0,0,50.286,40.3a3.779,3.779,0,0,0,.406-.242q.076.233.149.469Q51.11,41.39,51.34,42.313Zm5.766-7.573A3.638,3.638,0,0,1,55.652,37.2a22.551,22.551,0,0,1-4.439,2.523l-.022-.065a3.7,3.7,0,0,0,.972-1.577,3.654,3.654,0,0,0-.278-2.856c-.268-.492-.559-.994-.872-1.5A20.948,20.948,0,0,0,54.438,30.4a3.982,3.982,0,0,0,.255-.356q.848.923,1.676,1.974A3.587,3.587,0,0,1,57.107,34.74Z" transform="translate(0 0)"/><path class="a" d="M185.185,126.157l.006-.006-.042-.042Z" transform="translate(-138.557 -94.374)"/><path class="a" d="M104.046,119.043l-.04.012.062-.013Z" transform="translate(-77.833 -89.085)"/><g transform="translate(24.233 24.881)"><path class="a" d="M100.7,103.987a3.133,3.133,0,0,1,2.582,2.218.545.545,0,0,1-.65.719,3.988,3.988,0,0,1-2.493-2.167A.541.541,0,0,1,100.7,103.987Z" transform="translate(-99.128 -102.695)"/><path class="a" d="M103.9,101.373a3.133,3.133,0,0,1,1.9,2.82.546.546,0,0,1-.824.517,3.989,3.989,0,0,1-1.825-2.743A.541.541,0,0,1,103.9,101.373Z" transform="translate(-101.419 -100.709)"/><path class="a" d="M108.322,99.5a3.133,3.133,0,0,1,.932,3.273.546.546,0,0,1-.944.235,3.99,3.99,0,0,1-.88-3.176A.541.541,0,0,1,108.322,99.5Z" transform="translate(-104.6 -99.244)"/><path class="a" d="M112.159,99.137a3.132,3.132,0,0,1-.133,3.4.545.545,0,0,1-.967-.062,3.989,3.989,0,0,1,.149-3.3A.541.541,0,0,1,112.159,99.137Z" transform="translate(-107.129 -98.872)"/><path class="a" d="M114.984,100.3a3.133,3.133,0,0,1-1.186,3.19.545.545,0,0,1-.9-.36,3.989,3.989,0,0,1,1.169-3.089A.541.541,0,0,1,114.984,100.3Z" transform="translate(-108.713 -99.623)"/><path class="a" d="M116.836,102.879a3.133,3.133,0,0,1-2.12,2.662.545.545,0,0,1-.743-.623,3.99,3.99,0,0,1,2.073-2.571A.541.541,0,0,1,116.836,102.879Z" transform="translate(-109.512 -101.425)"/><path class="a" d="M118.192,106.63a3.133,3.133,0,0,1-2.844,1.87.546.546,0,0,1-.507-.83,3.99,3.99,0,0,1,2.766-1.79A.541.541,0,0,1,118.192,106.63Z" transform="translate(-110.111 -104.109)"/><path class="a" d="M118.936,111.059a3.134,3.134,0,0,1-3.285.891.546.546,0,0,1-.223-.947,3.99,3.99,0,0,1,3.186-.84A.541.541,0,0,1,118.936,111.059Z" transform="translate(-110.468 -107.288)"/><path class="a" d="M118.99,114.86a3.133,3.133,0,0,1-3.4-.176.545.545,0,0,1,.074-.966,3.988,3.988,0,0,1,3.3.19A.541.541,0,0,1,118.99,114.86Z" transform="translate(-110.543 -109.781)"/><path class="a" d="M118.352,117.641a3.133,3.133,0,0,1-3.175-1.225.545.545,0,0,1,.371-.895,3.987,3.987,0,0,1,3.074,1.207A.541.541,0,0,1,118.352,117.641Z" transform="translate(-110.332 -111.325)"/><path class="a" d="M117.078,119.469a3.133,3.133,0,0,1-2.636-2.153.545.545,0,0,1,.632-.735,3.988,3.988,0,0,1,2.545,2.1A.541.541,0,0,1,117.078,119.469Z" transform="translate(-109.848 -112.111)"/><path class="a" d="M115.293,120.8a3.134,3.134,0,0,1-1.835-2.867.546.546,0,0,1,.837-.5,3.99,3.99,0,0,1,1.756,2.788A.541.541,0,0,1,115.293,120.8Z" transform="translate(-109.139 -112.702)"/><path class="a" d="M112.789,121.522a3.133,3.133,0,0,1-.851-3.3.546.546,0,0,1,.949-.211,3.989,3.989,0,0,1,.8,3.2A.541.541,0,0,1,112.789,121.522Z" transform="translate(-107.889 -113.048)"/><path class="a" d="M109.383,121.549a3.133,3.133,0,0,1,.218-3.4.545.545,0,0,1,.965.086,3.989,3.989,0,0,1-.231,3.295A.541.541,0,0,1,109.383,121.549Z" transform="translate(-105.791 -113.112)"/><path class="a" d="M105.513,120.884a3.133,3.133,0,0,1,1.264-3.16.545.545,0,0,1,.89.383,3.988,3.988,0,0,1-1.245,3.059A.541.541,0,0,1,105.513,120.884Z" transform="translate(-103.153 -112.889)"/><path class="a" d="M101.558,119.587a3.133,3.133,0,0,1,2.186-2.609.545.545,0,0,1,.727.641,3.988,3.988,0,0,1-2.136,2.519A.541.541,0,0,1,101.558,119.587Z" transform="translate(-100.23 -112.395)"/><path class="a" d="M98.51,117.785a3.133,3.133,0,0,1,2.889-1.8.546.546,0,0,1,.486.843,3.99,3.99,0,0,1-2.81,1.721A.541.541,0,0,1,98.51,117.785Z" transform="translate(-97.912 -111.679)"/><path class="a" d="M97.114,116.152a.541.541,0,0,1-.288-.912,3.1,3.1,0,0,1,2.027-.958,4.029,4.029,0,0,1,1.388.273.449.449,0,0,1,.166.768A3.975,3.975,0,0,1,97.114,116.152Z" transform="translate(-96.576 -110.401)"/><path class="a" d="M96.55,112.012a4.34,4.34,0,0,1,1.168-.4.569.569,0,0,1,.469.149,5.132,5.132,0,0,0,1.865.837.26.26,0,0,1,.034.485,3.969,3.969,0,0,1-3.537-.214A.486.486,0,0,1,96.55,112.012Z" transform="translate(-96.296 -108.397)"/><path class="a" d="M97.456,108.509a.624.624,0,0,1,.9,0c.625,1.009,1.5.763,2.571,1.622-.078.329-.981.356-1.868.094C97.985,109.909,96.938,109.2,97.456,108.509Z" transform="translate(-97.062 -105.94)"/></g></svg>