<svg xmlns="http://www.w3.org/2000/svg" width="18.183" height="18.179" viewBox="0 0 18.183 18.179"><defs><style>.a{fill:#68161c;}</style></defs><path class="a" d="M9.019,36.254a4.661,4.661,0,1,0,4.661,4.661A4.654,4.654,0,0,0,9.019,36.254Zm0,7.691a3.03,3.03,0,1,1,3.03-3.03,3.036,3.036,0,0,1-3.03,3.03Zm5.939-7.882a1.087,1.087,0,1,1-1.087-1.087A1.085,1.085,0,0,1,14.957,36.063Zm3.087,1.1a5.38,5.38,0,0,0-1.468-3.809,5.415,5.415,0,0,0-3.809-1.468c-1.5-.085-6-.085-7.5,0a5.408,5.408,0,0,0-3.809,1.464A5.4,5.4,0,0,0-.011,37.162c-.085,1.5-.085,6,0,7.5a5.38,5.38,0,0,0,1.468,3.809A5.422,5.422,0,0,0,5.266,49.94c1.5.085,6,.085,7.5,0a5.38,5.38,0,0,0,3.809-1.468,5.415,5.415,0,0,0,1.468-3.809c.085-1.5.085-6,0-7.5Zm-1.939,9.107A3.068,3.068,0,0,1,14.377,48c-1.2.475-4.036.365-5.359.365S4.853,48.472,3.66,48a3.068,3.068,0,0,1-1.728-1.728c-.475-1.2-.365-4.036-.365-5.359s-.105-4.166.365-5.359A3.068,3.068,0,0,1,3.66,33.828c1.2-.475,4.036-.365,5.359-.365s4.166-.105,5.359.365a3.068,3.068,0,0,1,1.728,1.728c.475,1.2.365,4.036.365,5.359S16.58,45.081,16.105,46.273Z" transform="translate(0.075 -31.825)"/></svg>