<svg xmlns="http://www.w3.org/2000/svg" width="78.975" height="89.058" viewBox="0 0 78.975 89.058"><defs><style>.a{fill:#68161c;}</style></defs><path class="a" d="M160.811,355.872c-1.628-3.883-6.138-9.646-23.551-18.79,0,0-4.754,13.511-14.887,17.279-10.133-3.769-14.887-17.279-14.887-17.279-17.413,9.145-21.922,14.907-23.551,18.791s-.877,16.535-.877,16.535h78.628S162.44,359.756,160.811,355.872Zm-12.527,8.018H133v-3.006h15.283Z" transform="translate(-82.887 -283.35)"/><path class="a" d="M142.543,157.462s4.55,14.35,19.041,14.03,19.754-14.03,19.754-14.03a12.417,12.417,0,0,0,6.929-10.4c.877-6.89-3.883-6.639-3.883-6.639s1-4.635-1-13.279-8.644-11.4-13.153-10.4a23.51,23.51,0,0,0-8.644-1.933,20.285,20.285,0,0,0-9.52,1.933c-9.145,4.384-14.907,10.773-13.654,23.927,0,0-4.008.877-3.257,6.639S138.409,156.711,142.543,157.462Zm1.5-14.313c8.394.095,9.9-3.6,13.028-5.981,1.37-1.041,2.759-2.626,4.51-4.073a13.636,13.636,0,0,1,9.27-3.443c11.024.125,10.484,14.531,10.484,14.531s4.924-1.378,2.795,4.864-6.264,5.032-6.264,5.032c-.964,4.1-5.918,13.87-16.285,14.384-.41.02-.825.031-1.253.022-11.225-.252-14.782-14.281-14.782-14.281a6.212,6.212,0,0,1-5.011-2C138.534,150.322,135.652,143.055,144.046,143.149Z" transform="translate(-122.076 -114.803)"/></svg>