<svg xmlns="http://www.w3.org/2000/svg" width="273.043" height="65.466" viewBox="0 0 273.043 65.466"><defs><style>.a{fill:#fdf5f2;}</style></defs><g transform="translate(64.403 51.065)"><path class="a" d="M3131.376,856.751a3.761,3.761,0,0,1,4.047,3.788,3.8,3.8,0,0,1-4.047,3.9h-2.668v-7.689Zm0,6.954a3.067,3.067,0,0,0,3.222-3.166,3.023,3.023,0,0,0-3.222-3.053h-1.866V863.7Z" transform="translate(-3128.708 -856.581)"/><path class="a" d="M3161.671,861.647v2.793h-.8v-7.689h2.861c1.73,0,2.927.939,2.927,2.453a2.379,2.379,0,0,1-2.125,2.375l2.464,2.86h-1.006l-2.407-2.793Zm2.035-.735c1.255,0,2.148-.644,2.148-1.708s-.894-1.719-2.148-1.719h-2.035v3.426Z" transform="translate(-3149.038 -856.581)"/><path class="a" d="M3190.522,862.1l-1,2.239h-.859l3.493-7.746h.757l3.494,7.746h-.86l-.995-2.239Zm2.012-4.545-1.684,3.81h3.381Z" transform="translate(-3166.612 -856.484)"/><path class="a" d="M3245.166,864.44h-5.087v-7.689h.8v6.965h4.285Z" transform="translate(-3199.111 -856.581)"/><path class="a" d="M3267.725,864.44h-.8v-7.689h.8Z" transform="translate(-3216.08 -856.581)"/><path class="a" d="M3289.138,864.44h-5.088v-7.689h.8v6.965h4.286Z" transform="translate(-3226.907 -856.581)"/><path class="a" d="M3311.694,864.44h-.8v-7.689h.8Z" transform="translate(-3243.874 -856.581)"/><path class="a" d="M3334.157,862.348c0,1.255-1.108,2.092-2.815,2.092h-3.324v-7.689h3.257c1.526,0,2.487.758,2.487,1.934a1.766,1.766,0,0,1-1.345,1.775A1.849,1.849,0,0,1,3334.157,862.348Zm-5.336-2.159h2.239c1.244,0,1.933-.531,1.933-1.413,0-.8-.689-1.312-1.8-1.312h-2.374Zm2.5,3.539c1.277,0,2.046-.611,2.046-1.47s-.757-1.357-2.024-1.357h-2.521v2.827Z" transform="translate(-3254.701 -856.581)"/><path class="a" d="M3359.355,860.245h4.082v.746h-4.082V863.7h4.534v.735h-5.337v-7.689h5.337v.735h-4.534Z" transform="translate(-3274.003 -856.581)"/><path class="a" d="M3387.985,857.486v6.954h-.8v-6.954h-2.861v-.735h6.524v.735Z" transform="translate(-3290.293 -856.581)"/><path class="a" d="M3420.922,864.44h-.8V861h-4.647v3.437h-.8v-7.689h.8v3.517h4.647v-3.517h.8Z" transform="translate(-3309.478 -856.581)"/><path class="a" d="M3468.976,858.541h-.792a1.911,1.911,0,0,0-2.148-1.549c-1.164,0-1.933.565-1.933,1.458,0,.7.554,1.131,1.571,1.312l1.166.226c1.367.26,2.136.9,2.136,2,0,1.4-1.142,2.329-2.86,2.329a2.875,2.875,0,0,1-3.2-2.623h.791a2.2,2.2,0,0,0,2.442,1.9c1.233,0,2.012-.6,2.012-1.515,0-.645-.452-1.131-1.447-1.312l-1.334-.26c-1.413-.26-2.125-.973-2.125-2.013,0-1.323,1.1-2.2,2.725-2.2C3467.54,856.29,3468.784,857.025,3468.976,858.541Z" transform="translate(-3339.977 -856.29)"/><path class="a" d="M3494.067,860.245h4.082v.746h-4.082V863.7h4.534v.735h-5.336v-7.689h5.336v.735h-4.534Z" transform="translate(-3359.162 -856.581)"/><path class="a" d="M3528.237,860.324a4,4,0,1,1-4-4A4,4,0,0,1,3528.237,860.324Zm-.815,0a3.194,3.194,0,1,0-3.2,3.257A3.216,3.216,0,0,0,3527.422,860.324Z" transform="translate(-3376.209 -856.31)"/><path class="a" d="M3562.274,864.44h-.8V861h-4.647v3.437h-.8v-7.689h.8v3.517h4.647v-3.517h.8Z" transform="translate(-3398.833 -856.581)"/><path class="a" d="M3587.858,862.1l-1,2.239H3586l3.494-7.746h.757l3.494,7.746h-.86l-.995-2.239Zm2.012-4.545-1.684,3.81h3.381Z" transform="translate(-3417.786 -856.484)"/><path class="a" d="M3626.523,864.44h-.689l-5.021-6.241v6.241h-.8v-7.689h.667l5.042,6.309v-6.309h.8Z" transform="translate(-3439.284 -856.581)"/><path class="a" d="M3653.5,860.245h4.083v.746H3653.5V863.7h4.535v.735H3652.7v-7.689h5.336v.735H3653.5Z" transform="translate(-3459.947 -856.581)"/><path class="a" d="M3685.478,858.541h-.792a1.911,1.911,0,0,0-2.148-1.549c-1.165,0-1.934.565-1.934,1.458,0,.7.554,1.131,1.571,1.312l1.166.226c1.367.26,2.136.9,2.136,2,0,1.4-1.142,2.329-2.86,2.329a2.876,2.876,0,0,1-3.2-2.623h.792a2.2,2.2,0,0,0,2.442,1.9c1.233,0,2.013-.6,2.013-1.515,0-.645-.452-1.131-1.447-1.312l-1.334-.26c-1.413-.26-2.125-.973-2.125-2.013,0-1.323,1.1-2.2,2.725-2.2C3684.042,856.29,3685.286,857.025,3685.478,858.541Z" transform="translate(-3476.837 -856.29)"/></g><g transform="translate(64.403 13.157)"><path class="a" d="M3128.708,783.69V783.6c0-.22.076-.308.378-.352l.68-.089c1.06-.132,1.211-.264,1.211-.749V755.454c0-.484-.151-.617-1.211-.749l-.68-.088c-.3-.044-.378-.132-.378-.353v-.088c0-.132.151-.22.378-.22h11.877c.227,0,.378.088.378.22v.088c0,.22-.076.309-.378.353l-1.287.176c-1.437.176-1.74.265-1.74.793v26.739c0,.484.379.661,1.438.661h1.059c4.691,0,5.826-.881,7.187-3.921l1.286-2.907c.076-.177.227-.22.531-.22h.227c.227,0,.377.088.377.22v7.356c0,.264-.226.4-.6.4h-20.352C3128.859,783.91,3128.708,783.822,3128.708,783.69Z" transform="translate(-3128.708 -753.692)"/><path class="a" d="M3191.428,783.236v-.088c0-.22.075-.308.3-.352l.756-.133a1.717,1.717,0,0,0,1.665-1.366l9.533-27.575c.076-.309.3-.484.756-.484h.378c.454,0,.681.176.756.484l9.608,28.06c.227.661.529.793,1.514.925l.681.089c.3.044.379.132.379.352v.088c0,.132-.151.22-.379.22h-10.895c-.227,0-.379-.088-.379-.22v-.088c0-.22.075-.308.379-.352l.68-.089c.757-.088.984-.22.984-.484a.861.861,0,0,0-.076-.352l-1.968-6.211h-8.322l-1.967,5.859a1.163,1.163,0,0,0-.076.4c0,.308.378.617,1.211.749l.756.133c.227.044.3.132.3.352v.088c0,.132-.151.22-.377.22h-5.825C3191.579,783.456,3191.428,783.368,3191.428,783.236Zm14.45-8.5-3.631-11.673h-.151l-3.935,11.673Z" transform="translate(-3168.356 -753.238)"/></g><path class="a" d="M3284.174,783.692V783.6c0-.22.075-.308.378-.352l.68-.088c1.059-.132,1.211-.264,1.211-.749V755.454c0-.484-.152-.617-1.211-.749l-.68-.088c-.3-.044-.378-.133-.378-.353v-.088c0-.132.151-.22.378-.22H3295.3c.227,0,.378.088.378.22v.088c0,.22-.076.309-.378.353l-.682.088c-1.06.132-1.211.264-1.211.749v11.233h7.112V755.454c0-.484-.151-.617-1.21-.749l-.681-.088c-.3-.044-.379-.133-.379-.353v-.088c0-.132.151-.22.379-.22h10.743c.227,0,.378.088.378.22v.088c0,.22-.075.309-.378.353l-.68.088c-1.06.132-1.211.264-1.211.749v26.959c0,.485.151.617,1.211.749l.68.088c.3.044.378.132.378.352v.089c0,.132-.151.22-.378.22h-10.743c-.228,0-.379-.088-.379-.22V783.6c0-.22.075-.308.379-.352l.681-.088c1.059-.132,1.21-.264,1.21-.749v-14.8H3293.4v14.8c0,.485.151.617,1.211.749l.682.088c.3.044.378.132.378.352v.089c0,.132-.151.22-.378.22h-10.744C3284.325,783.911,3284.174,783.823,3284.174,783.692Z" transform="translate(-3162.582 -740.535)"/><path class="a" d="M3360.695,778.072V755.341c0-.485-.151-.617-1.211-.749l-.681-.088c-.3-.044-.377-.133-.377-.353v-.088c0-.132.151-.22.377-.22h10.743c.229,0,.379.088.379.22v.088c0,.22-.076.309-.379.353l-.68.088c-1.06.132-1.211.264-1.211.749v25.065c0,1.982,1.135,2.775,3.633,2.775,3.631,0,6.2-1.938,6.2-5.241V755.76c0-.793-.227-1.013-1.209-1.189l-.758-.132c-.226-.044-.3-.133-.3-.353V754c0-.132.151-.22.378-.22h5.448c.227,0,.378.088.378.22v.088c0,.22-.076.309-.3.353l-.758.132c-.982.176-1.21.4-1.21,1.189v22.312c0,3.92-3.48,6.167-9.229,6.167S3360.695,781.992,3360.695,778.072Z" transform="translate(-3209.52 -740.422)"/><path class="a" d="M3425.786,783.692V783.6c0-.22.076-.308.378-.352l.68-.088c1.06-.132,1.211-.264,1.211-.749V755.454c0-.484-.152-.617-1.211-.749l-.68-.088c-.3-.044-.378-.133-.378-.353v-.088c0-.132.152-.22.378-.22h20.351c.379,0,.606.132.606.4v6.476c0,.132-.151.22-.378.22h-.229c-.3,0-.453-.044-.529-.22l-1.286-2.908c-.983-2.29-2.118-3.039-6.355-3.039h-3.329v11.8h1.74c3.178,0,4.237-.352,4.842-1.673l.681-1.542c.075-.176.227-.22.529-.22h.227c.227,0,.379.088.379.22v7.357c0,.132-.152.22-.379.22h-.227c-.3,0-.454-.044-.529-.22l-.681-1.542c-.6-1.321-1.664-1.674-4.842-1.674h-1.74v14.713c0,.485.379.661,1.438.661h1.078c4.691,0,6.052-.837,7.188-3.48l1.286-2.907c.075-.176.227-.22.529-.22h.227c.227,0,.378.088.378.22v6.916c0,.265-.227.4-.605.4h-20.371C3425.938,783.911,3425.786,783.823,3425.786,783.692Z" transform="translate(-3252.102 -740.535)"/><path class="a" d="M3488.557,783.692V783.6c0-.22.075-.308.378-.352l.681-.088c1.06-.132,1.211-.264,1.211-.749V755.454c0-.484-.152-.617-1.211-.749l-.681-.088c-.3-.044-.378-.133-.378-.353v-.088c0-.132.151-.22.378-.22h11.576c7.339,0,10.744,2.158,10.744,6.608v1.409c0,2.952-2.195,5.066-6.961,5.771v.088c3.859.837,5.977,2.775,6.355,5.771l1.135,8.37c.151.837.68,1.057,1.664,1.189l.681.088c.3.044.378.132.378.352v.089c0,.132-.151.22-.378.22h-8.019c-.456,0-.682-.176-.758-.353a9.007,9.007,0,0,1-.6-2.686l-.908-7.489c-.455-3.965-1.287-5.2-5.523-5.2h-.53v14.228c0,.485.151.617,1.211.749l.682.088c.3.044.378.132.378.352v.089c0,.132-.151.22-.378.22h-10.744C3488.708,783.911,3488.557,783.823,3488.557,783.692ZM3499.6,767.26c3.406,0,4.691-.705,4.691-2.687v-7.048c0-1.938-1.286-2.643-4.691-2.643h-1.816V767.26Z" transform="translate(-3291.782 -740.535)"/><path class="a" d="M3568.741,783.692V783.6c0-.22.075-.308.377-.352l1.287-.176c1.437-.176,1.739-.264,1.739-.793v-27.4h-.908c-3.178,0-3.858.793-5.145,3.964l-1.135,2.863c-.075.176-.227.22-.529.22h-.227c-.227,0-.378-.088-.378-.22v-7.357c0-.264.227-.4.6-.4h22.4c.378,0,.6.132.6.4v7.357c0,.132-.151.22-.378.22h-.227c-.3,0-.454-.044-.529-.22l-1.135-2.863c-1.286-3.171-1.967-3.964-5.145-3.964h-.908v27.4c0,.529.3.617,1.74.793l1.287.176c.3.044.378.132.378.352v.089c0,.132-.151.22-.378.22h-13.013C3568.892,783.911,3568.741,783.823,3568.741,783.692Z" transform="translate(-3339.362 -740.535)"/><path class="a" d="M3624.315,783.238v-.089c0-.22.075-.308.3-.352l.756-.132a1.716,1.716,0,0,0,1.664-1.366l9.534-27.575c.075-.308.3-.485.756-.485h.379c.454,0,.681.176.756.485l9.609,28.06c.227.661.529.793,1.514.925l.68.088c.3.044.379.132.379.352v.089c0,.132-.151.22-.379.22h-10.894c-.227,0-.379-.088-.379-.22v-.089c0-.22.075-.308.379-.352l.681-.088c.757-.088.984-.22.984-.485a.866.866,0,0,0-.075-.352l-1.968-6.211h-8.322l-1.967,5.859a1.165,1.165,0,0,0-.076.4c0,.308.378.617,1.21.749l.756.132c.227.044.3.132.3.352v.089c0,.132-.151.22-.378.22h-5.825C3624.466,783.458,3624.315,783.37,3624.315,783.238Zm14.45-8.5-3.631-11.673h-.151l-3.934,11.673Z" transform="translate(-3377.602 -740.081)"/><rect class="a" width="4.314" height="0.857" rx="0.428" transform="translate(113.805 26.183)"/><path class="a" d="M3015.016,841.2a3,3,0,0,0,1.08.138v-.095l-1.08-.143Z" transform="translate(-2992.435 -795.622)"/><path class="a" d="M3015.016,860.72V841.372a3,3,0,0,0,1.08.138v19.21a.54.54,0,0,1-.541.54h0A.54.54,0,0,1,3015.016,860.72Z" transform="translate(-2992.435 -795.794)"/><path class="a" d="M2986.573,846.685a6.8,6.8,0,0,1,2.474,2.375c.952,1.444,2.16,2.568,3.773,2.48,0,0,2.792-.314,4.216.846V852.2a9.949,9.949,0,0,0-1.252-1.791,8.629,8.629,0,0,0-1.374-1.245,8.986,8.986,0,0,0-1.6-.934c-.277-.142-.573-.234-.862-.348s-.594-.177-.891-.267c.3.079.6.14.9.233s.6.184.879.316a9.114,9.114,0,0,1,1.656.882,8.84,8.84,0,0,1,1.449,1.216,6.4,6.4,0,0,1,1.1,1.427v-.1C2997.035,848.746,2992.553,843.543,2986.573,846.685Z" transform="translate(-2974.454 -798.536)"/><path class="a" d="M3017.952,852.942v.132a4.158,4.158,0,0,1,.766-.895,5.8,5.8,0,0,1,1.007-.737,6.009,6.009,0,0,1,1.129-.508,6.129,6.129,0,0,1,.593-.169c.2-.048.4-.075.6-.114-.2.046-.4.082-.6.137s-.395.11-.583.191a5.921,5.921,0,0,0-1.1.545,5.684,5.684,0,0,0-.96.76,6.111,6.111,0,0,0-.862,1.09v.119a4.244,4.244,0,0,1,2.764-.337,2.928,2.928,0,0,0,2.593-1.468,4.489,4.489,0,0,1,1.732-1.455C3021.241,847.9,3018.076,851.068,3017.952,852.942Z" transform="translate(-2994.29 -800.875)"/><g transform="translate(0 0)"><path class="a" d="M2999.018,742.741q-.727-.925-1.48-1.729a3.084,3.084,0,0,0-.448-3.173c.23-.42.4-.766.513-1a3.214,3.214,0,0,0,.113-2.505,3.261,3.261,0,0,0-1.737-1.861c-.375-.169-.766-.333-1.167-.491a22.9,22.9,0,0,0,.458-3.995,3.354,3.354,0,0,0-.965-2.434,3.407,3.407,0,0,0-2.451-1.029c-.693,0-1.416.027-2.157.088a3.054,3.054,0,0,0-1.156-1.242,3.13,3.13,0,0,0-.515-.248c-.1-.288-.19-.534-.269-.731a3.242,3.242,0,0,0-4.286-1.779c-.47.2-.95.425-1.433.669a18.428,18.428,0,0,0-2.384-2.862,3.386,3.386,0,0,0-4.843.141q-.742.809-1.378,1.621a3.085,3.085,0,0,0-3.05.793c-.643-.259-1.177-.432-1.528-.535a3.241,3.241,0,0,0-2.528.293,3.2,3.2,0,0,0-1.533,1.992c-.153.586-.291,1.2-.407,1.837a18.411,18.411,0,0,0-3.625.12,3.383,3.383,0,0,0-2.282,1.362,3.339,3.339,0,0,0-.607,2.554q.177,1.05.42,2.021a3.082,3.082,0,0,0-1.241,2.692c-.607.352-1.078.672-1.378.889a3.239,3.239,0,0,0-1.32,2.175,3.2,3.2,0,0,0,.631,2.433c.394.512.822,1.032,1.286,1.545a2.768,2.768,0,0,0-.111.266,18.445,18.445,0,0,0-2.073,2.872,3.383,3.383,0,0,0-.325,2.638,3.343,3.343,0,0,0,1.643,2.046q.946.508,1.869.914a3.09,3.09,0,0,0,1.3,2.494c-.079.621-.112,1.129-.124,1.469a3.243,3.243,0,0,0,.907,2.377,3.2,3.2,0,0,0,2.309.994c.638,0,1.3-.016,1.983-.066.043.082.09.163.141.24a18.376,18.376,0,0,0,1.052,3.707,3.383,3.383,0,0,0,1.882,1.875,3.474,3.474,0,0,0,.59.179,3.334,3.334,0,0,0,2.034-.22q1.024-.453,1.948-.955a3.076,3.076,0,0,0,1.186.525c.077.016.155.029.235.039a3.056,3.056,0,0,0,1.406-.146c.368.36.687.64.913.829a3.246,3.246,0,0,0,1.428.693,3.28,3.28,0,0,0,1.005.049,3.2,3.2,0,0,0,2.2-1.212c.366-.466.731-.962,1.084-1.485a18.521,18.521,0,0,0,3.959,1.657c.079.022.158.041.238.058a3.381,3.381,0,0,0,2.4-.393,3.341,3.341,0,0,0,1.578-2.1q.281-1.131.453-2.207a3.094,3.094,0,0,0,1.321-.779,3.051,3.051,0,0,0,.814-1.426c.459-.066.835-.139,1.1-.2a3.238,3.238,0,0,0,2.079-1.466,3.2,3.2,0,0,0,.394-2.482c-.121-.487-.261-.987-.42-1.493a18.543,18.543,0,0,0,3.682-2.085,3.387,3.387,0,0,0,1.353-2.287A3.342,3.342,0,0,0,2999.018,742.741Zm-1.73-3.263a2.614,2.614,0,0,1-.33,1.619,2.709,2.709,0,0,1-.235.348A16.246,16.246,0,0,1,2994.1,744c-.258-.395-.535-.788-.831-1.174q-.146-.191-.3-.379-.237-.294-.491-.58a17.354,17.354,0,0,0,1.277-1.691,2.6,2.6,0,0,0,.433-1.491,2.677,2.677,0,0,0-.059-.509c-.01-.045-.023-.088-.035-.133a2.636,2.636,0,0,0-.924-1.4,2.72,2.72,0,0,0-.226-.159l-.123-.076c.1-.227.187-.451.27-.671.007-.013.012-.026.018-.039.142.074.283.149.425.228a22.569,22.569,0,0,1,2.749,1.805,2.762,2.762,0,0,1,.212.181,2.522,2.522,0,0,1,.334.385A2.576,2.576,0,0,1,2997.287,739.478Zm-7.567,11.706a2.111,2.111,0,0,1-.163,1.064,2.152,2.152,0,0,1-.324.526c-.029.035-.061.066-.091.1a2.146,2.146,0,0,1-1.411.672,13.443,13.443,0,0,1-2.218-.03c-.15-.014-.305-.032-.463-.052-.251-.033-.51-.074-.777-.125a12.944,12.944,0,0,0,.449-4.654,10.6,10.6,0,0,0,4.393-.7l0,.007a17.4,17.4,0,0,1,.5,2.368c.009.063.017.128.026.192.013.1.025.192.037.289.008.063.015.126.022.189S2989.715,751.131,2989.72,751.184Zm-4.836,3.235q-.048.234-.1.472-.186.78-.458,1.592-.075.227-.157.456-.259.721-.583,1.464a2.439,2.439,0,0,1-1.392,1.316,2.475,2.475,0,0,1-1.55.064,2.585,2.585,0,0,1-.273-.1,14.588,14.588,0,0,1-2.173-1.645q-.171-.158-.339-.324c-.126-.125-.249-.254-.371-.386a17.446,17.446,0,0,0,1.588-1.9l-.008,0a12.633,12.633,0,0,0,1.586.759,2.491,2.491,0,0,0,.4.119,2.424,2.424,0,0,0,1.433-.142h0c.024-.01.049-.019.073-.03.059-.027.115-.057.17-.088a2.394,2.394,0,0,0,1.108-1.3c.108-.3.21-.616.307-.939.286.056.565.1.834.136C2984.948,754.1,2984.918,754.257,2984.884,754.418Zm-8.391,3.225c-.017.017-.036.031-.055.047a2.111,2.111,0,0,1-.944.489,2.146,2.146,0,0,1-.557.054c-.062,0-.124-.008-.185-.016a2.145,2.145,0,0,1-1.345-.7,13.366,13.366,0,0,1-1.3-1.717c-.082-.127-.164-.259-.245-.4-.146-.246-.292-.508-.431-.784-.149.063-.3.124-.447.181.148.3.3.578.459.842-.2.108-.4.215-.6.316q-.215.106-.436.208-.649.3-1.359.554-.224.082-.454.159-.821.278-1.72.507a2.437,2.437,0,0,1-1.894-.291,2.5,2.5,0,0,1-.729-.68c-.024-.035-.045-.072-.068-.108a2.483,2.483,0,0,1-.227-.458,2.454,2.454,0,0,1-.1-.337,15.3,15.3,0,0,1-.3-2.085c-.019-.243-.032-.5-.039-.768q-.007-.231-.007-.472c0-.167,0-.336.01-.509l.187.023c.157.02.317.037.479.053a17.58,17.58,0,0,0,2.4.076,12.654,12.654,0,0,0,.367,1.672,2.456,2.456,0,0,0,1.853,1.7,2.352,2.352,0,0,0,.379.046l.065,0q.1,0,.191,0c.046,0,.091-.007.137-.012l.02,0a2.426,2.426,0,0,0,.456-.1l.006,0c.148-.049.3-.1.451-.156l0-.007a13.691,13.691,0,0,0,4.862-2.855,10.626,10.626,0,0,0,3.3,3.065,17.359,17.359,0,0,1-1.5,1.784c-.111.115-.223.231-.339.347l-.039.039Q2976.642,757.5,2976.493,757.643Zm-14.639-7.344a2.207,2.207,0,0,1-.377-1.646,13.468,13.468,0,0,1,.487-1.884c.048-.142.1-.288.156-.437.126-.335.272-.686.443-1.044h0a13.39,13.39,0,0,0,3.762,1.453c.192.04.387.072.583.1a10.636,10.636,0,0,0-.393,4.525,17.317,17.317,0,0,1-2.259-.082q-.238-.023-.481-.053l-.241-.032-.26-.035a2.125,2.125,0,0,1-.216-.043,2.1,2.1,0,0,1-.974-.554A2.216,2.216,0,0,1,2961.854,750.3Zm-5.271-9.432c.014-.043.029-.086.045-.128a2.554,2.554,0,0,1,.229-.453,2.607,2.607,0,0,1,.177-.246,15.525,15.525,0,0,1,2.235-2.179l.013-.01q.175-.138.36-.277t.392-.282l.041.07c.083.14.167.278.25.412a17.559,17.559,0,0,0,1.411,1.961,12.705,12.705,0,0,0-1.089,1.309,2.432,2.432,0,0,0-.419,1.863,2.4,2.4,0,0,0,1.031,1.58c.274.184.561.366.859.544l.026.016c-.182.379-.338.75-.471,1.1q-.363-.154-.728-.332c-.143-.07-.287-.142-.43-.218q-.615-.322-1.237-.714-.2-.127-.405-.261-.727-.481-1.464-1.053a2.44,2.44,0,0,1-.932-1.674A2.482,2.482,0,0,1,2956.583,740.866Zm3.465-5.592c.012-.058.025-.117.042-.175a2.205,2.205,0,0,1,.177-.428,2.149,2.149,0,0,1,.891-.879,13.26,13.26,0,0,1,1.6-.7c.14-.051.286-.1.439-.152.386-.127.81-.246,1.261-.346a12.85,12.85,0,0,0,1.431,4.337,10.637,10.637,0,0,0-3.815,2.468,17.36,17.36,0,0,1-1.323-1.848q-.127-.2-.251-.413l-.063-.109c-.053-.09-.105-.18-.157-.271-.028-.049-.052-.1-.076-.151A2.111,2.111,0,0,1,2960.048,735.274Zm2.851-3.536q-.048-.235-.09-.476-.132-.75-.2-1.557-.022-.238-.038-.481-.052-.774-.053-1.6a2.441,2.441,0,0,1,.75-1.763,2.485,2.485,0,0,1,1.5-.69,2.532,2.532,0,0,1,.309-.012c.213.007.5.022.848.054.229.036.461.077.7.125a14.207,14.207,0,0,1,1.556.414q.223.074.446.156t.464.181a17.908,17.908,0,0,0-.711,2.392,12.583,12.583,0,0,0-1.749-.061,2.432,2.432,0,0,0-1.728.812,2.4,2.4,0,0,0-.615,1.784c.025.354.06.72.108,1.091-.472.1-.916.227-1.32.358C2963.008,732.231,2962.95,731.987,2962.9,731.738Zm6.8-5.9c.034-.085.068-.17.1-.256l.016-.039a2.113,2.113,0,0,1,1.02-1.087c.055-.027.111-.053.169-.076a2.222,2.222,0,0,1,.442-.123,2.132,2.132,0,0,1,.787.014,2.181,2.181,0,0,1,.46.15,13.119,13.119,0,0,1,1.5.806c.127.079.259.164.392.253.334.223.684.48,1.037.769a12.919,12.919,0,0,0-2.547,3.778,10.635,10.635,0,0,0-4.233-1.484,17.513,17.513,0,0,1,.682-2.256c.032-.086.065-.172.1-.258Zm5.873-1.543q.572-.625,1.243-1.236.177-.162.362-.321.489-.426,1.026-.843a2.449,2.449,0,0,1,1.856-.492c.055.008.108.017.162.028a2.449,2.449,0,0,1,.865.362,2.4,2.4,0,0,1,.392.327,2.543,2.543,0,0,1,.229.267,15.392,15.392,0,0,1,1.112,1.775c.073.136.146.278.219.424a14.82,14.82,0,0,1,.6,1.365l-.012.006a13.047,13.047,0,0,0-2.159,1.224,12.884,12.884,0,0,0-1.247-1.776,2.434,2.434,0,0,0-3.475-.241c-.26.233-.523.48-.782.741-.366-.3-.731-.571-1.077-.8.119-.149.243-.3.37-.444Q2975.409,724.473,2975.574,724.293Zm9.909,1.876a2.166,2.166,0,0,1,.662.257,2.126,2.126,0,0,1,.994,1.338c.059.244.131.58.2.984q.035.22.066.466c.045.357.08.752.1,1.175a13.761,13.761,0,0,0-4.661.429,10.642,10.642,0,0,0-1.093-3.137,12.424,12.424,0,0,1,2.085-1.185c.146-.066.294-.13.444-.191.106-.043.213-.084.321-.125A2.116,2.116,0,0,1,2985.483,726.169Zm8.09,5.871a2.413,2.413,0,0,1-.041.393,19.237,19.237,0,0,1-.7,2.6c-.051.145-.1.293-.16.443q-.124.331-.268.675a17.914,17.914,0,0,0-2.325-1.158,16.071,16.071,0,0,0,.333-1.826,2.413,2.413,0,0,0-.519-1.809,2.445,2.445,0,0,0-1.68-.909l-.231-.021c-.015-.439-.049-.849-.095-1.221.185,0,.372,0,.561.006q.238.006.48.019.524.027,1.068.083c.16.017.32.035.482.056.334.042.672.092,1.015.151l.09.017a2.492,2.492,0,0,1,1.954,1.988A2.435,2.435,0,0,1,2993.573,732.04Zm-.881,4.848a2.257,2.257,0,0,1,.239.177,2.183,2.183,0,0,1,.731,1.208c0,.017.005.034.009.051a2.126,2.126,0,0,1-.313,1.581,16.747,16.747,0,0,1-1.205,1.593q-.147.173-.309.352c-.191.212-.4.429-.616.647a13.052,13.052,0,0,0-3.13-3.089,11.713,11.713,0,0,0,1.862-3.957,17.769,17.769,0,0,1,2.249,1.14q.163.1.327.2l.094.058Zm-8.033,11.308a8.583,8.583,0,0,0-.61-2.118,8.847,8.847,0,0,0,2.686-1.039,1.744,1.744,0,0,0,.809-1.1,1.724,1.724,0,0,0-.225-1.334,10.059,10.059,0,0,0-2.627-2.854,6.76,6.76,0,0,0,.628-1.034,9.488,9.488,0,0,1,2.3.969l.178.1.006-.007a13.718,13.718,0,0,1,3.779,4.087,1.923,1.923,0,0,1,.25,1.489,1.951,1.951,0,0,1-.907,1.237A11.186,11.186,0,0,1,2984.658,748.2Zm-1.278,6.383a1.919,1.919,0,0,1-.668.9c-.045.033-.093.064-.14.094l-.034.022c-.028.016-.058.03-.086.045s-.061.034-.094.048a1.953,1.953,0,0,1-1.533.044,12.467,12.467,0,0,1-2.6-1.41c-.089-.064-.179-.129-.27-.2l-.173-.133,0,0c-.171-.135-.343-.279-.512-.43l-.054-.048c-.045-.041-.089-.082-.134-.123l-.092-.088-.113-.11c-.065-.065-.13-.131-.194-.2l-.064-.07c-.052-.056-.1-.113-.155-.172l-.06-.068c-.065-.075-.129-.151-.191-.229l-.01-.012q-.11-.137-.217-.281c-.094-.127-.186-.258-.273-.392a8.58,8.58,0,0,0,1.339-1.859,8.874,8.874,0,0,0,2.4,1.427,1.8,1.8,0,0,0,.287.085,1.74,1.74,0,0,0,1.08-.124,1.722,1.722,0,0,0,.915-1,11.567,11.567,0,0,0,.556-2.178q.037-.245.06-.495a7.8,7.8,0,0,0,.007-1.423,6.477,6.477,0,0,0,1.2-.048,8,8,0,0,1,.613,1.982c.029.164.052.33.072.5A13.241,13.241,0,0,1,2983.38,754.579Zm-13.492.1a1.969,1.969,0,0,1-.378.084h0c-.055.007-.11.01-.166.011h-.095c-.034,0-.068,0-.1,0a1.857,1.857,0,0,1-.225-.031,1.947,1.947,0,0,1-.52-.184c-.015-.008-.029-.017-.043-.025a1.956,1.956,0,0,1-.584-.492c0,.008,0,.016,0,.024a1.959,1.959,0,0,1-.368-.694,11.191,11.191,0,0,1-.008-6.468c.053-.153.11-.305.174-.457a7.372,7.372,0,0,1,.678-1.271c.132-.2.277-.387.428-.571a7.832,7.832,0,0,0,.947.263c.112.023.223.043.332.06a6.6,6.6,0,0,0-.274,1.406c-.014.166-.023.33-.027.491a8.9,8.9,0,0,0,.352,2.631,1.76,1.76,0,0,0,1.328,1.22,1.716,1.716,0,0,0,.89-.053,11.629,11.629,0,0,0,2.05-.891q.219-.123.432-.259a7.774,7.774,0,0,0,1.135-.872,6.5,6.5,0,0,0,.839.983,7.974,7.974,0,0,1-1.226,1.773q-.167.184-.348.361A13.246,13.246,0,0,1,2969.888,754.678Zm-6.9-9.706-.035-.02q-.144-.079-.29-.163l-.162-.095-.187-.111q-.143-.087-.288-.178l-.08-.05c-.129-.082-.259-.166-.389-.253h0l-.022-.015a1.922,1.922,0,0,1-.825-1.265,1.952,1.952,0,0,1,.336-1.5,11.191,11.191,0,0,1,5.1-3.976A8.611,8.611,0,0,0,2967.5,739a8.925,8.925,0,0,0-1.795,1.843,1.739,1.739,0,0,0-.3,1.335,1.72,1.72,0,0,0,.739,1.133,11.441,11.441,0,0,0,2.059,1.113c-.123.156-.24.317-.352.483a7.921,7.921,0,0,0-.776,1.486A11.9,11.9,0,0,1,2962.984,744.972Zm6.583-15.817a9.64,9.64,0,0,1,3.333,1.331,8.694,8.694,0,0,0-.466,1.963,8.924,8.924,0,0,0-2.573-.291,1.743,1.743,0,0,0-1.239.583,1.722,1.722,0,0,0-.44,1.279,11.348,11.348,0,0,0,.426,2.442q.073.246.161.489a7.541,7.541,0,0,0,.482,1.072,6.642,6.642,0,0,0-1.353.695,8.047,8.047,0,0,1-1.282-1.513c-.091-.139-.18-.28-.266-.426a13.238,13.238,0,0,1-1.585-5.791,1.922,1.922,0,0,1,.492-1.428,1.951,1.951,0,0,1,1.388-.653A12.452,12.452,0,0,1,2969.567,729.154Zm3.907,1.141a13.274,13.274,0,0,1,3.591-4.776,1.929,1.929,0,0,1,1.433-.489,2.017,2.017,0,0,1,.265.036,1.926,1.926,0,0,1,1.085.646,11.478,11.478,0,0,1,2.511,5.167,9.021,9.021,0,0,0-1.99.948,8.922,8.922,0,0,0-1.129-1.716,1.744,1.744,0,0,0-2.49-.173,11.224,11.224,0,0,0-1.7,1.867c-.1.143-.195.285-.282.426a7.481,7.481,0,0,0-.521.989,6.614,6.614,0,0,0-1.354-.631,8.079,8.079,0,0,1,.4-1.825C2973.352,730.607,2973.41,730.452,2973.474,730.3Zm14.69.631a2.129,2.129,0,0,1,.211.032,1.963,1.963,0,0,1,1.14.7,1.93,1.93,0,0,1,.415,1.45c-.023.192-.063.484-.129.845l-.005,0c-.025.141-.055.292-.089.453l0,.02c-.026.124-.055.253-.087.387s-.073.3-.116.459c-.062.231-.134.472-.214.717-.012.036-.023.071-.035.107q-.058.173-.122.348l-.039.105a10.165,10.165,0,0,1-1.4,2.6,8.853,8.853,0,0,0-2.138-.949,10.694,10.694,0,0,0,.7-2.707,1.727,1.727,0,0,0-.372-1.3,1.754,1.754,0,0,0-1.2-.651,10.215,10.215,0,0,0-3.633.236,7.049,7.049,0,0,0-.437-1.45A11.543,11.543,0,0,1,2988.164,730.926Zm-3.329,7.671a6.093,6.093,0,0,1-.548.888,5.794,5.794,0,0,0-3.148-.851h-.054a6.192,6.192,0,0,0-.621.051,6.981,6.981,0,0,0-1.242.285,7.4,7.4,0,0,0-.748.277,7.5,7.5,0,0,0-1.5.87c-.042.032-.081.063-.119.094l-.018.014v-.007c0-.01,0-.022,0-.032a7.156,7.156,0,0,1,.112-1.115q.035-.2.084-.411a6.357,6.357,0,0,1,1.311-2.685c1.343-1.574,3.455-2.231,6.277-1.951a1.3,1.3,0,0,1,.137.021,1.275,1.275,0,0,1,.738.452,1.251,1.251,0,0,1,.268.938,10.362,10.362,0,0,1-.692,2.642l-.029.068c-.054.125-.111.249-.172.372Zm2.221,4.62a1.141,1.141,0,0,1,.03.139l.01.012a1.244,1.244,0,0,1-.022.457,1.264,1.264,0,0,1-.586.8,8.325,8.325,0,0,1-2.652,1q-.245.045-.5.072a5.891,5.891,0,0,1-1.037.019,5.754,5.754,0,0,0-1.028-2.48,6.03,6.03,0,0,0-.647-.751,7.18,7.18,0,0,0-1.529-1.14,7.526,7.526,0,0,0-1.912-.761,7.457,7.457,0,0,1,2.14-1.14,5.948,5.948,0,0,1,4.9.57l.178.1h0a9.392,9.392,0,0,1,2.513,2.741,1.173,1.173,0,0,1,.061.107l-.032-.026A1.241,1.241,0,0,1,2987.056,743.217Zm-5.165,4.2c-.012.167-.031.337-.054.508a11.07,11.07,0,0,1-.556,2.217,1.243,1.243,0,0,1-.661.719,1.263,1.263,0,0,1-.991.028,8.357,8.357,0,0,1-2.357-1.423c-.126-.11-.25-.225-.372-.349a5.932,5.932,0,0,1-.709-.867,5.751,5.751,0,0,0,1.356-2.431,6.13,6.13,0,0,0,.168-.873,6.849,6.849,0,0,0,.044-.951q-.007-.3-.037-.594c-.01-.1-.022-.2-.035-.294q-.024-.171-.054-.333a7.967,7.967,0,0,0-.2-.835,7.09,7.09,0,0,0-.273-.754l-.051-.114.046.007,0,0a7.457,7.457,0,0,1,1.769.731,6.222,6.222,0,0,1,1.981,1.749,5.3,5.3,0,0,1,.9,2.107c.031.163.054.33.073.5A6.943,6.943,0,0,1,2981.891,747.415Zm-6.305.772a6.99,6.99,0,0,1-.98.783q-.211.14-.44.272a11.053,11.053,0,0,1-2.089.92,1.243,1.243,0,0,1-.973-.081,1.266,1.266,0,0,1-.631-.766,8.4,8.4,0,0,1-.33-2.591c.006-.165.018-.333.036-.5a5.983,5.983,0,0,1,.267-1.24,5.819,5.819,0,0,0,3.195-.629c.121-.062.239-.127.349-.194a6.856,6.856,0,0,0,.9-.647q.171-.146.328-.3a7.814,7.814,0,0,0,.661-.714q.156-.192.288-.376l.027-.038c.139-.2.257-.38.354-.548l.054-.095.006-.011c.01-.018.02-.035.029-.053l.007-.013.04-.076a6.833,6.833,0,0,1,.3.82,7.582,7.582,0,0,1,.192.818c.018.1.034.209.049.318a6.2,6.2,0,0,1-.174,2.57,5.308,5.308,0,0,1-1.11,2.006C2975.826,747.949,2975.708,748.069,2975.586,748.188Zm-6.3-11.2c-.064-.163-.124-.331-.178-.5a10.742,10.742,0,0,1-.448-2.494,1.245,1.245,0,0,1,.318-.923,1.265,1.265,0,0,1,.9-.422,8.5,8.5,0,0,1,1.987.168q.257.053.526.129c.156.044.315.094.474.152a6.007,6.007,0,0,1,1.208.59,5.83,5.83,0,0,0-.082,3.657c.05.166.108.326.169.483a7.283,7.283,0,0,0,.423.9l.039.072a7.932,7.932,0,0,0,.758,1.1,7.01,7.01,0,0,0,.652.7l.065.058-.088.013-.147.02c-.177.021-.382.039-.609.047a6.64,6.64,0,0,1-3.607-.85,5.3,5.3,0,0,1-1.669-1.571c-.094-.137-.182-.281-.267-.429A6.808,6.808,0,0,1,2969.289,736.984Zm5.366-3.492a6.74,6.74,0,0,1,.419-.832q.131-.224.283-.446a10.711,10.711,0,0,1,1.715-1.916,1.248,1.248,0,0,1,.927-.317,1.3,1.3,0,0,1,.172.024,1.243,1.243,0,0,1,.7.418,8.483,8.483,0,0,1,1.1,1.68c.01.022.021.043.032.065.06.126.118.257.174.392l.022.055a6.534,6.534,0,0,1,.37,1.252,5.864,5.864,0,0,0-3.166,2.54c-.029.048-.055.1-.083.145a6.711,6.711,0,0,0-.362.731l-.037.091c-.05.125-.1.248-.138.367a7.65,7.65,0,0,0-.231.827c-.028.125-.052.249-.074.37a7.751,7.751,0,0,0-.121,1.173c0,.04,0,.082,0,.119-.045-.042-.094-.091-.145-.142l-.009-.009c-.144-.146-.307-.326-.476-.534a6.585,6.585,0,0,1-1.467-3.276,5.3,5.3,0,0,1,.222-2.3C2974.529,733.806,2974.589,733.649,2974.655,733.492Zm-2.328,7.243c.063.024.126.046.188.068a6.965,6.965,0,0,0,.894.248c.095.02.188.036.281.052l.134.021a7.937,7.937,0,0,0,1.494.078,7.125,7.125,0,0,0,.761-.073l.078-.012.015,0,.07-.013-.011.019-.041.075a7.035,7.035,0,0,1-.413.641l-.046.064c-.079.107-.166.217-.257.329a6.447,6.447,0,0,1-2.583,1.937,5.294,5.294,0,0,1-2.265.354c-.166-.01-.333-.029-.5-.053a6.834,6.834,0,0,1-1.1-.254c-.165-.052-.331-.111-.5-.177a10.944,10.944,0,0,1-2.111-1.127,1.243,1.243,0,0,1-.533-.818,1.262,1.262,0,0,1,.218-.968,8.385,8.385,0,0,1,1.771-1.8c.131-.1.269-.192.412-.283a6.047,6.047,0,0,1,1.22-.6A5.762,5.762,0,0,0,2972.326,740.735Zm21.619,8.242a2.551,2.551,0,0,1-.381.239,15.371,15.371,0,0,1-2.408.957l-.142.042c-.1.03-.207.06-.315.089-.188.051-.383.1-.583.145-.005-.041-.012-.082-.017-.123a17.753,17.753,0,0,0-.542-2.511c.116-.048.229-.1.336-.145l0-.005a12.369,12.369,0,0,0,1.281-.66,2.434,2.434,0,0,0,1.129-1.54,2.4,2.4,0,0,0-.313-1.861q-.235-.368-.472-.707c.232-.228.451-.458.655-.683q.227.26.449.537.149.186.3.38.411.545.8,1.149.13.2.257.407c.225.365.446.743.66,1.138a2.44,2.44,0,0,1,.185,1.906,2.471,2.471,0,0,1-.875,1.245Zm1.835-16.064a2.783,2.783,0,0,1,1.482,1.588,2.735,2.735,0,0,1-.1,2.132c-.1.2-.24.493-.429.845-.052-.045-.1-.092-.159-.134a22.427,22.427,0,0,0-2.845-1.854q-.212-.115-.428-.226l-.033-.017a19.662,19.662,0,0,0,.734-2.724,3.1,3.1,0,0,0,.042-.316l.206.075q.226.085.453.176Q2995.238,732.67,2995.781,732.914Zm-3.928-7.906a3.014,3.014,0,0,1,.606.061,2.92,2.92,0,0,1,1.5.823,2.877,2.877,0,0,1,.828,2.087,22.455,22.455,0,0,1-.432,3.831c-.1-.038-.206-.075-.31-.112a2.928,2.928,0,0,0-.514-1.411,2.973,2.973,0,0,0-1.958-1.243c-.361-.061-.734-.116-1.115-.162a20.7,20.7,0,0,0-.507-3.586c-.018-.074-.041-.146-.064-.218C2990.521,725.032,2991.175,725.008,2991.853,725.008Zm-3.628-1.26c.022.012.045.023.067.037a2.577,2.577,0,0,1,1.1,1.335,2.767,2.767,0,0,1,.088.289,20.269,20.269,0,0,1,.491,3.421c-.337-.033-.681-.058-1.028-.075-.16-.008-.321-.013-.483-.016-.213,0-.427-.006-.642,0-.07-.448-.149-.819-.213-1.085a2.6,2.6,0,0,0-1.217-1.639,2.682,2.682,0,0,0-.551-.244,2.593,2.593,0,0,0-1.224-.086c-.083.014-.167.032-.25.055l-.217.061-.05.014a15.3,15.3,0,0,0-.614-1.413l.177-.07a23.16,23.16,0,0,1,2.6-.836,2.637,2.637,0,0,1,1.2-.033c.06.012.12.028.179.045A2.634,2.634,0,0,1,2988.225,723.747Zm-5.922-2.062q.654-.326,1.358-.63a2.724,2.724,0,0,1,1.634-.168,2.811,2.811,0,0,1,.509.157,2.728,2.728,0,0,1,1.5,1.524c.046.117.1.251.152.4a3.12,3.12,0,0,0-1.317.055,23.121,23.121,0,0,0-2.667.86c-.071.028-.14.058-.21.087a15.716,15.716,0,0,0-1.169-1.874c-.056-.076-.115-.148-.177-.217Q2982.109,721.783,2982.3,721.686Zm-7.137-2.8a2.876,2.876,0,0,1,2.052-.935,2.918,2.918,0,0,1,.68.059,2.865,2.865,0,0,1,1.42.755,18,18,0,0,1,2.289,2.738l-.056.029a2.954,2.954,0,0,0-3.644-.023c-.36.28-.725.58-1.088.9a16.706,16.706,0,0,0-2.726-1.952c-.062-.035-.126-.065-.189-.1Q2974.49,719.626,2975.166,718.888Zm-3.315,1.759a2.586,2.586,0,0,1,1.251-.053l.016,0a2.763,2.763,0,0,1,.738.281,16.226,16.226,0,0,1,2.6,1.857c-.419.385-.832.8-1.228,1.233q-.161.177-.318.36c-.144.168-.286.338-.425.513a13.716,13.716,0,0,0-1.594-.861,2.656,2.656,0,0,0-1.771-.146,2.767,2.767,0,0,0-.292.095,2.6,2.6,0,0,0-1.457,1.427l-.028.068-.089.22c-.165-.068-.33-.132-.5-.192.02-.061.041-.123.061-.185a22.165,22.165,0,0,1,1.456-3.346,2.593,2.593,0,0,1,.239-.366,2.535,2.535,0,0,1,.351-.373A2.593,2.593,0,0,1,2971.85,720.647Zm-6.59,2.2a2.721,2.721,0,0,1,1.3-1.694,2.759,2.759,0,0,1,1.93-.306c.075.015.15.034.224.056.314.092.781.243,1.341.463a3.1,3.1,0,0,0-.2.328,22.2,22.2,0,0,0-1.491,3.449l-.049.152a15.092,15.092,0,0,0-2.339-.558c-.379-.06-.75-.105-1.109-.138Q2965.028,723.743,2965.26,722.847Zm-6.913,5.67a2.865,2.865,0,0,1,.521-2.188,2.9,2.9,0,0,1,1.959-1.169,17.812,17.812,0,0,1,2.807-.15,2.986,2.986,0,0,0-.708.509,2.915,2.915,0,0,0-.9,2.109c0,.542.018,1.106.06,1.682a16.681,16.681,0,0,0-3.13.927c-.082.034-.161.073-.24.113Q2958.51,729.468,2958.347,728.518Zm-.638,3.622a2.608,2.608,0,0,1,1.134-1.306,2.665,2.665,0,0,1,.3-.151,16.235,16.235,0,0,1,2.987-.891c.049.508.118,1.024.211,1.542.028.158.059.316.092.475q.085.408.192.815a13.73,13.73,0,0,0-1.694.743,2.664,2.664,0,0,0-1.2,1.3,2.78,2.78,0,0,0-.108.3,2.6,2.6,0,0,0,.172,1.907c-.145.1-.286.2-.424.3a22.39,22.39,0,0,1-1.625-3.019,2.561,2.561,0,0,1-.181-.583,2.524,2.524,0,0,1-.044-.526A2.6,2.6,0,0,1,2957.709,732.139Zm-2.341,6.376a2.723,2.723,0,0,1-.537-2.07,2.759,2.759,0,0,1,1.125-1.854c.263-.19.664-.464,1.175-.767a3.126,3.126,0,0,0,.179.528,22.325,22.325,0,0,0,1.69,3.109,15.921,15.921,0,0,0-2.336,2.271c-.05.06-.095.123-.139.186Q2955.94,739.257,2955.368,738.515Zm.265,9.235a2.863,2.863,0,0,1-1.408-1.754,2.906,2.906,0,0,1,.279-2.264,17.676,17.676,0,0,1,1.48-2.155,3.042,3.042,0,0,0,.015.376,2.919,2.919,0,0,0,1.115,2c.477.371.99.741,1.532,1.1a16.767,16.767,0,0,0-1.262,3.184,3.179,3.179,0,0,0-.073.346Q2956.483,748.206,2955.633,747.75Zm2.485,2.64a2.624,2.624,0,0,1-.346-1.607,2.758,2.758,0,0,1,.077-.421,16.236,16.236,0,0,1,1.2-3.052c.4.246.809.482,1.233.7q.212.11.43.216c.262.127.53.248.8.361a13.8,13.8,0,0,0-.514,1.979,2.608,2.608,0,0,0,.366,1.868c.031.049.06.1.094.145a2.6,2.6,0,0,0,1.567,1.027c-.008.185-.012.367-.013.545a22.543,22.543,0,0,1-3.283-.56,2.584,2.584,0,0,1-.644-.254,2.551,2.551,0,0,1-.44-.308A2.6,2.6,0,0,1,2958.117,750.39Zm3.55,5.551a2.722,2.722,0,0,1-1.964-.846,2.764,2.764,0,0,1-.773-2.026c.01-.291.035-.71.094-1.218a3.1,3.1,0,0,0,.6.212q.416.1.849.191a21.568,21.568,0,0,0,2.552.375,15.91,15.91,0,0,0,.354,2.992c.021.092.046.181.074.269Q2962.586,755.944,2961.667,755.941Zm7.485,5.756a2.862,2.862,0,0,1-2.249.036,2.9,2.9,0,0,1-1.617-1.61,17.8,17.8,0,0,1-.872-2.832,3,3,0,0,0,.308.22,2.952,2.952,0,0,0,.952.379,2.916,2.916,0,0,0,1.313-.032c.58-.148,1.181-.324,1.788-.532a16.766,16.766,0,0,0,1.851,3.2,3.093,3.093,0,0,0,.279.321Q2970.07,761.288,2969.153,761.7Zm4.585-.484a2.608,2.608,0,0,1-2.391-.608,2.661,2.661,0,0,1-.335-.369,16.269,16.269,0,0,1-1.782-3.072c.452-.167.9-.352,1.353-.559.146-.067.291-.136.435-.207q.338-.167.67-.353a13.888,13.888,0,0,0,1.363,1.8,2.628,2.628,0,0,0,1.238.772c.061.017.123.033.185.046a2.65,2.65,0,0,0,.434.053h.014a2.6,2.6,0,0,0,1.888-.71l.018-.015c.11-.106.215-.211.32-.316.129.139.26.276.393.408-.087.1-.174.2-.264.294a22.422,22.422,0,0,1-2.555,2.353,2.617,2.617,0,0,1-.486.3A2.544,2.544,0,0,1,2973.738,761.213Zm5.554.448a2.724,2.724,0,0,1-1.873,1.031,2.763,2.763,0,0,1-2.075-.633c-.191-.16-.45-.385-.749-.671a3.135,3.135,0,0,0,.425-.28,22.415,22.415,0,0,0,2.636-2.449c.075-.083.15-.167.223-.252a15.135,15.135,0,0,0,2.284,1.719l.175.106Q2979.854,760.943,2979.292,761.661Zm9.168-2.079a2.864,2.864,0,0,1-1.353,1.8,2.911,2.911,0,0,1-2.264.288,17.979,17.979,0,0,1-3.306-1.316,2.983,2.983,0,0,0,.82-.183,2.916,2.916,0,0,0,1.665-1.574c.212-.485.416-1,.6-1.527.294.078.581.145.859.2a16.574,16.574,0,0,0,2.969.342,3.1,3.1,0,0,0,.423-.023Q2988.712,758.561,2988.46,759.581Zm1.9-3.212a2.6,2.6,0,0,1-1.406.723,2.669,2.669,0,0,1-.493.037,16.25,16.25,0,0,1-3.682-.519c.17-.516.322-1.049.45-1.595.037-.156.072-.313.1-.471.038-.184.072-.368.1-.554a13.95,13.95,0,0,0,2.326.035,2.627,2.627,0,0,0,1.41-.536,2.69,2.69,0,0,0,.427-.407c.01-.012.018-.024.027-.036a2.593,2.593,0,0,0,.57-1.914c-.007-.067-.015-.136-.023-.2.212-.047.417-.1.617-.152a22.039,22.039,0,0,1,.337,3.727,2.546,2.546,0,0,1-.022.349,2.619,2.619,0,0,1-.113.5A2.584,2.584,0,0,1,2990.363,756.369Zm4.26-5.113a2.723,2.723,0,0,1-.335,2.111,2.764,2.764,0,0,1-1.773,1.25c-.228.05-.54.11-.914.168.008-.095.012-.189.011-.286a21.986,21.986,0,0,0-.358-3.834l0-.018a15.861,15.861,0,0,0,2.531-1,2.977,2.977,0,0,0,.324-.193q.061.185.12.374Q2994.439,750.52,2994.624,751.257Zm4.6-6.047a2.905,2.905,0,0,1-1.161,1.964,18,18,0,0,1-3.544,2.014l-.018-.052a2.953,2.953,0,0,0,.776-1.259,2.917,2.917,0,0,0-.221-2.28c-.214-.393-.447-.794-.7-1.194a16.731,16.731,0,0,0,2.735-2.655,3.112,3.112,0,0,0,.2-.284q.677.737,1.338,1.576A2.864,2.864,0,0,1,2999.228,745.21Z" transform="translate(-2953.629 -717.47)"/><path class="a" d="M3054.8,786.4l0,0-.033-.034Z" transform="translate(-3017.564 -761.017)"/><path class="a" d="M3010.475,782.5l-.032.01.05-.01Z" transform="translate(-2989.544 -758.577)"/><g transform="translate(19.35 19.867)"><path class="a" d="M3008.79,774.274a2.5,2.5,0,0,1,2.062,1.771.436.436,0,0,1-.519.574,3.185,3.185,0,0,1-1.99-1.731A.432.432,0,0,1,3008.79,774.274Z" transform="translate(-3007.538 -773.243)"/><path class="a" d="M3010.573,772.856a2.5,2.5,0,0,1,1.521,2.252.436.436,0,0,1-.657.413,3.187,3.187,0,0,1-1.457-2.191A.432.432,0,0,1,3010.573,772.856Z" transform="translate(-3008.595 -772.327)"/><path class="a" d="M3013.034,771.858a2.5,2.5,0,0,1,.744,2.614.436.436,0,0,1-.754.188,3.185,3.185,0,0,1-.7-2.536A.432.432,0,0,1,3013.034,771.858Z" transform="translate(-3010.063 -771.651)"/><path class="a" d="M3015.246,771.69a2.5,2.5,0,0,1-.107,2.715.435.435,0,0,1-.772-.05,3.185,3.185,0,0,1,.119-2.635A.432.432,0,0,1,3015.246,771.69Z" transform="translate(-3011.23 -771.479)"/><path class="a" d="M3016.968,772.365a2.5,2.5,0,0,1-.947,2.547.435.435,0,0,1-.718-.288,3.186,3.186,0,0,1,.934-2.466A.432.432,0,0,1,3016.968,772.365Z" transform="translate(-3011.96 -771.825)"/><path class="a" d="M3018.177,773.818a2.5,2.5,0,0,1-1.693,2.126.435.435,0,0,1-.593-.5,3.186,3.186,0,0,1,1.655-2.053A.432.432,0,0,1,3018.177,773.818Z" transform="translate(-3012.33 -772.657)"/><path class="a" d="M3019.059,775.908a2.5,2.5,0,0,1-2.271,1.493.436.436,0,0,1-.405-.663,3.187,3.187,0,0,1,2.209-1.43A.432.432,0,0,1,3019.059,775.908Z" transform="translate(-3012.606 -773.895)"/><path class="a" d="M3019.533,778.373a2.5,2.5,0,0,1-2.624.712.436.436,0,0,1-.178-.756,3.187,3.187,0,0,1,2.544-.671A.432.432,0,0,1,3019.533,778.373Z" transform="translate(-3012.77 -775.362)"/><path class="a" d="M3019.551,780.568a2.5,2.5,0,0,1-2.714-.14.435.435,0,0,1,.059-.771,3.186,3.186,0,0,1,2.633.152A.432.432,0,0,1,3019.551,780.568Z" transform="translate(-3012.805 -776.513)"/><path class="a" d="M3019.112,782.268a2.5,2.5,0,0,1-2.536-.979.436.436,0,0,1,.3-.715,3.184,3.184,0,0,1,2.455.964A.432.432,0,0,1,3019.112,782.268Z" transform="translate(-3012.708 -777.225)"/><path class="a" d="M3018.257,783.463a2.5,2.5,0,0,1-2.1-1.719.436.436,0,0,1,.5-.587,3.186,3.186,0,0,1,2.033,1.681A.432.432,0,0,1,3018.257,783.463Z" transform="translate(-3012.484 -777.588)"/><path class="a" d="M3017.071,784.33a2.5,2.5,0,0,1-1.464-2.289.436.436,0,0,1,.668-.4,3.188,3.188,0,0,1,1.4,2.226A.432.432,0,0,1,3017.071,784.33Z" transform="translate(-3012.157 -777.86)"/><path class="a" d="M3015.493,784.786a2.5,2.5,0,0,1-.679-2.632.436.436,0,0,1,.758-.169,3.187,3.187,0,0,1,.639,2.552A.432.432,0,0,1,3015.493,784.786Z" transform="translate(-3011.581 -778.02)"/><path class="a" d="M3013.48,784.786a2.5,2.5,0,0,1,.174-2.712.436.436,0,0,1,.771.069,3.183,3.183,0,0,1-.185,2.631A.432.432,0,0,1,3013.48,784.786Z" transform="translate(-3010.612 -778.049)"/><path class="a" d="M3011.28,784.33a2.5,2.5,0,0,1,1.01-2.523.435.435,0,0,1,.711.305,3.185,3.185,0,0,1-.995,2.443A.432.432,0,0,1,3011.28,784.33Z" transform="translate(-3009.395 -777.947)"/><path class="a" d="M3009.108,783.461a2.5,2.5,0,0,1,1.745-2.083.435.435,0,0,1,.58.512,3.18,3.18,0,0,1-1.706,2.011A.431.431,0,0,1,3009.108,783.461Z" transform="translate(-3008.047 -777.719)"/><path class="a" d="M3007.454,782.264a2.5,2.5,0,0,1,2.307-1.437.436.436,0,0,1,.389.673,3.187,3.187,0,0,1-2.244,1.375A.432.432,0,0,1,3007.454,782.264Z" transform="translate(-3006.977 -777.388)"/><path class="a" d="M3006.79,781.39a.432.432,0,0,1-.229-.728,2.476,2.476,0,0,1,1.619-.765,3.214,3.214,0,0,1,1.108.218.358.358,0,0,1,.133.613A3.175,3.175,0,0,1,3006.79,781.39Z" transform="translate(-3006.361 -776.799)"/><path class="a" d="M3006.434,778.761a3.474,3.474,0,0,1,.933-.323.454.454,0,0,1,.374.119,4.1,4.1,0,0,0,1.489.669.208.208,0,0,1,.027.388,3.169,3.169,0,0,1-2.825-.171A.388.388,0,0,1,3006.434,778.761Z" transform="translate(-3006.231 -775.874)"/><path class="a" d="M3006.9,776.792a.5.5,0,0,1,.718,0c.5.806,1.2.609,2.053,1.295-.062.263-.783.284-1.492.075C3007.322,777.909,3006.486,777.344,3006.9,776.792Z" transform="translate(-3006.585 -774.74)"/></g></g></svg>