<svg xmlns="http://www.w3.org/2000/svg" width="64.656" height="70.399" viewBox="0 0 64.656 70.399"><defs><style>.a{fill:#ef9b81;}</style></defs><path class="a" d="M292.524-159.215c-.621-.628-24.6-25.362-24.6-25.362a8.408,8.408,0,0,0-6.092-2.577,8.361,8.361,0,0,0-6.092,2.592s-23.874,24.592-24.6,25.362a6.345,6.345,0,0,0-1.632,4.1v33.315a5.017,5.017,0,0,0,4.974,5.029h54.708a5.017,5.017,0,0,0,4.974-5.029v-33.471A6.077,6.077,0,0,0,292.524-159.215Zm-3.015,6.647-12.6,13.326a.306.306,0,0,0,0,.44l11.7,12.6a2.055,2.055,0,0,1,0,2.892,2.025,2.025,0,0,1-1.429.6,2.029,2.029,0,0,1-1.43-.6L262.279-148.64a.609.609,0,0,0-.9,0l-23.453,25.316a2.032,2.032,0,0,1-1.43.6,2.032,2.032,0,0,1-1.43-.6,2.058,2.058,0,0,1,0-2.892l11.7-12.6a.337.337,0,0,0,0-.44l-12.652-13.326c-1.508-1.555-.372-5.625,2.5-5.625h50.419c2.564-.016,3.979,4.1,2.471,5.641Z" transform="translate(-229.5 187.154)"/></svg>