<svg xmlns="http://www.w3.org/2000/svg" width="25.244" height="25.244" viewBox="0 0 25.244 25.244"><defs><style>.a{fill:#68161c;}</style></defs><g transform="translate(0)"><path class="a" d="M24.524,17.844,19,15.478a1.183,1.183,0,0,0-1.381.34l-2.446,2.988A18.275,18.275,0,0,1,6.439,10.07L9.427,7.624a1.18,1.18,0,0,0,.34-1.381L7.4.721A1.191,1.191,0,0,0,6.045.036L.917,1.219A1.183,1.183,0,0,0,0,2.373,22.875,22.875,0,0,0,22.877,25.25a1.183,1.183,0,0,0,1.154-.917l1.183-5.128a1.2,1.2,0,0,0-.691-1.361Z" transform="translate(0 -0.006)"/></g></svg>