<svg xmlns="http://www.w3.org/2000/svg" xmlns:xlink="http://www.w3.org/1999/xlink" width="132.801" height="42.945" viewBox="0 0 132.801 42.945"><defs><style>.a{fill:#002b80;}.b{fill:#fe9700;}.c{fill:#1a1818;}.d{fill:#e6001a;}.e{fill:#ee5114;}.f{fill:#fb8b08;}.g{fill:#005daa;}.g,.h{fill-rule:evenodd;}.h,.o{fill:#fff;}.i,.k{fill:#b1c91e;}.j{fill:url(#a);}.k{mix-blend-mode:multiply;isolation:isolate;}.l{fill:#004f9b;}.m{fill:#ffa600;}.n{fill:#003b87;}</style><linearGradient id="a" x1="0.5" y1="0.211" x2="0.5" y2="1.228" gradientUnits="objectBoundingBox"><stop offset="0" stop-color="#b1c91e"/><stop offset="1" stop-color="#3e8228"/></linearGradient></defs><g transform="translate(32.713 2.959)"><path class="a" d="M119.442,198.511c-2.8,0-4.763,1.488-4.781,3.615-.017,1.576,1.406,2.455,2.477,2.978,1.1.536,1.474.879,1.469,1.359-.01.735-.884,1.068-1.694,1.068a5.678,5.678,0,0,1-2.661-.572l-.367-.175-.4,2.451a8.571,8.571,0,0,0,3.153.584c2.969,0,4.9-1.471,4.924-3.742.012-1.25-.744-2.2-2.378-2.976-.986-.508-1.6-.845-1.587-1.36,0-.455.512-.942,1.621-.942a4.938,4.938,0,0,1,2.117.421l.252.125.385-2.375a6.981,6.981,0,0,0-2.535-.461Zm-8.785.192-1.77,10.955h2.828l1.771-10.955h-2.829Zm-4.143.01-2.769,7.467-.3-1.517a8.445,8.445,0,0,0-3.921-4.6l2.533,9.587,2.994,0,4.453-10.933Zm20.533,0a1.4,1.4,0,0,0-1.484.909l-4.2,10.039h2.971s.485-1.352.6-1.647l3.621.006c.088.382.345,1.641.345,1.641h2.627l-2.29-10.947Zm.2,2.953.188.944s.544,2.615.657,3.162h-2.348c.234-.629,1.126-3.062,1.126-3.062-.017.03.232-.633.376-1.044Z" transform="translate(-96.589 -198.511)"/><path class="b" d="M100.665,198.741H96.1l-.026.189a9.512,9.512,0,0,1,6.861,5.769l-.991-5.035a1.188,1.188,0,0,0-1.281-.923" transform="translate(-96.076 -198.545)"/></g><g transform="translate(3.759)"><g transform="translate(1.193 15.542)"><path class="c" d="M70.578,211.285a.713.713,0,0,0-.242-.158.81.81,0,0,0-.306-.057,1.146,1.146,0,0,0-.183.015.822.822,0,0,0-.186.054.7.7,0,0,0-.173.106.659.659,0,0,0-.143.171.689.689,0,0,0-.265-.253.77.77,0,0,0-.382-.092.969.969,0,0,0-.149.013.715.715,0,0,0-.153.046.614.614,0,0,0-.145.087.637.637,0,0,0-.127.141v-.237H67.72v1.934h.41v-1.072a.57.57,0,0,1,.04-.219.468.468,0,0,1,.1-.16.439.439,0,0,1,.153-.1.518.518,0,0,1,.188-.033.4.4,0,0,1,.321.131.556.556,0,0,1,.115.376v1.076h.41v-1.072a.59.59,0,0,1,.039-.219.483.483,0,0,1,.1-.16.448.448,0,0,1,.153-.1.526.526,0,0,1,.188-.033.4.4,0,0,1,.322.131.556.556,0,0,1,.114.376v1.076h.41v-1.215a.854.854,0,0,0-.055-.311A.725.725,0,0,0,70.578,211.285Z" transform="translate(-67.72 -210.335)"/><path class="c" d="M72.69,211.355a.75.75,0,0,0-.25-.207.77.77,0,0,0-.357-.078.948.948,0,0,0-.687.287.976.976,0,0,0-.205.322,1.149,1.149,0,0,0,0,.817.966.966,0,0,0,.205.322.948.948,0,0,0,.687.287.77.77,0,0,0,.357-.077.736.736,0,0,0,.25-.206v.232h.422v-1.934H72.69Zm-.016.979a.6.6,0,0,1-.119.2.565.565,0,0,1-.184.13.585.585,0,0,1-.239.048.573.573,0,0,1-.245-.05.538.538,0,0,1-.183-.133.6.6,0,0,1-.116-.2.748.748,0,0,1,0-.48.6.6,0,0,1,.116-.2.538.538,0,0,1,.183-.133.573.573,0,0,1,.245-.05.585.585,0,0,1,.239.048.564.564,0,0,1,.184.13.6.6,0,0,1,.119.2.732.732,0,0,1,0,.492Z" transform="translate(-67.669 -210.335)"/><path class="c" d="M75.016,212.085a1.036,1.036,0,0,0-.494-.185l-.2-.03c-.045-.007-.086-.014-.125-.023a.411.411,0,0,1-.1-.036.184.184,0,0,1-.067-.057A.134.134,0,0,1,74,211.67a.192.192,0,0,1,.1-.166.485.485,0,0,1,.27-.064,1.055,1.055,0,0,1,.179.016,1.531,1.531,0,0,1,.166.041,1.048,1.048,0,0,1,.143.054,1.2,1.2,0,0,1,.109.055l.182-.329a1.243,1.243,0,0,0-.353-.15,1.668,1.668,0,0,0-.429-.054,1.192,1.192,0,0,0-.333.044.776.776,0,0,0-.252.123.545.545,0,0,0-.159.195.6.6,0,0,0-.056.259.478.478,0,0,0,.166.379.949.949,0,0,0,.49.189l.2.025a.634.634,0,0,1,.254.078.159.159,0,0,1,.081.136.193.193,0,0,1-.112.173.673.673,0,0,1-.329.064,1.23,1.23,0,0,1-.213-.016,1.109,1.109,0,0,1-.172-.044.835.835,0,0,1-.139-.062,1.051,1.051,0,0,1-.114-.076l-.2.317a.983.983,0,0,0,.22.127,1.476,1.476,0,0,0,.225.076,1.43,1.43,0,0,0,.21.037q.1.009.174.009a1.35,1.35,0,0,0,.373-.047.82.82,0,0,0,.276-.13.574.574,0,0,0,.172-.2.54.54,0,0,0,.06-.256A.459.459,0,0,0,75.016,212.085Z" transform="translate(-67.633 -210.335)"/><path class="c" d="M78.909,211.352a.824.824,0,0,0-.289-.208.921.921,0,0,0-.37-.074,1.01,1.01,0,0,0-.39.074.874.874,0,0,0-.3.208.965.965,0,0,0-.2.322,1.174,1.174,0,0,0-.07.414,1.16,1.16,0,0,0,.072.417.933.933,0,0,0,.2.321.889.889,0,0,0,.313.206,1.066,1.066,0,0,0,.4.073,1.425,1.425,0,0,0,.419-.061,1.056,1.056,0,0,0,.377-.212l-.21-.3a.942.942,0,0,1-.268.15.848.848,0,0,1-.291.054.671.671,0,0,1-.2-.028.527.527,0,0,1-.172-.087.554.554,0,0,1-.131-.153.616.616,0,0,1-.075-.223h1.429c0-.024.005-.05.006-.077s0-.054,0-.08a1.192,1.192,0,0,0-.068-.413A.971.971,0,0,0,78.909,211.352Zm-1.181.569a.715.715,0,0,1,.057-.192.524.524,0,0,1,.1-.152.462.462,0,0,1,.151-.1.542.542,0,0,1,.2-.034.448.448,0,0,1,.329.125.608.608,0,0,1,.162.351Z" transform="translate(-67.576 -210.335)"/><path class="c" d="M84.429,211.355a.75.75,0,0,0-.25-.207.767.767,0,0,0-.357-.078.944.944,0,0,0-.686.287.962.962,0,0,0-.206.322,1.149,1.149,0,0,0,0,.817.952.952,0,0,0,.206.322.93.93,0,0,0,.307.211.942.942,0,0,0,.38.076.767.767,0,0,0,.357-.077.736.736,0,0,0,.25-.206v.232h.422v-1.934h-.422Zm-.016.979a.579.579,0,0,1-.119.2.554.554,0,0,1-.184.13.582.582,0,0,1-.239.048.573.573,0,0,1-.245-.05.538.538,0,0,1-.183-.133.585.585,0,0,1-.115-.2.73.73,0,0,1,0-.48.585.585,0,0,1,.115-.2.538.538,0,0,1,.183-.133.573.573,0,0,1,.245-.05.582.582,0,0,1,.239.048.554.554,0,0,1,.184.13.579.579,0,0,1,.119.2.732.732,0,0,1,0,.492Z" transform="translate(-67.492 -210.335)"/><path class="c" d="M76.795,212.677a.574.574,0,0,1-.2.039.357.357,0,0,1-.12-.02.252.252,0,0,1-.1-.063.307.307,0,0,1-.066-.113.5.5,0,0,1-.024-.165v-.841h.678v-.384h-.678v-.586h-.423v.586h-.386v.384h.386v.85a.776.776,0,0,0,.183.568.688.688,0,0,0,.512.183.914.914,0,0,0,.33-.057,1.325,1.325,0,0,0,.18-.084l-.144-.353A1.158,1.158,0,0,1,76.795,212.677Z" transform="translate(-67.603 -210.343)"/><path class="c" d="M80.542,211.07a.786.786,0,0,0-.322.065.676.676,0,0,0-.24.24v-.254H79.6v1.934h.388v-1.064a.647.647,0,0,1,.035-.22.471.471,0,0,1,.094-.163.393.393,0,0,1,.145-.1.484.484,0,0,1,.186-.034.824.824,0,0,1,.165.018.87.87,0,0,1,.085.022l.125-.4a.776.776,0,0,0-.1-.026A1.143,1.143,0,0,0,80.542,211.07Z" transform="translate(-67.541 -210.335)"/><path class="c" d="M86.319,211.07a.778.778,0,0,0-.321.065.687.687,0,0,0-.241.24v-.254h-.383v1.934h.387v-1.064a.647.647,0,0,1,.035-.22.5.5,0,0,1,.094-.163.4.4,0,0,1,.146-.1.477.477,0,0,1,.186-.034.832.832,0,0,1,.165.018c.029.006.058.014.084.022l.125-.4a.7.7,0,0,0-.1-.026A1.123,1.123,0,0,0,86.319,211.07Z" transform="translate(-67.454 -210.335)"/><path class="c" d="M88.269,210.346v1.02a.75.75,0,0,0-.25-.207.767.767,0,0,0-.357-.078.943.943,0,0,0-.686.287.962.962,0,0,0-.206.322,1.149,1.149,0,0,0,0,.817.952.952,0,0,0,.206.322.92.92,0,0,0,.307.211.943.943,0,0,0,.38.076.767.767,0,0,0,.357-.077.736.736,0,0,0,.25-.206v.232h.422v-2.719Zm-.016,2a.579.579,0,0,1-.119.2.554.554,0,0,1-.184.13.582.582,0,0,1-.239.048.573.573,0,0,1-.245-.05.538.538,0,0,1-.183-.133.6.6,0,0,1-.116-.2.748.748,0,0,1,0-.48.6.6,0,0,1,.116-.2.538.538,0,0,1,.183-.133.573.573,0,0,1,.245-.05.582.582,0,0,1,.239.048.554.554,0,0,1,.184.13.579.579,0,0,1,.119.2.732.732,0,0,1,0,.492Z" transform="translate(-67.434 -210.346)"/><path class="c" d="M81.531,211.64a.565.565,0,0,1,.192-.127.627.627,0,0,1,.241-.046h0a.747.747,0,0,1,.264.046.635.635,0,0,1,.205.122l.2-.338a1.025,1.025,0,0,0-.258-.149,1.139,1.139,0,0,0-.829,0,1,1,0,0,0-.329.214.985.985,0,0,0-.217.322,1.081,1.081,0,0,0,0,.807.985.985,0,0,0,.217.322,1,1,0,0,0,.329.214,1.139,1.139,0,0,0,.829,0,1.026,1.026,0,0,0,.258-.149l-.2-.338a.636.636,0,0,1-.205.122.747.747,0,0,1-.264.046h0a.627.627,0,0,1-.241-.046.565.565,0,0,1-.192-.127.588.588,0,0,1-.127-.2.7.7,0,0,1,0-.5A.588.588,0,0,1,81.531,211.64Z" transform="translate(-67.521 -210.335)"/></g><g transform="translate(23.135 17.978)"><path class="c" d="M89.54,212.746a.2.2,0,0,1,.079.015.207.207,0,0,1,.065.043.192.192,0,0,1,.043.063.187.187,0,0,1,0,.152.2.2,0,0,1-.043.064.2.2,0,0,1-.065.042.187.187,0,0,1-.079.016.2.2,0,0,1-.08-.016.217.217,0,0,1-.065-.042.2.2,0,0,1-.043-.064.2.2,0,0,1,0-.152.193.193,0,0,1,.043-.063.219.219,0,0,1,.065-.043A.213.213,0,0,1,89.54,212.746Zm0,.34a.144.144,0,0,0,.056-.011.157.157,0,0,0,.045-.03.138.138,0,0,0,.03-.046.144.144,0,0,0,.011-.056.152.152,0,0,0-.011-.056.146.146,0,0,0-.075-.075.145.145,0,0,0-.056-.011.149.149,0,0,0-.056.011.138.138,0,0,0-.046.03.125.125,0,0,0-.03.045.152.152,0,0,0-.011.056.144.144,0,0,0,.011.056.139.139,0,0,0,.03.046.178.178,0,0,0,.046.03A.148.148,0,0,0,89.54,213.086Zm.012-.23a.082.082,0,0,1,.055.016.053.053,0,0,1,.018.043.046.046,0,0,1-.013.034.061.061,0,0,1-.04.018l.055.063h-.059l-.049-.061h-.006v.061h-.049v-.175Zm-.039.043v.033h.038a.029.029,0,0,0,.017,0,.012.012,0,0,0,.006-.012.014.014,0,0,0-.006-.012.029.029,0,0,0-.017,0Z" transform="translate(-89.337 -212.746)"/></g><path class="d" d="M75.586,202.323a7.272,7.272,0,0,1,2.767-5.714,7.288,7.288,0,1,0,0,11.427A7.272,7.272,0,0,1,75.586,202.323Z" transform="translate(-66.545 -195.035)"/><ellipse class="e" cx="2.767" cy="5.714" rx="2.767" ry="5.714" transform="translate(9.041 1.574)"/><path class="f" d="M89.325,206.1v-.213h-.086v-.058h.237v.058h-.086v.213Zm.457,0v-.188l-.061.162h-.068l-.061-.162v.188h-.064v-.271h.091l.068.174.067-.174h.091v.271Z" transform="translate(-66.203 -194.872)"/><path class="f" d="M82.7,195.035a7.252,7.252,0,0,0-4.52,1.574,7.283,7.283,0,0,1,0,11.427,7.287,7.287,0,1,0,4.52-13Z" transform="translate(-66.37 -195.035)"/></g><g transform="translate(99.326 21.648)"><path class="g" d="M221.3,192.272H241.78v20.479H221.3V192.272Z" transform="translate(-221.3 -192.272)"/><path class="h" d="M225.97,208.473v-3.216h3.4l.365.476.377-.476h12.357v2.993a1.429,1.429,0,0,1-.7.222h-6.843l-.411-.507v.507h-1.349v-.866a1.134,1.134,0,0,1-.583.121h-.459v.745h-2.043l-.365-.487-.37.487Z" transform="translate(-221.994 -194.202)"/><path class="h" d="M221.3,202.1l.768-1.79H223.4l.435,1v-1h1.651l.259.725.252-.725H233.4v.364a1.6,1.6,0,0,1,1.03-.364l2.4.008.428.989v-1h1.381l.381.568v-.568h1.394v3.215h-1.394l-.364-.57v.57h-2.03l-.2-.507h-.546l-.2.507H234.3a1.362,1.362,0,0,1-.9-.357v.357h-2.075l-.411-.507v.507H223.2l-.2-.507h-.544l-.2.507H221.3V202.1Z" transform="translate(-221.3 -193.466)"/><path class="g" d="M222.34,200.774l-1.035,2.408h.674l.191-.482h1.111l.19.482h.689l-1.034-2.408Zm.383.56.339.843h-.678l.339-.843Z" transform="translate(-221.301 -193.536)"/><path class="g" d="M224.742,203.181v-2.407l.958,0,.557,1.552.544-1.556h.95v2.407h-.6v-1.774l-.638,1.774h-.528l-.64-1.774v1.774Z" transform="translate(-221.812 -193.536)"/><path class="g" d="M228.76,203.181v-2.407h1.964v.538h-1.356v.412h1.324v.507h-1.324v.428h1.356v.523Z" transform="translate(-222.409 -193.536)"/><path class="g" d="M231.477,200.774v2.408h.6v-.856h.254l.722.856h.736l-.793-.887a.733.733,0,0,0,.661-.739.779.779,0,0,0-.841-.782Zm.6.539h.689a.276.276,0,0,1,.284.253.272.272,0,0,1-.276.254h-.7v-.507Z" transform="translate(-222.813 -193.536)"/><path class="g" d="M234.941,203.181h-.615v-2.407h.615v2.407Z" transform="translate(-223.236 -193.536)"/><path class="g" d="M236.557,203.181h-.133a1.061,1.061,0,0,1-1.032-1.194,1.1,1.1,0,0,1,1.2-1.213h.665v.57h-.689a.579.579,0,0,0-.562.65.589.589,0,0,0,.649.662h.159l-.254.525Z" transform="translate(-223.394 -193.536)"/><path class="g" d="M238.117,200.774l-1.035,2.408h.674l.191-.482h1.111l.19.482h.689l-1.034-2.408Zm.383.56.339.843h-.679l.34-.843Z" transform="translate(-223.646 -193.536)"/><path class="g" d="M240.518,203.181v-2.407h.765l.977,1.513v-1.513h.6v2.407h-.74l-1-1.552v1.552Z" transform="translate(-224.156 -193.536)"/><path class="g" d="M226.454,208.13v-2.407h1.964v.539h-1.356v.412h1.324v.507h-1.324v.428h1.356v.523Z" transform="translate(-222.066 -194.271)"/><path class="g" d="M237.757,208.13v-2.407h1.964v.539h-1.356v.412h1.318v.507h-1.318v.428h1.356v.523Z" transform="translate(-223.746 -194.271)"/><path class="g" d="M228.846,208.13l.956-1.189-.979-1.219h.758l.583.753.585-.753h.729l-.966,1.2.958,1.2h-.758l-.566-.741-.552.741Z" transform="translate(-222.418 -194.271)"/><path class="g" d="M232.016,205.723v2.407h.618v-.76h.633a.833.833,0,0,0,.943-.837.793.793,0,0,0-.864-.81Zm.618.544h.667a.272.272,0,0,1,.3.278.278.278,0,0,1-.3.277h-.665v-.554Z" transform="translate(-222.893 -194.271)"/><path class="g" d="M234.9,205.722v2.408h.6v-.856h.254l.722.856h.736l-.793-.887a.733.733,0,0,0,.661-.739.779.779,0,0,0-.841-.782Zm.6.539h.689a.276.276,0,0,1,.284.253.272.272,0,0,1-.276.254h-.7v-.507Z" transform="translate(-223.321 -194.271)"/><path class="g" d="M240.378,208.13v-.523h1.2c.178,0,.255-.1.255-.2s-.077-.2-.255-.2h-.544a.674.674,0,0,1-.737-.721c0-.387.242-.759.945-.759h1.172l-.253.541h-1.014c-.194,0-.254.1-.254.2a.21.21,0,0,0,.222.209h.57a.661.661,0,0,1,.756.691.722.722,0,0,1-.785.766Z" transform="translate(-224.124 -194.271)"/><path class="g" d="M242.973,208.13v-.523h1.154c.178,0,.255-.1.255-.2s-.077-.2-.255-.2h-.494a.673.673,0,0,1-.736-.721c0-.387.241-.759.944-.759h1.149l-.254.541h-.99c-.194,0-.254.1-.254.2a.21.21,0,0,0,.221.209h.519a.661.661,0,0,1,.757.691.722.722,0,0,1-.785.766Z" transform="translate(-224.51 -194.271)"/></g><g transform="translate(51.022 23.639)"><rect class="i" width="2.364" height="2.385" rx="0.71" transform="translate(35.941 1.62)"/><rect class="i" width="1.605" height="1.62" rx="0.482" transform="translate(34.334 0)"/><path class="j" d="M168.442,155.52h-2.464c-1.317,0-1.9.587-1.9,1.9v8.459c0,.509.163.672.672.672h.166c.509,0,.672-.164.672-.672v-3.291h2.858c2.537,0,3.719-1.124,3.719-3.536S170.979,155.52,168.442,155.52Zm2.208,3.536c0,1.378-.352,2.125-2.208,2.125h-2.858v-3.557c0-.493.183-.677.676-.677h2.181C169.84,156.947,170.65,157.292,170.65,159.056Zm4.685-1.111a8.809,8.809,0,0,0-1.821.169c-.411.089-.583.2-.583.67v.133a.729.729,0,0,0,.085.4.361.361,0,0,0,.324.156,1.082,1.082,0,0,0,.255-.037,8.9,8.9,0,0,1,1.806-.18c1.474,0,2.075.408,2.075,1.409v.893h-1.859c-2.389,0-3.5.806-3.5,2.537,0,1.679,1.149,2.6,3.236,2.6,2.48,0,3.586-.844,3.586-2.737v-3.3C178.937,158.835,177.759,157.946,175.335,157.946Zm2.142,4.808v1.159c0,.945-.351,1.493-2.142,1.493-1.184,0-1.759-.428-1.759-1.309,0-.967.577-1.343,2.059-1.343Zm9.667-3.885-1.916,7.661c-.561,2.246-1.52,3.21-3.311,3.327-.047,0-.09.006-.131.006-.386,0-.508-.213-.579-.556l-.033-.149a.571.571,0,0,1,.038-.455c.088-.118.246-.153.49-.173,1.2-.123,1.606-.678,2.005-1.935a2.105,2.105,0,0,1-.663.1c-1.318,0-1.671-.918-1.967-2.027l-1.582-5.794a.624.624,0,0,1,.015-.531.615.615,0,0,1,.5-.152h.133a.7.7,0,0,1,.818.628l1.566,5.744c.2.716.405.837.913.837.415,0,.657-.129.829-.835l1.382-5.744c.11-.477.3-.631.8-.631h.15a.624.624,0,0,1,.5.15A.633.633,0,0,1,187.143,158.869ZM198.4,156.63v5.809a4.314,4.314,0,0,1-.618,2.363c-.787,1.236-2.31,1.894-4.475,1.894h-.016c-2.165,0-3.689-.658-4.475-1.894a4.31,4.31,0,0,1-.618-2.363V156.63c0-.938.383-1.108,1.413-1.108h.325c1.03,0,1.413.17,1.413,1.108v2.691c0,.016,0,.032,0,.049v3.068a1.639,1.639,0,0,0,.221.905c.281.433.837.629,1.726.63s1.446-.2,1.727-.631a1.638,1.638,0,0,0,.221-.9v-3.068c0-.017,0-.033,0-.049V156.63c0-.938.383-1.108,1.413-1.108h.324C198.019,155.522,198.4,155.692,198.4,156.63Z" transform="translate(-164.073 -150.75)"/><rect class="k" width="3.183" height="3.211" rx="0.956" transform="translate(32.757 4.003)"/></g><g transform="translate(0 25.451)"><g transform="translate(28.697 4.517)"><path class="l" d="M122.765,167.314h-4.9a.278.278,0,1,1,0-.557h4.878a1.929,1.929,0,0,0,1.532-1.876c.057-1.5-.8-1.649-.942-1.664h-3.148a1.792,1.792,0,0,1-1.49-1.949,2.516,2.516,0,0,1,2.019-2.424.307.307,0,0,1,.059-.006h4.416a.278.278,0,0,1,0,.557H120.8a1.972,1.972,0,0,0-1.554,1.879v.021a1.277,1.277,0,0,0,1,1.366h3.107c.015,0,1.553.117,1.472,2.241a2.481,2.481,0,0,1-2.015,2.408A.265.265,0,0,1,122.765,167.314Z" transform="translate(-117.583 -158.839)"/></g><g transform="translate(36.809 4.63)"><path class="l" d="M138.585,167.436H134.06l-.03,0c-.6-.064-1.732-.479-1.758-1.594a36.3,36.3,0,0,1,.8-4.937.23.23,0,0,1,.011-.036c.028-.075.693-1.823,2.166-1.823h3.255a.279.279,0,0,1,.077.011c.057.017,1.393.416,1.393,1.564a20.374,20.374,0,0,1-.3,2.668.279.279,0,0,1-.272.231l-6.3.052a14.685,14.685,0,0,0-.281,2.256c.02.863,1.106,1.032,1.247,1.051h4.509a.279.279,0,1,1,0,.557Zm-4.973-6.391c-.031.142-.218,1-.4,1.969l5.957-.05a18.18,18.18,0,0,0,.249-2.344c0-.651-.783-.958-.956-1.018H135.25C134.223,159.6,133.676,160.887,133.613,161.046Z" transform="translate(-132.272 -159.045)"/></g><g transform="translate(20.205 4.59)"><path class="l" d="M102.482,171.058a.256.256,0,0,1-.05,0,.278.278,0,0,1-.224-.324s.443-2.453.89-4.906c.224-1.227.447-2.453.617-3.374.085-.46.156-.844.207-1.113a4.361,4.361,0,0,1,.1-.464l0,0a3.253,3.253,0,0,1,2.017-1.9.29.29,0,0,1,.076,0c.184.007,1.95,0,3.116,0h0c.27-.006,1.713.541,1.546,1.683,0,.01,0,.02,0,.03l-.777,4.742a.274.274,0,0,1-.007.03,2.86,2.86,0,0,1-1.783,1.868.247.247,0,0,1-.072.012l-2.862.082h-.034a2.626,2.626,0,0,1-1.676-1.018c-.308,1.693-.616,3.392-.8,4.429A.278.278,0,0,1,102.482,171.058ZM103.7,165.6a2.229,2.229,0,0,0,1.57,1.258l2.8-.08a2.334,2.334,0,0,0,1.369-1.462l.771-4.707c.081-.525-.723-1.086-1.054-1.083l-1.509,0h-1.083c-.2,0-.348,0-.455-.007a2.8,2.8,0,0,0-1.572,1.528C104.5,161.274,104.117,163.339,103.7,165.6Z" transform="translate(-102.204 -158.972)"/></g><path class="m" d="M94.635,156.215a.777.777,0,1,1-.777-.777A.777.777,0,0,1,94.635,156.215Z" transform="translate(-77.914 -152.799)"/><ellipse class="m" cx="0.777" cy="0.777" rx="0.777" ry="0.777" transform="translate(13.407 0)"/><path class="m" d="M88.248,156.215a.777.777,0,1,1-.777-.777A.777.777,0,0,1,88.248,156.215Z" transform="translate(-75.054 -152.799)"/><ellipse class="m" cx="0.777" cy="0.777" rx="0.777" ry="0.777" transform="translate(15.077 13.22)"/><ellipse class="m" cx="0.777" cy="0.777" rx="0.777" ry="0.777" transform="translate(13.404 10.74)"/><ellipse class="m" cx="0.643" cy="0.643" rx="0.643" ry="0.643" transform="translate(10.11 10.874)"/><path class="m" d="M88.312,175.487a.642.642,0,1,1-.642-.643A.642.642,0,0,1,88.312,175.487Z" transform="translate(-75.203 -161.489)"/><ellipse class="m" cx="0.643" cy="0.643" rx="0.643" ry="0.643" transform="translate(10.065 16.075)"/><ellipse class="m" cx="0.498" cy="0.498" rx="0.498" ry="0.498" transform="translate(8.546 13.499)"/><ellipse class="m" cx="0.498" cy="0.498" rx="0.498" ry="0.498" transform="translate(2.423 8.293)"/><ellipse class="m" cx="0.498" cy="0.498" rx="0.498" ry="0.498" transform="translate(3.315 5.639)"/><path class="m" d="M75.669,156.442a.5.5,0,1,1-.5-.5A.5.5,0,0,1,75.669,156.442Z" transform="translate(-69.671 -153.026)"/><path class="m" d="M78.769,151.769a.5.5,0,1,1-.5-.5A.5.5,0,0,1,78.769,151.769Z" transform="translate(-71.059 -150.933)"/><ellipse class="m" cx="0.498" cy="0.498" rx="0.498" ry="0.498" transform="translate(6.762 16.219)"/><ellipse class="m" cx="0.498" cy="0.498" rx="0.498" ry="0.498" transform="translate(5.051 13.499)"/><ellipse class="m" cx="0.498" cy="0.498" rx="0.498" ry="0.498" transform="translate(3.291 11.019)"/><ellipse class="m" cx="0.257" cy="0.257" rx="0.257" ry="0.257" transform="translate(2.592 13.741)"/><ellipse class="m" cx="0.257" cy="0.257" rx="0.257" ry="0.257" transform="translate(0.989 11.26)"/><path class="m" d="M66.128,166.287a.257.257,0,1,1-.257-.257A.257.257,0,0,1,66.128,166.287Z" transform="translate(-65.614 -157.542)"/><ellipse class="m" cx="0.257" cy="0.257" rx="0.257" ry="0.257" transform="translate(0.916 5.884)"/><ellipse class="m" cx="0.257" cy="0.257" rx="0.257" ry="0.257" transform="translate(2.652 3.184)"/><ellipse class="m" cx="0.643" cy="0.643" rx="0.643" ry="0.643" transform="translate(6.593 10.874)"/><ellipse class="m" cx="0.643" cy="0.643" rx="0.643" ry="0.643" transform="translate(4.786 8.154)"/><path class="m" d="M78.8,161.252a.642.642,0,1,1-.643-.642A.643.643,0,0,1,78.8,161.252Z" transform="translate(-70.941 -155.115)"/><ellipse class="m" cx="0.643" cy="0.643" rx="0.643" ry="0.643" transform="translate(8.353 2.773)"/><ellipse class="m" cx="0.643" cy="0.643" rx="0.643" ry="0.643" transform="translate(10.041 0.146)"/><ellipse class="m" cx="0.777" cy="0.777" rx="0.777" ry="0.777" transform="translate(8.173 8.02)"/><ellipse class="m" cx="0.777" cy="0.777" rx="0.777" ry="0.777" transform="translate(9.907 5.36)"/><ellipse class="m" cx="0.777" cy="0.777" rx="0.777" ry="0.777" transform="translate(13.404 15.94)"/><rect class="m" width="11.498" height="0.477" transform="translate(9.345 8.523)"/><rect class="m" width="3.616" height="0.477" transform="translate(11.259 5.899)"/><path class="m" d="M93.749,164.415l-1.99-3.074h.556l1.99,3.074Z" transform="translate(-77.322 -155.443)"/><rect class="m" width="1.845" height="0.477" transform="translate(14.787 11.278)"/><path class="m" d="M94.937,169.691l1.65-2.783h.477l-1.65,2.783Z" transform="translate(-78.745 -157.936)"/></g><path class="n" d="M156.346,210.861c4.127.02,7.895-3.366,7.895-7.484a7.712,7.712,0,0,0-7.895-7.616h-3.553a7.449,7.449,0,0,0-7.616,7.616,7.565,7.565,0,0,0,7.616,7.484Z" transform="translate(-70.66 -195.143)"/><path class="o" d="M154.5,207.5v-8.178a4.378,4.378,0,0,1,0,8.178m-5.948-4.089a4.388,4.388,0,0,1,2.812-4.089v8.177a4.386,4.386,0,0,1-2.812-4.087m4.38-6.913a6.912,6.912,0,1,0,6.912,6.913,6.913,6.913,0,0,0-6.912-6.913" transform="translate(-70.786 -195.252)"/><path class="n" d="M171.064,203.148c0,.611.438.683.826.683a2.212,2.212,0,0,0,2.279-2.477,2.386,2.386,0,0,0-2.485-2.557c-.326,0-.476.023-.62.031Zm-.778-3.725c0-.714-.373-.667-.73-.675v-.206c.31.015.627.015.937.015.334,0,.786-.015,1.374-.015a2.894,2.894,0,0,1,3.176,2.78c0,.786-.461,2.764-3.272,2.764-.405,0-.779-.016-1.152-.016-.357,0-.707.009-1.064.016v-.207c.476-.048.708-.064.73-.6Z" transform="translate(-74.283 -195.556)"/><path class="n" d="M177.178,199.218a.39.39,0,0,1,0-.78.389.389,0,0,1,.389.382.4.4,0,0,1-.389.4m-.85,4.645h.151c.222,0,.381,0,.381-.262v-2.151c0-.349-.119-.4-.413-.556v-.127c.373-.112.818-.262.85-.286a.284.284,0,0,1,.143-.04c.039,0,.056.048.056.112V203.6c0,.262.175.262.4.262h.135v.207c-.27,0-.548-.016-.833-.016s-.572.009-.865.016Z" transform="translate(-75.29 -195.541)"/><path class="n" d="M179.118,201.846c0-.294-.088-.373-.461-.524v-.151a10.6,10.6,0,0,0,1.048-.381c.024,0,.047.016.047.079v.516a2.336,2.336,0,0,1,1.376-.6c.674,0,.912.492.912,1.112v2.048c0,.262.175.262.4.262h.143v.207c-.278,0-.557-.016-.841-.016s-.573.009-.859.016v-.207h.143c.223,0,.381,0,.381-.262v-2.056c0-.454-.277-.675-.73-.675a2.126,2.126,0,0,0-.922.381v2.351c0,.262.175.262.4.262h.142v.207c-.278,0-.556-.016-.842-.016s-.571.009-.857.016v-.207h.143c.222,0,.381,0,.381-.262Z" transform="translate(-75.626 -195.89)"/><path class="n" d="M185.282,201.973c.2,0,.221-.1.221-.2a.672.672,0,0,0-.69-.73c-.484,0-.817.356-.913.929Zm-1.406.255a1.964,1.964,0,0,0,0,.461,1.327,1.327,0,0,0,1.167,1.373,1.524,1.524,0,0,0,1.073-.532l.111.112a1.862,1.862,0,0,1-1.469.9,1.6,1.6,0,0,1-1.517-1.732c0-1.556,1.048-2.017,1.6-2.017a1.261,1.261,0,0,1,1.343,1.246,1.019,1.019,0,0,1-.007.144l-.072.048Z" transform="translate(-76.317 -195.89)"/><path class="n" d="M186.915,204.213h.215c.221,0,.381,0,.381-.262v-2.231c0-.246-.294-.294-.413-.357v-.119c.58-.246.9-.453.97-.453.047,0,.071.024.071.1v.715h.017c.2-.31.532-.818,1.016-.818a.433.433,0,0,1,.453.421.385.385,0,0,1-.373.405c-.247,0-.247-.191-.525-.191a.671.671,0,0,0-.58.66v1.865c0,.262.159.262.381.262h.444v.207c-.437-.008-.769-.016-1.111-.016-.325,0-.659.009-.945.016Z" transform="translate(-76.863 -195.89)"/><path class="n" d="M190.481,203.315a1.046,1.046,0,0,0,1,.969.56.56,0,0,0,.642-.564c0-.937-1.73-.635-1.73-1.914a1.091,1.091,0,0,1,1.231-1.017,2.082,2.082,0,0,1,.9.231l.056.809H192.4a.814.814,0,0,0-.865-.785.558.558,0,0,0-.62.524c0,.93,1.842.644,1.842,1.89,0,.524-.421,1.08-1.366,1.08a2.092,2.092,0,0,1-.968-.27l-.088-.914Z" transform="translate(-77.372 -195.89)"/><path class="n" d="M200.74,199.958h-.2a1.511,1.511,0,0,0-1.7-1.3,2.264,2.264,0,0,0-2.24,2.518,2.587,2.587,0,0,0,2.367,2.756,1.614,1.614,0,0,0,1.6-1.374l.182.048-.182,1.16a4.454,4.454,0,0,1-1.756.421,2.826,2.826,0,0,1-3.033-2.987,2.92,2.92,0,0,1,3.01-2.8,5.729,5.729,0,0,1,1.874.422Z" transform="translate(-78.18 -195.535)"/><path class="n" d="M201.942,203.787h.151c.223,0,.381,0,.381-.262V199.1c0-.517-.119-.532-.421-.62v-.127a5.076,5.076,0,0,0,.818-.341.813.813,0,0,1,.174-.088c.049,0,.065.048.065.112v5.487c0,.262.175.262.4.262h.135v.207c-.27,0-.547-.016-.833-.016s-.571.009-.866.016Z" transform="translate(-79.097 -195.465)"/><path class="n" d="M207.338,204c0,.144.088.152.222.152.1,0,.215-.008.318-.008v.167a8.048,8.048,0,0,0-1.143.246l-.04-.024v-.643a2.147,2.147,0,0,1-1.406.667.857.857,0,0,1-.873-.945v-2.033c0-.207-.032-.405-.476-.444v-.152c.286-.008.92-.055,1.024-.055.088,0,.088.055.088.23v2.049c0,.238,0,.921.69.921a1.776,1.776,0,0,0,.96-.484v-2.138c0-.158-.381-.245-.667-.324v-.143c.714-.049,1.16-.112,1.239-.112.064,0,.064.055.064.143Z" transform="translate(-79.393 -195.911)"/><path class="n" d="M209.6,203.1a.854.854,0,0,0,.818.811c.85,0,1.207-.833,1.207-1.541a1.514,1.514,0,0,0-1.27-1.572,1.223,1.223,0,0,0-.755.374Zm0-2.159a2,2,0,0,1,1.183-.572,1.547,1.547,0,0,1,1.477,1.668,2.005,2.005,0,0,1-1.9,2.081,2.336,2.336,0,0,1-1.1-.278l-.238.183-.166-.088a9.352,9.352,0,0,0,.111-1.413V199.1c0-.517-.119-.532-.421-.62v-.127a5.043,5.043,0,0,0,.818-.341.811.811,0,0,1,.175-.088c.048,0,.063.048.063.112Z" transform="translate(-80.078 -195.465)"/><path class="n" d="M169.545,209.972h.06c.156,0,.32-.02.32-.246v-2.264c0-.225-.164-.246-.32-.246h-.06v-.13c.169,0,.427.017.64.017s.474-.017.678-.017v.13h-.06c-.155,0-.32.021-.32.246v2.264c0,.226.165.246.32.246h.06v.13c-.208,0-.467-.017-.683-.017s-.467.017-.635.017Z" transform="translate(-74.282 -196.826)"/><path class="n" d="M170.841,210.08v-.092H170.8c-.154,0-.338-.026-.339-.266v-2.264c0-.238.185-.266.339-.266h.042V207.1c-.2,0-.45.017-.659.017s-.454-.015-.622-.017v.092h.042c.154,0,.338.027.338.266v2.264c0,.239-.184.266-.338.266h-.042v.092c.168,0,.412-.017.616-.017s.461.016.664.017m.019.037c-.209,0-.467-.017-.683-.017s-.466.017-.635.017h-.019v-.167h.079c.157,0,.3-.017.3-.228v-2.264c0-.211-.144-.225-.3-.228h-.079v-.167h.019c.169,0,.429.017.64.017s.473-.017.678-.017h.02v.167h-.08c-.157,0-.3.017-.3.228v2.264c0,.211.145.224.3.228h.08v.167Z" transform="translate(-74.278 -196.823)"/><path class="n" d="M174.09,209.251l.009-.009v-1.62a.356.356,0,0,0-.376-.406h-.095v-.13c.2,0,.4.017.6.017.177,0,.355-.017.532-.017v.13H174.7c-.182,0-.385.034-.385.548v1.967a2.861,2.861,0,0,0,.026.436h-.164l-2.225-2.481v1.781c0,.375.073.5.406.5h.073v.13c-.186,0-.371-.017-.557-.017s-.393.017-.587.017v-.13h.06c.3,0,.388-.2.388-.547V207.6a.387.387,0,0,0-.392-.388h-.056v-.13c.163,0,.332.017.5.017.129,0,.255-.017.385-.017Z" transform="translate(-74.54 -196.826)"/><path class="n" d="M174.077,209.238h0l0,0Zm.01.009.014-.013Zm.086.9h.143a2.881,2.881,0,0,1-.023-.417v-1.967c0-.518.217-.568.4-.568h.045V207.1c-.169,0-.341.017-.513.017-.2,0-.39-.015-.586-.017v.092h.076a.378.378,0,0,1,.4.426l-.006,1.633-.008.009-.014.013-1.922-2.173c-.129,0-.254.017-.386.017-.158,0-.32-.015-.477-.017v.092h.038a.407.407,0,0,1,.411.408v1.82c0,.346-.1.566-.407.568l-.042,0v.093c.187,0,.38-.017.569-.017s.36.016.538.017v-.091h-.054c-.34,0-.424-.15-.425-.525v-1.83Zm.164.037-.179-.007-2.192-2.443v1.732c.005.375.062.482.387.487h.093v.167h-.02c-.186,0-.373-.017-.557-.017s-.393.017-.588.017h-.019v-.167h.08c.285,0,.367-.186.37-.53V207.6a.371.371,0,0,0-.375-.37h-.076v-.167h.019c.165,0,.335.017.5.017.129,0,.255-.017.4-.01l1.9,2.138v-1.59c0-.344-.232-.385-.358-.388h-.114v-.167h.02c.2,0,.4.017.6.017.176,0,.353-.017.532-.017h.019v.167H174.7c-.179.005-.362.021-.367.53v1.967a2.9,2.9,0,0,0,.026.433l0,.022Z" transform="translate(-74.537 -196.823)"/><path class="n" d="M176.039,207.279c-.324,0-.337.077-.4.392h-.129c.017-.12.038-.241.052-.367a2.61,2.61,0,0,0,.026-.367h.1c.035.13.143.125.26.125h2.229c.118,0,.225,0,.234-.134l.1.017c-.017.117-.034.233-.048.35s-.008.234-.008.35l-.129.049c-.009-.16-.031-.415-.32-.415H177.3v2.3c0,.334.151.371.358.371h.083v.13c-.169,0-.471-.017-.7-.017-.26,0-.562.017-.731.017v-.13h.083c.238,0,.358-.021.358-.362v-2.308Z" transform="translate(-75.168 -196.803)"/><path class="n" d="M177.739,210.094c-.17,0-.472-.017-.7-.017-.259,0-.561.017-.731.017h-.018v-.167h.1c.238-.006.335-.009.34-.344v-2.289h-.69v-.038h.727v2.328c0,.346-.14.381-.377.382h-.064v.091c.171,0,.461-.017.713-.017.225,0,.514.016.685.017v-.091h-.064c-.209,0-.377-.052-.377-.392v-2.318h.728c.29,0,.328.248.337.408l.094-.034c0-.112,0-.226.008-.34s.028-.221.044-.331l-.066-.011c-.02.125-.142.132-.25.13h-2.251c-.1,0-.213,0-.251-.125H175.6a2.661,2.661,0,0,1-.026.351c-.013.118-.032.232-.049.346h.092c.057-.3.095-.4.417-.394v.038c-.32.006-.313.06-.383.379l0,.014h-.167l0-.022c.018-.121.04-.242.052-.367a2.347,2.347,0,0,0,.026-.364v-.019h.137l0,.014c.03.109.109.11.22.112h2.251c.12,0,.208,0,.215-.117l0-.02.02,0,.122.019,0,.019c-.017.117-.035.233-.047.349s-.009.232-.009.348v.014l-.012.005-.153.055v-.025c-.011-.163-.028-.4-.3-.4h-.69v2.28c0,.326.133.349.339.353h.1v.167Z" transform="translate(-75.164 -196.799)"/><path class="n" d="M179.2,209.972h.061c.155,0,.319-.02.319-.246v-2.264c0-.225-.164-.246-.319-.246H179.2v-.13c.263,0,.713.017,1.076.017s.812-.017,1.106-.017c-.008.186,0,.472.009.662l-.13.034c-.021-.28-.073-.5-.527-.5h-.6v1.131h.513c.259,0,.315-.146.341-.381h.129c-.008.169-.013.338-.013.507s.005.328.013.492l-.129.026c-.026-.259-.039-.427-.338-.427h-.517v1.007c0,.281.249.281.526.281.518,0,.748-.035.877-.527l.121.03c-.056.229-.108.458-.146.687-.277,0-.774-.017-1.162-.017s-.9.017-1.15.017Z" transform="translate(-75.717 -196.826)"/><path class="n" d="M181.5,210.08c.037-.219.087-.437.14-.655l-.085-.021c-.129.484-.38.527-.89.524-.272,0-.545,0-.546-.3V208.6h.536c.3,0,.333.179.354.425l.094-.02c-.009-.158-.013-.318-.013-.477s0-.324.013-.488H181c-.024.226-.094.384-.358.381h-.533v-1.17h.619c.45,0,.524.229.543.5l.094-.025c-.008-.123-.013-.278-.013-.423,0-.074,0-.144,0-.205-.294,0-.731.017-1.086.017s-.793-.015-1.057-.017v.092h.042c.154,0,.338.027.339.266v2.264c0,.238-.185.265-.339.267h-.042v.091c.252,0,.751-.017,1.131-.017s.868.016,1.146.017m.015.037c-.277,0-.774-.018-1.161-.018s-.9.018-1.15.018h-.018v-.167h.078c.157,0,.3-.017.3-.228v-2.264c0-.21-.145-.225-.3-.228h-.078v-.167h.018c.264,0,.713.017,1.076.017s.811-.017,1.106-.017h.019v.02c0,.065,0,.142,0,.223,0,.15,0,.313.014.436v.016l-.014,0-.152.04v-.022c-.026-.28-.063-.484-.508-.488h-.582v1.093h.5c.249,0,.293-.129.323-.362v-.018h.166v.02c-.008.169-.014.337-.014.506s.005.328.014.492v.015l-.015,0-.151.03v-.02c-.03-.264-.032-.408-.319-.411h-.5v.989c0,.262.227.26.509.262.52,0,.729-.029.859-.514l0-.017.018,0,.139.036,0,.018c-.056.229-.107.457-.146.686l0,.015Z" transform="translate(-75.714 -196.823)"/><path class="n" d="M183.261,208.546h.211c.432,0,.665-.163.665-.673a.59.59,0,0,0-.631-.631,2.365,2.365,0,0,0-.245.017Zm-.553-1c0-.315-.173-.328-.307-.328h-.077v-.13c.139,0,.406.018.67.018s.467-.018.7-.018c.544,0,1.028.147,1.028.761a.815.815,0,0,1-.6.76l.738,1.106a.481.481,0,0,0,.42.259v.13c-.143,0-.282-.017-.424-.017s-.272.017-.406.017a12.149,12.149,0,0,1-.9-1.4h-.284v.925c0,.333.155.345.353.345h.078v.13c-.247,0-.5-.017-.743-.017-.208,0-.41.017-.627.017v-.13h.077c.161,0,.307-.072.307-.232Z" transform="translate(-76.181 -196.826)"/><path class="n" d="M183.469,208.525c.428,0,.643-.152.647-.655a.571.571,0,0,0-.613-.613,1.775,1.775,0,0,0-.226.015v1.252Zm-.211.037h-.02v-1.323l.017,0a2.2,2.2,0,0,1,.248-.016.61.61,0,0,1,.65.65c0,.516-.249.691-.685.691Zm0,.118h.295l.006.01a13.522,13.522,0,0,0,.883,1.391c.132,0,.271-.018.405-.018s.272.014.406.017v-.094a.5.5,0,0,1-.416-.266l-.752-1.125.021-.009a.8.8,0,0,0,.588-.744c0-.6-.466-.739-1.009-.742-.228,0-.435.017-.7.017s-.51-.015-.651-.017v.092h.06c.134,0,.325.023.325.347v2.2c0,.174-.163.252-.325.253h-.06v.091c.208,0,.4-.017.607-.017.242,0,.486.016.725.017v-.091h-.06c-.2,0-.373-.025-.373-.366v-.943Zm2.014,1.438c-.146,0-.283-.017-.425-.017s-.27.017-.42.009a12.037,12.037,0,0,1-.9-1.392h-.255v.905c0,.325.135.323.335.328h.1v.167h-.02c-.247,0-.5-.017-.743-.017-.206,0-.409.017-.626.017H182.3v-.167h.1c.155,0,.286-.069.287-.215v-2.2c0-.306-.153-.3-.287-.309h-.1v-.168h.019c.14,0,.407.017.67.017s.466-.017.7-.017c.545,0,1.046.152,1.047.779a.827.827,0,0,1-.591.77l.725,1.087a.466.466,0,0,0,.407.251l.015,0v.165Z" transform="translate(-76.177 -196.823)"/><path class="n" d="M188.746,209.251l.008-.009v-1.62a.356.356,0,0,0-.375-.406h-.095v-.13c.2,0,.4.017.6.017.177,0,.354-.017.532-.017v.13h-.066c-.18,0-.384.034-.384.548v1.967a2.859,2.859,0,0,0,.026.436h-.164l-2.226-2.481v1.781c0,.375.073.5.406.5h.074v.13c-.186,0-.372-.017-.558-.017s-.393.017-.587.017v-.13H186c.3,0,.389-.2.389-.547V207.6a.387.387,0,0,0-.393-.388h-.056v-.13c.163,0,.333.017.5.017.129,0,.255-.017.385-.017Z" transform="translate(-76.719 -196.826)"/><path class="n" d="M188.732,209.239v0l0,0Zm.01.008.014-.013Zm.087.9h.142a3.005,3.005,0,0,1-.023-.417v-1.967c0-.518.219-.566.4-.568h.046V207.1c-.17,0-.341.017-.513.017-.2,0-.391-.015-.587-.017v.092h.077a.379.379,0,0,1,.4.426l-.006,1.633-.009.009-.014.014L186.82,207.1c-.129,0-.254.017-.385.017-.16,0-.322-.015-.478-.017v.092h.038a.407.407,0,0,1,.411.408v1.819c0,.347-.1.568-.408.57h-.042v.092c.186,0,.379-.017.569-.017s.361.016.54.017v-.091h-.055c-.34,0-.425-.15-.426-.525v-1.829Zm.164.037-.178-.006-2.193-2.444v1.732c.005.375.062.482.387.487h.092v.167h-.019c-.187,0-.372-.018-.558-.018s-.393.018-.587.018h-.02v-.167H186c.285,0,.367-.186.37-.531V207.6a.37.37,0,0,0-.374-.37h-.076v-.167h.02c.164,0,.334.017.5.017.127,0,.253-.017.4-.011l1.9,2.139v-1.59c0-.344-.232-.387-.357-.388h-.114v-.167h.019c.2,0,.4.017.605.017.176,0,.353-.017.531-.017h.019v.167h-.083c-.178.005-.362.021-.366.53v1.967a2.712,2.712,0,0,0,.026.433l0,.021Z" transform="translate(-76.715 -196.823)"/><path class="n" d="M191.35,207.552h-.009l-.4,1.223h.807Zm-.631,1.914a1.767,1.767,0,0,0-.1.337c0,.13.182.151.324.151H191v.13c-.174-.009-.35-.017-.524-.017-.156,0-.311.008-.467.017v-.13h.026a.39.39,0,0,0,.375-.281l.692-1.983a3.533,3.533,0,0,0,.16-.536,2.2,2.2,0,0,0,.393-.185.089.089,0,0,1,.034-.009.029.029,0,0,1,.031.014c.014.034.026.073.039.107l.8,2.26c.052.152.1.311.159.441a.275.275,0,0,0,.286.172h.026v.13c-.194-.009-.389-.017-.6-.017s-.428.008-.649.017v-.13h.048c.1,0,.268-.016.268-.125a1.381,1.381,0,0,0-.088-.311l-.168-.5h-.981Z" transform="translate(-77.323 -196.807)"/><path class="n" d="M191.328,207.553l.01,0Zm-.367,1.2h.757l-.376-1.158Zm-.052.038.415-1.261h.023v.02h0v-.02h.013l.41,1.261Zm.884,1.271c.214-.009.423-.016.63-.016s.389.008.576.016v-.091h-.006a.293.293,0,0,1-.3-.184c-.056-.131-.109-.292-.16-.444l-.8-2.259c-.014-.035-.026-.074-.037-.1,0,0,0,0-.006,0h-.008a.078.078,0,0,0-.026.006,1.647,1.647,0,0,1-.385.173,3.575,3.575,0,0,1-.16.539l-.691,1.984a.412.412,0,0,1-.394.294h-.007v.091c.148-.009.3-.016.448-.016.167,0,.338.008.5.016v-.091h-.028c-.14,0-.337-.017-.342-.17a1.652,1.652,0,0,1,.1-.342l.019.006-.019-.007.142-.461h1.008l.173.513a1.3,1.3,0,0,1,.088.318c-.006.132-.188.141-.286.144h-.029Zm1.225.038c-.195-.009-.389-.018-.6-.018s-.427.009-.648.018h-.02v-.169h.066c.1,0,.249-.023.249-.106a1.384,1.384,0,0,0-.085-.306l-.164-.489h-.954l-.135.437a1.887,1.887,0,0,0-.1.331c0,.106.163.132.306.132h.066v.169h-.02c-.173-.009-.349-.018-.522-.018-.154,0-.31.009-.466.018h-.02v-.169h.044a.37.37,0,0,0,.358-.268l.692-1.983a5.081,5.081,0,0,0,.172-.548,2.274,2.274,0,0,0,.392-.185.112.112,0,0,1,.042-.01.054.054,0,0,1,.048.025c.012.036.026.074.038.109l.8,2.26c.051.152.1.311.159.439a.253.253,0,0,0,.268.161h.044v.169Z" transform="translate(-77.319 -196.804)"/><path class="n" d="M193.679,207.279c-.324,0-.337.077-.4.392h-.129c.016-.12.038-.241.052-.367a2.61,2.61,0,0,0,.026-.367h.1c.034.13.143.125.259.125h2.231c.116,0,.224,0,.232-.134l.1.017c-.017.117-.034.233-.047.35s-.009.234-.009.35l-.129.049c-.009-.16-.03-.415-.319-.415h-.709v2.3c0,.334.152.371.358.371h.083v.13c-.169,0-.471-.017-.7-.017-.259,0-.563.017-.73.017v-.13h.082c.238,0,.359-.021.359-.362v-2.308Z" transform="translate(-77.79 -196.803)"/><path class="n" d="M195.378,210.094c-.169,0-.473-.017-.7-.017-.259,0-.561.017-.73.017h-.02v-.167h.1c.238-.006.334-.009.34-.344v-2.289h-.689v-.038h.727v2.328c0,.346-.14.381-.377.381h-.064v.092c.171,0,.461-.017.713-.017.226,0,.514.016.685.017v-.092H195.3c-.208,0-.376-.051-.377-.391v-2.318h.728c.289,0,.328.248.336.408l.094-.034c0-.112,0-.226.009-.339s.028-.222.043-.332l-.065-.011c-.02.125-.142.133-.249.13h-2.253c-.1,0-.212,0-.251-.126h-.071a2.523,2.523,0,0,1-.026.352c-.011.118-.032.233-.049.346h.092c.058-.3.1-.4.418-.394v.038c-.32.005-.313.06-.384.379l0,.014h-.166l0-.021c.018-.122.039-.243.052-.368a2.457,2.457,0,0,0,.026-.364v-.019h.136l0,.014c.031.109.11.11.22.112h2.253c.119,0,.206,0,.214-.117v-.02l.02,0,.123.019,0,.019c-.018.117-.035.233-.048.349s-.009.232-.009.348v.014l-.013.005-.153.055v-.025c-.012-.163-.029-.4-.3-.4h-.69v2.28c0,.326.134.349.34.353h.1v.167Z" transform="translate(-77.786 -196.799)"/><path class="n" d="M196.867,209.972h.06c.156,0,.319-.02.319-.246v-2.264c0-.225-.163-.246-.319-.246h-.06v-.13c.169,0,.428.017.639.017s.476-.017.679-.017v.13h-.06c-.156,0-.321.021-.321.246v2.264c0,.226.165.246.321.246h.06v.13c-.208,0-.467-.017-.683-.017s-.467.017-.636.017Z" transform="translate(-78.342 -196.826)"/><path class="n" d="M198.163,210.08v-.092h-.041c-.155,0-.339-.027-.339-.266v-2.264c0-.238.184-.266.339-.266h.041V207.1c-.2,0-.449.017-.66.017s-.453-.015-.621-.017v.092h.042c.154,0,.338.027.339.266v2.264c0,.238-.185.266-.339.266h-.042v.092c.167,0,.411-.017.616-.017s.46.016.664.017m.02.037c-.209,0-.468-.018-.684-.018s-.466.018-.635.018h-.019v-.167h.079c.156,0,.3-.016.3-.228v-2.264c0-.21-.145-.225-.3-.228h-.079v-.167h.019c.169,0,.428.017.639.017s.474-.017.679-.017h.018v.167h-.078c-.158,0-.3.018-.3.228v2.264c0,.212.144.226.3.228h.078v.167Z" transform="translate(-78.339 -196.823)"/><path class="n" d="M200.226,209.966c.839,0,.985-.74.985-1.37s-.341-1.4-1.058-1.4c-.757,0-.981.674-.981,1.253,0,.773.354,1.513,1.054,1.513m-.065-2.956a1.516,1.516,0,0,1,1.655,1.492,1.584,1.584,0,0,1-1.633,1.654,1.527,1.527,0,0,1-1.617-1.551,1.572,1.572,0,0,1,1.595-1.595" transform="translate(-78.595 -196.815)"/><path class="n" d="M199.15,208.45c0-.581.228-1.272,1-1.272.734,0,1.076.78,1.077,1.415s-.149,1.388-1,1.388v-.037c.822,0,.965-.721.966-1.351s-.337-1.376-1.04-1.377c-.742,0-.96.658-.962,1.234,0,.77.352,1.492,1.035,1.494v.037c-.717,0-1.072-.753-1.073-1.531m-.605.152a1.593,1.593,0,0,1,1.613-1.613v.037a1.554,1.554,0,0,0-1.577,1.576,1.51,1.51,0,0,0,1.6,1.532A1.567,1.567,0,0,0,201.8,208.5a1.5,1.5,0,0,0-1.637-1.472v-.037a1.537,1.537,0,0,1,1.674,1.509,1.606,1.606,0,0,1-1.652,1.674,1.549,1.549,0,0,1-1.636-1.57" transform="translate(-78.592 -196.812)"/><path class="n" d="M205.314,209.251l.009-.009v-1.62a.356.356,0,0,0-.377-.406h-.094v-.13c.2,0,.4.017.6.017.178,0,.355-.017.532-.017v.13h-.065c-.181,0-.385.034-.385.548v1.967a2.749,2.749,0,0,0,.026.436H205.4l-2.225-2.481v1.781c0,.375.073.5.406.5h.073v.13c-.186,0-.371-.017-.557-.017s-.394.017-.588.017v-.13h.06c.3,0,.389-.2.389-.547V207.6a.387.387,0,0,0-.393-.388h-.056v-.13c.164,0,.333.017.5.017.129,0,.255-.017.384-.017Z" transform="translate(-79.181 -196.826)"/><path class="n" d="M205.3,209.239v0l0,0Zm.01.008.014-.013Zm.087.9h.141a3.136,3.136,0,0,1-.022-.417v-1.967c0-.519.218-.566.4-.568h.047V207.1c-.171,0-.341.017-.514.017-.2,0-.39-.015-.586-.017v.092h.076a.379.379,0,0,1,.4.426l-.005,1.633-.009.009-.014.014-1.923-2.174c-.127,0-.254.017-.384.017-.159,0-.322-.015-.479-.017v.092h.038a.408.408,0,0,1,.412.408v1.82c0,.346-.1.566-.408.568h-.043v.092c.188,0,.381-.017.57-.017s.359.016.538.017v-.091h-.055c-.34,0-.424-.15-.424-.525v-1.83Zm.164.037-.179-.007-2.192-2.443v1.732c.005.375.062.482.387.486h.093v.168h-.019c-.186,0-.372-.017-.557-.017s-.392.017-.589.017h-.017v-.168h.078c.285,0,.367-.185.37-.529V207.6a.369.369,0,0,0-.375-.37h-.074v-.167h.017c.166,0,.335.017.5.017.128,0,.252-.017.4-.01l1.9,2.138v-1.59c0-.344-.231-.385-.358-.388h-.113v-.167h.02c.2,0,.4.017.6.017.177,0,.353-.017.532-.017h.02v.167h-.084c-.178.005-.362.021-.365.53v1.967a2.929,2.929,0,0,0,.024.433l0,.021Z" transform="translate(-79.178 -196.823)"/><path class="n" d="M207.919,207.552h-.009l-.4,1.223h.809Zm-.632,1.914a1.8,1.8,0,0,0-.095.337c0,.13.182.151.324.151h.049v.13c-.173-.009-.351-.017-.524-.017-.156,0-.311.008-.466.017v-.13h.025a.392.392,0,0,0,.376-.281l.692-1.983a3.625,3.625,0,0,0,.159-.536,2.224,2.224,0,0,0,.393-.185.086.086,0,0,1,.035-.009.028.028,0,0,1,.03.014c.013.034.026.073.039.107l.794,2.26c.052.152.1.311.161.441a.273.273,0,0,0,.284.172h.026v.13c-.194-.009-.389-.017-.6-.017s-.427.008-.648.017v-.13h.048c.1,0,.268-.016.268-.125a1.414,1.414,0,0,0-.087-.311l-.169-.5h-.981Z" transform="translate(-79.785 -196.807)"/><path class="n" d="M207.9,207.553l.009,0Zm-.367,1.2h.755l-.375-1.157Zm-.052.037.414-1.261h.023v.02h0v-.02h.014l.409,1.261Zm.883,1.271c.214-.009.424-.016.629-.016s.39.008.578.016v-.091h-.007a.294.294,0,0,1-.3-.184c-.057-.131-.108-.292-.16-.443l-.8-2.26c-.013-.035-.026-.074-.037-.1,0-.005,0-.005-.007-.005h-.009a.1.1,0,0,0-.024.006,1.667,1.667,0,0,1-.385.173,3.79,3.79,0,0,1-.161.539l-.692,1.984a.41.41,0,0,1-.393.294h-.007v.091c.149-.009.3-.016.448-.016.168,0,.338.008.5.016v-.091h-.029c-.14,0-.337-.017-.343-.17a1.8,1.8,0,0,1,.1-.342l.018.006-.018-.007.143-.461h1.007l.174.513a1.331,1.331,0,0,1,.087.318c-.007.132-.188.141-.287.144h-.028Zm1.224.038c-.194-.008-.388-.017-.6-.017s-.427.009-.647.017h-.02v-.168h.066c.1,0,.249-.024.25-.106a1.371,1.371,0,0,0-.087-.306l-.164-.489h-.954l-.134.437a1.774,1.774,0,0,0-.094.331c0,.106.162.133.3.133h.066v.168h-.019c-.173-.008-.35-.017-.522-.017-.155,0-.31.009-.466.017h-.019v-.168h.043a.374.374,0,0,0,.358-.269l.691-1.983a5.316,5.316,0,0,0,.172-.547,2.379,2.379,0,0,0,.393-.186.1.1,0,0,1,.04-.009.048.048,0,0,1,.048.026c.013.033.026.072.04.107l.794,2.26c.052.152.1.311.16.439a.255.255,0,0,0,.267.162h.044v.168Z" transform="translate(-79.782 -196.804)"/><path class="n" d="M211.233,209.679c0,.173.12.224.259.242a3.068,3.068,0,0,0,.57-.009.62.62,0,0,0,.415-.233,1.008,1.008,0,0,0,.135-.312h.125c-.048.246-.108.489-.16.735-.38,0-.761-.017-1.141-.017s-.76.017-1.141.017v-.13h.06c.157,0,.325-.02.325-.289v-2.221c0-.225-.169-.246-.325-.246h-.06v-.13c.229,0,.454.017.682.017s.438-.017.658-.017v.13h-.109c-.163,0-.293,0-.293.232Z" transform="translate(-80.338 -196.826)"/><path class="n" d="M212.557,210.08c.05-.235.106-.464.153-.7h-.089a1,1,0,0,1-.134.3.636.636,0,0,1-.427.241c-.114.011-.226.018-.332.018-.083,0-.164,0-.243-.009-.14-.016-.277-.076-.277-.261v-2.231c0-.24.152-.252.313-.252h.089V207.1c-.213,0-.422.017-.639.017s-.442-.015-.663-.017v.092h.041c.154,0,.343.027.343.266v2.221c0,.279-.187.308-.343.308h-.041v.092c.373,0,.747-.017,1.122-.017s.751.016,1.125.017m.016.037c-.381,0-.761-.017-1.141-.017s-.76.017-1.142.017h-.018v-.167h.078c.157,0,.3-.014.306-.271v-2.221c0-.21-.149-.225-.306-.228h-.078v-.167h.018c.23,0,.456.017.683.017s.436-.017.657-.017h.018v.167h-.126c-.168.005-.272,0-.275.215v2.231c0,.161.106.2.242.223.076.005.157.009.239.009a3.084,3.084,0,0,0,.328-.017.6.6,0,0,0,.4-.226.965.965,0,0,0,.13-.3l0-.014h.163l0,.023c-.049.247-.109.488-.161.734l0,.015Z" transform="translate(-80.335 -196.823)"/><path class="n" d="M212.948,207.4H213c.059,0,.086-.044.086-.116a.085.085,0,0,0-.089-.1h-.05Zm-.153.24v-.022c.055-.008.066-.007.066-.041v-.337c0-.048,0-.064-.064-.061v-.023h.233c.08,0,.153.038.153.121a.142.142,0,0,1-.107.137l.075.1a.482.482,0,0,0,.1.107v.014h-.089c-.043,0-.079-.089-.163-.209h-.05v.151c0,.03.01.028.066.037v.022Zm.226.129a.37.37,0,1,0-.361-.369.366.366,0,0,0,.361.369m0-.826a.455.455,0,1,1-.455.456.447.447,0,0,1,.455-.456" transform="translate(-80.675 -196.804)"/><path class="n" d="M156.346,210.861c4.127.02,7.895-3.366,7.895-7.484a7.712,7.712,0,0,0-7.895-7.616h-3.553a7.449,7.449,0,0,0-7.616,7.616,7.565,7.565,0,0,0,7.616,7.484Z" transform="translate(-70.66 -195.143)"/><path class="o" d="M154.5,207.5v-8.178a4.378,4.378,0,0,1,0,8.178m-5.948-4.089a4.388,4.388,0,0,1,2.812-4.089v8.177a4.386,4.386,0,0,1-2.812-4.087m4.38-6.913a6.912,6.912,0,1,0,6.912,6.913,6.913,6.913,0,0,0-6.912-6.913" transform="translate(-70.786 -195.252)"/><path class="n" d="M171.064,203.148c0,.611.438.683.826.683a2.212,2.212,0,0,0,2.279-2.477,2.386,2.386,0,0,0-2.485-2.557c-.326,0-.476.023-.62.031Zm-.778-3.725c0-.714-.373-.667-.73-.675v-.206c.31.015.627.015.937.015.334,0,.786-.015,1.374-.015a2.894,2.894,0,0,1,3.176,2.78c0,.786-.461,2.764-3.272,2.764-.405,0-.779-.016-1.152-.016-.357,0-.707.009-1.064.016v-.207c.476-.048.708-.064.73-.6Z" transform="translate(-74.283 -195.556)"/><path class="n" d="M177.178,199.218a.39.39,0,0,1,0-.78.389.389,0,0,1,.389.382.4.4,0,0,1-.389.4m-.85,4.645h.151c.222,0,.381,0,.381-.262v-2.151c0-.349-.119-.4-.413-.556v-.127c.373-.112.818-.262.85-.286a.284.284,0,0,1,.143-.04c.039,0,.056.048.056.112V203.6c0,.262.175.262.4.262h.135v.207c-.27,0-.548-.016-.833-.016s-.572.009-.865.016Z" transform="translate(-75.29 -195.541)"/><path class="n" d="M179.118,201.846c0-.294-.088-.373-.461-.524v-.151a10.6,10.6,0,0,0,1.048-.381c.024,0,.047.016.047.079v.516a2.336,2.336,0,0,1,1.376-.6c.674,0,.912.492.912,1.112v2.048c0,.262.175.262.4.262h.143v.207c-.278,0-.557-.016-.841-.016s-.573.009-.859.016v-.207h.143c.223,0,.381,0,.381-.262v-2.056c0-.454-.277-.675-.73-.675a2.126,2.126,0,0,0-.922.381v2.351c0,.262.175.262.4.262h.142v.207c-.278,0-.556-.016-.842-.016s-.571.009-.857.016v-.207h.143c.222,0,.381,0,.381-.262Z" transform="translate(-75.626 -195.89)"/><path class="n" d="M185.282,201.973c.2,0,.221-.1.221-.2a.672.672,0,0,0-.69-.73c-.484,0-.817.356-.913.929Zm-1.406.255a1.964,1.964,0,0,0,0,.461,1.327,1.327,0,0,0,1.167,1.373,1.524,1.524,0,0,0,1.073-.532l.111.112a1.862,1.862,0,0,1-1.469.9,1.6,1.6,0,0,1-1.517-1.732c0-1.556,1.048-2.017,1.6-2.017a1.261,1.261,0,0,1,1.343,1.246,1.019,1.019,0,0,1-.007.144l-.072.048Z" transform="translate(-76.317 -195.89)"/><path class="n" d="M186.915,204.213h.215c.221,0,.381,0,.381-.262v-2.231c0-.246-.294-.294-.413-.357v-.119c.58-.246.9-.453.97-.453.047,0,.071.024.071.1v.715h.017c.2-.31.532-.818,1.016-.818a.433.433,0,0,1,.453.421.385.385,0,0,1-.373.405c-.247,0-.247-.191-.525-.191a.671.671,0,0,0-.58.66v1.865c0,.262.159.262.381.262h.444v.207c-.437-.008-.769-.016-1.111-.016-.325,0-.659.009-.945.016Z" transform="translate(-76.863 -195.89)"/><path class="n" d="M190.481,203.315a1.046,1.046,0,0,0,1,.969.56.56,0,0,0,.642-.564c0-.937-1.73-.635-1.73-1.914a1.091,1.091,0,0,1,1.231-1.017,2.082,2.082,0,0,1,.9.231l.056.809H192.4a.814.814,0,0,0-.865-.785.558.558,0,0,0-.62.524c0,.93,1.842.644,1.842,1.89,0,.524-.421,1.08-1.366,1.08a2.092,2.092,0,0,1-.968-.27l-.088-.914Z" transform="translate(-77.372 -195.89)"/><path class="n" d="M200.74,199.958h-.2a1.511,1.511,0,0,0-1.7-1.3,2.264,2.264,0,0,0-2.24,2.518,2.587,2.587,0,0,0,2.367,2.756,1.614,1.614,0,0,0,1.6-1.374l.182.048-.182,1.16a4.454,4.454,0,0,1-1.756.421,2.826,2.826,0,0,1-3.033-2.987,2.92,2.92,0,0,1,3.01-2.8,5.729,5.729,0,0,1,1.874.422Z" transform="translate(-78.18 -195.535)"/><path class="n" d="M201.942,203.787h.151c.223,0,.381,0,.381-.262V199.1c0-.517-.119-.532-.421-.62v-.127a5.076,5.076,0,0,0,.818-.341.813.813,0,0,1,.174-.088c.049,0,.065.048.065.112v5.487c0,.262.175.262.4.262h.135v.207c-.27,0-.547-.016-.833-.016s-.571.009-.866.016Z" transform="translate(-79.097 -195.465)"/><path class="n" d="M207.338,204c0,.144.088.152.222.152.1,0,.215-.008.318-.008v.167a8.048,8.048,0,0,0-1.143.246l-.04-.024v-.643a2.147,2.147,0,0,1-1.406.667.857.857,0,0,1-.873-.945v-2.033c0-.207-.032-.405-.476-.444v-.152c.286-.008.92-.055,1.024-.055.088,0,.088.055.088.23v2.049c0,.238,0,.921.69.921a1.776,1.776,0,0,0,.96-.484v-2.138c0-.158-.381-.245-.667-.324v-.143c.714-.049,1.16-.112,1.239-.112.064,0,.064.055.064.143Z" transform="translate(-79.393 -195.911)"/><path class="n" d="M209.6,203.1a.854.854,0,0,0,.818.811c.85,0,1.207-.833,1.207-1.541a1.514,1.514,0,0,0-1.27-1.572,1.223,1.223,0,0,0-.755.374Zm0-2.159a2,2,0,0,1,1.183-.572,1.547,1.547,0,0,1,1.477,1.668,2.005,2.005,0,0,1-1.9,2.081,2.336,2.336,0,0,1-1.1-.278l-.238.183-.166-.088a9.352,9.352,0,0,0,.111-1.413V199.1c0-.517-.119-.532-.421-.62v-.127a5.043,5.043,0,0,0,.818-.341.811.811,0,0,1,.175-.088c.048,0,.063.048.063.112Z" transform="translate(-80.078 -195.465)"/><path class="n" d="M169.545,209.972h.06c.156,0,.32-.02.32-.246v-2.264c0-.225-.164-.246-.32-.246h-.06v-.13c.169,0,.427.017.64.017s.474-.017.678-.017v.13h-.06c-.155,0-.32.021-.32.246v2.264c0,.226.165.246.32.246h.06v.13c-.208,0-.467-.017-.683-.017s-.467.017-.635.017Z" transform="translate(-74.282 -196.826)"/><path class="n" d="M170.841,210.08v-.092H170.8c-.154,0-.338-.026-.339-.266v-2.264c0-.238.185-.266.339-.266h.042V207.1c-.2,0-.45.017-.659.017s-.454-.015-.622-.017v.092h.042c.154,0,.338.027.338.266v2.264c0,.239-.184.266-.338.266h-.042v.092c.168,0,.412-.017.616-.017s.461.016.664.017m.019.037c-.209,0-.467-.017-.683-.017s-.466.017-.635.017h-.019v-.167h.079c.157,0,.3-.017.3-.228v-2.264c0-.211-.144-.225-.3-.228h-.079v-.167h.019c.169,0,.429.017.64.017s.473-.017.678-.017h.02v.167h-.08c-.157,0-.3.017-.3.228v2.264c0,.211.145.224.3.228h.08v.167Z" transform="translate(-74.278 -196.823)"/><path class="n" d="M174.09,209.251l.009-.009v-1.62a.356.356,0,0,0-.376-.406h-.095v-.13c.2,0,.4.017.6.017.177,0,.355-.017.532-.017v.13H174.7c-.182,0-.385.034-.385.548v1.967a2.861,2.861,0,0,0,.026.436h-.164l-2.225-2.481v1.781c0,.375.073.5.406.5h.073v.13c-.186,0-.371-.017-.557-.017s-.393.017-.587.017v-.13h.06c.3,0,.388-.2.388-.547V207.6a.387.387,0,0,0-.392-.388h-.056v-.13c.163,0,.332.017.5.017.129,0,.255-.017.385-.017Z" transform="translate(-74.54 -196.826)"/><path class="n" d="M174.077,209.238h0l0,0Zm.01.009.014-.013Zm.086.9h.143a2.881,2.881,0,0,1-.023-.417v-1.967c0-.518.217-.568.4-.568h.045V207.1c-.169,0-.341.017-.513.017-.2,0-.39-.015-.586-.017v.092h.076a.378.378,0,0,1,.4.426l-.006,1.633-.008.009-.014.013-1.922-2.173c-.129,0-.254.017-.386.017-.158,0-.32-.015-.477-.017v.092h.038a.407.407,0,0,1,.411.408v1.82c0,.346-.1.566-.407.568l-.042,0v.093c.187,0,.38-.017.569-.017s.36.016.538.017v-.091h-.054c-.34,0-.424-.15-.425-.525v-1.83Zm.164.037-.179-.007-2.192-2.443v1.732c.005.375.062.482.387.487h.093v.167h-.02c-.186,0-.373-.017-.557-.017s-.393.017-.588.017h-.019v-.167h.08c.285,0,.367-.186.37-.53V207.6a.371.371,0,0,0-.375-.37h-.076v-.167h.019c.165,0,.335.017.5.017.129,0,.255-.017.4-.01l1.9,2.138v-1.59c0-.344-.232-.385-.358-.388h-.114v-.167h.02c.2,0,.4.017.6.017.176,0,.353-.017.532-.017h.019v.167H174.7c-.179.005-.362.021-.367.53v1.967a2.9,2.9,0,0,0,.026.433l0,.022Z" transform="translate(-74.537 -196.823)"/><path class="n" d="M176.039,207.279c-.324,0-.337.077-.4.392h-.129c.017-.12.038-.241.052-.367a2.61,2.61,0,0,0,.026-.367h.1c.035.13.143.125.26.125h2.229c.118,0,.225,0,.234-.134l.1.017c-.017.117-.034.233-.048.35s-.008.234-.008.35l-.129.049c-.009-.16-.031-.415-.32-.415H177.3v2.3c0,.334.151.371.358.371h.083v.13c-.169,0-.471-.017-.7-.017-.26,0-.562.017-.731.017v-.13h.083c.238,0,.358-.021.358-.362v-2.308Z" transform="translate(-75.168 -196.803)"/><path class="n" d="M177.739,210.094c-.17,0-.472-.017-.7-.017-.259,0-.561.017-.731.017h-.018v-.167h.1c.238-.006.335-.009.34-.344v-2.289h-.69v-.038h.727v2.328c0,.346-.14.381-.377.382h-.064v.091c.171,0,.461-.017.713-.017.225,0,.514.016.685.017v-.091h-.064c-.209,0-.377-.052-.377-.392v-2.318h.728c.29,0,.328.248.337.408l.094-.034c0-.112,0-.226.008-.34s.028-.221.044-.331l-.066-.011c-.02.125-.142.132-.25.13h-2.251c-.1,0-.213,0-.251-.125H175.6a2.661,2.661,0,0,1-.026.351c-.013.118-.032.232-.049.346h.092c.057-.3.095-.4.417-.394v.038c-.32.006-.313.06-.383.379l0,.014h-.167l0-.022c.018-.121.04-.242.052-.367a2.347,2.347,0,0,0,.026-.364v-.019h.137l0,.014c.03.109.109.11.22.112h2.251c.12,0,.208,0,.215-.117l0-.02.02,0,.122.019,0,.019c-.017.117-.035.233-.047.349s-.009.232-.009.348v.014l-.012.005-.153.055v-.025c-.011-.163-.028-.4-.3-.4h-.69v2.28c0,.326.133.349.339.353h.1v.167Z" transform="translate(-75.164 -196.799)"/><path class="n" d="M179.2,209.972h.061c.155,0,.319-.02.319-.246v-2.264c0-.225-.164-.246-.319-.246H179.2v-.13c.263,0,.713.017,1.076.017s.812-.017,1.106-.017c-.008.186,0,.472.009.662l-.13.034c-.021-.28-.073-.5-.527-.5h-.6v1.131h.513c.259,0,.315-.146.341-.381h.129c-.008.169-.013.338-.013.507s.005.328.013.492l-.129.026c-.026-.259-.039-.427-.338-.427h-.517v1.007c0,.281.249.281.526.281.518,0,.748-.035.877-.527l.121.03c-.056.229-.108.458-.146.687-.277,0-.774-.017-1.162-.017s-.9.017-1.15.017Z" transform="translate(-75.717 -196.826)"/><path class="n" d="M181.5,210.08c.037-.219.087-.437.14-.655l-.085-.021c-.129.484-.38.527-.89.524-.272,0-.545,0-.546-.3V208.6h.536c.3,0,.333.179.354.425l.094-.02c-.009-.158-.013-.318-.013-.477s0-.324.013-.488H181c-.024.226-.094.384-.358.381h-.533v-1.17h.619c.45,0,.524.229.543.5l.094-.025c-.008-.123-.013-.278-.013-.423,0-.074,0-.144,0-.205-.294,0-.731.017-1.086.017s-.793-.015-1.057-.017v.092h.042c.154,0,.338.027.339.266v2.264c0,.238-.185.265-.339.267h-.042v.091c.252,0,.751-.017,1.131-.017s.868.016,1.146.017m.015.037c-.277,0-.774-.018-1.161-.018s-.9.018-1.15.018h-.018v-.167h.078c.157,0,.3-.017.3-.228v-2.264c0-.21-.145-.225-.3-.228h-.078v-.167h.018c.264,0,.713.017,1.076.017s.811-.017,1.106-.017h.019v.02c0,.065,0,.142,0,.223,0,.15,0,.313.014.436v.016l-.014,0-.152.04v-.022c-.026-.28-.063-.484-.508-.488h-.582v1.093h.5c.249,0,.293-.129.323-.362v-.018h.166v.02c-.008.169-.014.337-.014.506s.005.328.014.492v.015l-.015,0-.151.03v-.02c-.03-.264-.032-.408-.319-.411h-.5v.989c0,.262.227.26.509.262.52,0,.729-.029.859-.514l0-.017.018,0,.139.036,0,.018c-.056.229-.107.457-.146.686l0,.015Z" transform="translate(-75.714 -196.823)"/><path class="n" d="M183.261,208.546h.211c.432,0,.665-.163.665-.673a.59.59,0,0,0-.631-.631,2.365,2.365,0,0,0-.245.017Zm-.553-1c0-.315-.173-.328-.307-.328h-.077v-.13c.139,0,.406.018.67.018s.467-.018.7-.018c.544,0,1.028.147,1.028.761a.815.815,0,0,1-.6.76l.738,1.106a.481.481,0,0,0,.42.259v.13c-.143,0-.282-.017-.424-.017s-.272.017-.406.017a12.149,12.149,0,0,1-.9-1.4h-.284v.925c0,.333.155.345.353.345h.078v.13c-.247,0-.5-.017-.743-.017-.208,0-.41.017-.627.017v-.13h.077c.161,0,.307-.072.307-.232Z" transform="translate(-76.181 -196.826)"/><path class="n" d="M183.469,208.525c.428,0,.643-.152.647-.655a.571.571,0,0,0-.613-.613,1.775,1.775,0,0,0-.226.015v1.252Zm-.211.037h-.02v-1.323l.017,0a2.2,2.2,0,0,1,.248-.016.61.61,0,0,1,.65.65c0,.516-.249.691-.685.691Zm0,.118h.295l.006.01a13.522,13.522,0,0,0,.883,1.391c.132,0,.271-.018.405-.018s.272.014.406.017v-.094a.5.5,0,0,1-.416-.266l-.752-1.125.021-.009a.8.8,0,0,0,.588-.744c0-.6-.466-.739-1.009-.742-.228,0-.435.017-.7.017s-.51-.015-.651-.017v.092h.06c.134,0,.325.023.325.347v2.2c0,.174-.163.252-.325.253h-.06v.091c.208,0,.4-.017.607-.017.242,0,.486.016.725.017v-.091h-.06c-.2,0-.373-.025-.373-.366v-.943Zm2.014,1.438c-.146,0-.283-.017-.425-.017s-.27.017-.42.009a12.037,12.037,0,0,1-.9-1.392h-.255v.905c0,.325.135.323.335.328h.1v.167h-.02c-.247,0-.5-.017-.743-.017-.206,0-.409.017-.626.017H182.3v-.167h.1c.155,0,.286-.069.287-.215v-2.2c0-.306-.153-.3-.287-.309h-.1v-.168h.019c.14,0,.407.017.67.017s.466-.017.7-.017c.545,0,1.046.152,1.047.779a.827.827,0,0,1-.591.77l.725,1.087a.466.466,0,0,0,.407.251l.015,0v.165Z" transform="translate(-76.177 -196.823)"/><path class="n" d="M188.746,209.251l.008-.009v-1.62a.356.356,0,0,0-.375-.406h-.095v-.13c.2,0,.4.017.6.017.177,0,.354-.017.532-.017v.13h-.066c-.18,0-.384.034-.384.548v1.967a2.859,2.859,0,0,0,.026.436h-.164l-2.226-2.481v1.781c0,.375.073.5.406.5h.074v.13c-.186,0-.372-.017-.558-.017s-.393.017-.587.017v-.13H186c.3,0,.389-.2.389-.547V207.6a.387.387,0,0,0-.393-.388h-.056v-.13c.163,0,.333.017.5.017.129,0,.255-.017.385-.017Z" transform="translate(-76.719 -196.826)"/><path class="n" d="M188.732,209.239v0l0,0Zm.01.008.014-.013Zm.087.9h.142a3.005,3.005,0,0,1-.023-.417v-1.967c0-.518.219-.566.4-.568h.046V207.1c-.17,0-.341.017-.513.017-.2,0-.391-.015-.587-.017v.092h.077a.379.379,0,0,1,.4.426l-.006,1.633-.009.009-.014.014L186.82,207.1c-.129,0-.254.017-.385.017-.16,0-.322-.015-.478-.017v.092h.038a.407.407,0,0,1,.411.408v1.819c0,.347-.1.568-.408.57h-.042v.092c.186,0,.379-.017.569-.017s.361.016.54.017v-.091h-.055c-.34,0-.425-.15-.426-.525v-1.829Zm.164.037-.178-.006-2.193-2.444v1.732c.005.375.062.482.387.487h.092v.167h-.019c-.187,0-.372-.018-.558-.018s-.393.018-.587.018h-.02v-.167H186c.285,0,.367-.186.37-.531V207.6a.37.37,0,0,0-.374-.37h-.076v-.167h.02c.164,0,.334.017.5.017.127,0,.253-.017.4-.011l1.9,2.139v-1.59c0-.344-.232-.387-.357-.388h-.114v-.167h.019c.2,0,.4.017.605.017.176,0,.353-.017.531-.017h.019v.167h-.083c-.178.005-.362.021-.366.53v1.967a2.712,2.712,0,0,0,.026.433l0,.021Z" transform="translate(-76.715 -196.823)"/><path class="n" d="M191.35,207.552h-.009l-.4,1.223h.807Zm-.631,1.914a1.767,1.767,0,0,0-.1.337c0,.13.182.151.324.151H191v.13c-.174-.009-.35-.017-.524-.017-.156,0-.311.008-.467.017v-.13h.026a.39.39,0,0,0,.375-.281l.692-1.983a3.533,3.533,0,0,0,.16-.536,2.2,2.2,0,0,0,.393-.185.089.089,0,0,1,.034-.009.029.029,0,0,1,.031.014c.014.034.026.073.039.107l.8,2.26c.052.152.1.311.159.441a.275.275,0,0,0,.286.172h.026v.13c-.194-.009-.389-.017-.6-.017s-.428.008-.649.017v-.13h.048c.1,0,.268-.016.268-.125a1.381,1.381,0,0,0-.088-.311l-.168-.5h-.981Z" transform="translate(-77.323 -196.807)"/><path class="n" d="M191.328,207.553l.01,0Zm-.367,1.2h.757l-.376-1.158Zm-.052.038.415-1.261h.023v.02h0v-.02h.013l.41,1.261Zm.884,1.271c.214-.009.423-.016.63-.016s.389.008.576.016v-.091h-.006a.293.293,0,0,1-.3-.184c-.056-.131-.109-.292-.16-.444l-.8-2.259c-.014-.035-.026-.074-.037-.1,0,0,0,0-.006,0h-.008a.078.078,0,0,0-.026.006,1.647,1.647,0,0,1-.385.173,3.575,3.575,0,0,1-.16.539l-.691,1.984a.412.412,0,0,1-.394.294h-.007v.091c.148-.009.3-.016.448-.016.167,0,.338.008.5.016v-.091h-.028c-.14,0-.337-.017-.342-.17a1.652,1.652,0,0,1,.1-.342l.019.006-.019-.007.142-.461h1.008l.173.513a1.3,1.3,0,0,1,.088.318c-.006.132-.188.141-.286.144h-.029Zm1.225.038c-.195-.009-.389-.018-.6-.018s-.427.009-.648.018h-.02v-.169h.066c.1,0,.249-.023.249-.106a1.384,1.384,0,0,0-.085-.306l-.164-.489h-.954l-.135.437a1.887,1.887,0,0,0-.1.331c0,.106.163.132.306.132h.066v.169h-.02c-.173-.009-.349-.018-.522-.018-.154,0-.31.009-.466.018h-.02v-.169h.044a.37.37,0,0,0,.358-.268l.692-1.983a5.081,5.081,0,0,0,.172-.548,2.274,2.274,0,0,0,.392-.185.112.112,0,0,1,.042-.01.054.054,0,0,1,.048.025c.012.036.026.074.038.109l.8,2.26c.051.152.1.311.159.439a.253.253,0,0,0,.268.161h.044v.169Z" transform="translate(-77.319 -196.804)"/><path class="n" d="M193.679,207.279c-.324,0-.337.077-.4.392h-.129c.016-.12.038-.241.052-.367a2.61,2.61,0,0,0,.026-.367h.1c.034.13.143.125.259.125h2.231c.116,0,.224,0,.232-.134l.1.017c-.017.117-.034.233-.047.35s-.009.234-.009.35l-.129.049c-.009-.16-.03-.415-.319-.415h-.709v2.3c0,.334.152.371.358.371h.083v.13c-.169,0-.471-.017-.7-.017-.259,0-.563.017-.73.017v-.13h.082c.238,0,.359-.021.359-.362v-2.308Z" transform="translate(-77.79 -196.803)"/><path class="n" d="M195.378,210.094c-.169,0-.473-.017-.7-.017-.259,0-.561.017-.73.017h-.02v-.167h.1c.238-.006.334-.009.34-.344v-2.289h-.689v-.038h.727v2.328c0,.346-.14.381-.377.381h-.064v.092c.171,0,.461-.017.713-.017.226,0,.514.016.685.017v-.092H195.3c-.208,0-.376-.051-.377-.391v-2.318h.728c.289,0,.328.248.336.408l.094-.034c0-.112,0-.226.009-.339s.028-.222.043-.332l-.065-.011c-.02.125-.142.133-.249.13h-2.253c-.1,0-.212,0-.251-.126h-.071a2.523,2.523,0,0,1-.026.352c-.011.118-.032.233-.049.346h.092c.058-.3.1-.4.418-.394v.038c-.32.005-.313.06-.384.379l0,.014h-.166l0-.021c.018-.122.039-.243.052-.368a2.457,2.457,0,0,0,.026-.364v-.019h.136l0,.014c.031.109.11.11.22.112h2.253c.119,0,.206,0,.214-.117v-.02l.02,0,.123.019,0,.019c-.018.117-.035.233-.048.349s-.009.232-.009.348v.014l-.013.005-.153.055v-.025c-.012-.163-.029-.4-.3-.4h-.69v2.28c0,.326.134.349.34.353h.1v.167Z" transform="translate(-77.786 -196.799)"/><path class="n" d="M196.867,209.972h.06c.156,0,.319-.02.319-.246v-2.264c0-.225-.163-.246-.319-.246h-.06v-.13c.169,0,.428.017.639.017s.476-.017.679-.017v.13h-.06c-.156,0-.321.021-.321.246v2.264c0,.226.165.246.321.246h.06v.13c-.208,0-.467-.017-.683-.017s-.467.017-.636.017Z" transform="translate(-78.342 -196.826)"/><path class="n" d="M198.163,210.08v-.092h-.041c-.155,0-.339-.027-.339-.266v-2.264c0-.238.184-.266.339-.266h.041V207.1c-.2,0-.449.017-.66.017s-.453-.015-.621-.017v.092h.042c.154,0,.338.027.339.266v2.264c0,.238-.185.266-.339.266h-.042v.092c.167,0,.411-.017.616-.017s.46.016.664.017m.02.037c-.209,0-.468-.018-.684-.018s-.466.018-.635.018h-.019v-.167h.079c.156,0,.3-.016.3-.228v-2.264c0-.21-.145-.225-.3-.228h-.079v-.167h.019c.169,0,.428.017.639.017s.474-.017.679-.017h.018v.167h-.078c-.158,0-.3.018-.3.228v2.264c0,.212.144.226.3.228h.078v.167Z" transform="translate(-78.339 -196.823)"/><path class="n" d="M200.226,209.966c.839,0,.985-.74.985-1.37s-.341-1.4-1.058-1.4c-.757,0-.981.674-.981,1.253,0,.773.354,1.513,1.054,1.513m-.065-2.956a1.516,1.516,0,0,1,1.655,1.492,1.584,1.584,0,0,1-1.633,1.654,1.527,1.527,0,0,1-1.617-1.551,1.572,1.572,0,0,1,1.595-1.595" transform="translate(-78.595 -196.815)"/><path class="n" d="M199.15,208.45c0-.581.228-1.272,1-1.272.734,0,1.076.78,1.077,1.415s-.149,1.388-1,1.388v-.037c.822,0,.965-.721.966-1.351s-.337-1.376-1.04-1.377c-.742,0-.96.658-.962,1.234,0,.77.352,1.492,1.035,1.494v.037c-.717,0-1.072-.753-1.073-1.531m-.605.152a1.593,1.593,0,0,1,1.613-1.613v.037a1.554,1.554,0,0,0-1.577,1.576,1.51,1.51,0,0,0,1.6,1.532A1.567,1.567,0,0,0,201.8,208.5a1.5,1.5,0,0,0-1.637-1.472v-.037a1.537,1.537,0,0,1,1.674,1.509,1.606,1.606,0,0,1-1.652,1.674,1.549,1.549,0,0,1-1.636-1.57" transform="translate(-78.592 -196.812)"/><path class="n" d="M205.314,209.251l.009-.009v-1.62a.356.356,0,0,0-.377-.406h-.094v-.13c.2,0,.4.017.6.017.178,0,.355-.017.532-.017v.13h-.065c-.181,0-.385.034-.385.548v1.967a2.749,2.749,0,0,0,.026.436H205.4l-2.225-2.481v1.781c0,.375.073.5.406.5h.073v.13c-.186,0-.371-.017-.557-.017s-.394.017-.588.017v-.13h.06c.3,0,.389-.2.389-.547V207.6a.387.387,0,0,0-.393-.388h-.056v-.13c.164,0,.333.017.5.017.129,0,.255-.017.384-.017Z" transform="translate(-79.181 -196.826)"/><path class="n" d="M205.3,209.239v0l0,0Zm.01.008.014-.013Zm.087.9h.141a3.136,3.136,0,0,1-.022-.417v-1.967c0-.519.218-.566.4-.568h.047V207.1c-.171,0-.341.017-.514.017-.2,0-.39-.015-.586-.017v.092h.076a.379.379,0,0,1,.4.426l-.005,1.633-.009.009-.014.014-1.923-2.174c-.127,0-.254.017-.384.017-.159,0-.322-.015-.479-.017v.092h.038a.408.408,0,0,1,.412.408v1.82c0,.346-.1.566-.408.568h-.043v.092c.188,0,.381-.017.57-.017s.359.016.538.017v-.091h-.055c-.34,0-.424-.15-.424-.525v-1.83Zm.164.037-.179-.007-2.192-2.443v1.732c.005.375.062.482.387.486h.093v.168h-.019c-.186,0-.372-.017-.557-.017s-.392.017-.589.017h-.017v-.168h.078c.285,0,.367-.185.37-.529V207.6a.369.369,0,0,0-.375-.37h-.074v-.167h.017c.166,0,.335.017.5.017.128,0,.252-.017.4-.01l1.9,2.138v-1.59c0-.344-.231-.385-.358-.388h-.113v-.167h.02c.2,0,.4.017.6.017.177,0,.353-.017.532-.017h.02v.167h-.084c-.178.005-.362.021-.365.53v1.967a2.929,2.929,0,0,0,.024.433l0,.021Z" transform="translate(-79.178 -196.823)"/><path class="n" d="M207.919,207.552h-.009l-.4,1.223h.809Zm-.632,1.914a1.8,1.8,0,0,0-.095.337c0,.13.182.151.324.151h.049v.13c-.173-.009-.351-.017-.524-.017-.156,0-.311.008-.466.017v-.13h.025a.392.392,0,0,0,.376-.281l.692-1.983a3.625,3.625,0,0,0,.159-.536,2.224,2.224,0,0,0,.393-.185.086.086,0,0,1,.035-.009.028.028,0,0,1,.03.014c.013.034.026.073.039.107l.794,2.26c.052.152.1.311.161.441a.273.273,0,0,0,.284.172h.026v.13c-.194-.009-.389-.017-.6-.017s-.427.008-.648.017v-.13h.048c.1,0,.268-.016.268-.125a1.414,1.414,0,0,0-.087-.311l-.169-.5h-.981Z" transform="translate(-79.785 -196.807)"/><path class="n" d="M207.9,207.553l.009,0Zm-.367,1.2h.755l-.375-1.157Zm-.052.037.414-1.261h.023v.02h0v-.02h.014l.409,1.261Zm.883,1.271c.214-.009.424-.016.629-.016s.39.008.578.016v-.091h-.007a.294.294,0,0,1-.3-.184c-.057-.131-.108-.292-.16-.443l-.8-2.26c-.013-.035-.026-.074-.037-.1,0-.005,0-.005-.007-.005h-.009a.1.1,0,0,0-.024.006,1.667,1.667,0,0,1-.385.173,3.79,3.79,0,0,1-.161.539l-.692,1.984a.41.41,0,0,1-.393.294h-.007v.091c.149-.009.3-.016.448-.016.168,0,.338.008.5.016v-.091h-.029c-.14,0-.337-.017-.343-.17a1.8,1.8,0,0,1,.1-.342l.018.006-.018-.007.143-.461h1.007l.174.513a1.331,1.331,0,0,1,.087.318c-.007.132-.188.141-.287.144h-.028Zm1.224.038c-.194-.008-.388-.017-.6-.017s-.427.009-.647.017h-.02v-.168h.066c.1,0,.249-.024.25-.106a1.371,1.371,0,0,0-.087-.306l-.164-.489h-.954l-.134.437a1.774,1.774,0,0,0-.094.331c0,.106.162.133.3.133h.066v.168h-.019c-.173-.008-.35-.017-.522-.017-.155,0-.31.009-.466.017h-.019v-.168h.043a.374.374,0,0,0,.358-.269l.691-1.983a5.316,5.316,0,0,0,.172-.547,2.379,2.379,0,0,0,.393-.186.1.1,0,0,1,.04-.009.048.048,0,0,1,.048.026c.013.033.026.072.04.107l.794,2.26c.052.152.1.311.16.439a.255.255,0,0,0,.267.162h.044v.168Z" transform="translate(-79.782 -196.804)"/><path class="n" d="M211.233,209.679c0,.173.12.224.259.242a3.068,3.068,0,0,0,.57-.009.62.62,0,0,0,.415-.233,1.008,1.008,0,0,0,.135-.312h.125c-.048.246-.108.489-.16.735-.38,0-.761-.017-1.141-.017s-.76.017-1.141.017v-.13h.06c.157,0,.325-.02.325-.289v-2.221c0-.225-.169-.246-.325-.246h-.06v-.13c.229,0,.454.017.682.017s.438-.017.658-.017v.13h-.109c-.163,0-.293,0-.293.232Z" transform="translate(-80.338 -196.826)"/><path class="n" d="M212.557,210.08c.05-.235.106-.464.153-.7h-.089a1,1,0,0,1-.134.3.636.636,0,0,1-.427.241c-.114.011-.226.018-.332.018-.083,0-.164,0-.243-.009-.14-.016-.277-.076-.277-.261v-2.231c0-.24.152-.252.313-.252h.089V207.1c-.213,0-.422.017-.639.017s-.442-.015-.663-.017v.092h.041c.154,0,.343.027.343.266v2.221c0,.279-.187.308-.343.308h-.041v.092c.373,0,.747-.017,1.122-.017s.751.016,1.125.017m.016.037c-.381,0-.761-.017-1.141-.017s-.76.017-1.142.017h-.018v-.167h.078c.157,0,.3-.014.306-.271v-2.221c0-.21-.149-.225-.306-.228h-.078v-.167h.018c.23,0,.456.017.683.017s.436-.017.657-.017h.018v.167h-.126c-.168.005-.272,0-.275.215v2.231c0,.161.106.2.242.223.076.005.157.009.239.009a3.084,3.084,0,0,0,.328-.017.6.6,0,0,0,.4-.226.965.965,0,0,0,.13-.3l0-.014h.163l0,.023c-.049.247-.109.488-.161.734l0,.015Z" transform="translate(-80.335 -196.823)"/><path class="n" d="M212.948,207.4H213c.059,0,.086-.044.086-.116a.085.085,0,0,0-.089-.1h-.05Zm-.153.24v-.022c.055-.008.066-.007.066-.041v-.337c0-.048,0-.064-.064-.061v-.023h.233c.08,0,.153.038.153.121a.142.142,0,0,1-.107.137l.075.1a.482.482,0,0,0,.1.107v.014h-.089c-.043,0-.079-.089-.163-.209h-.05v.151c0,.03.01.028.066.037v.022Zm.226.129a.37.37,0,1,0-.361-.369.366.366,0,0,0,.361.369m0-.826a.455.455,0,1,1-.455.456.447.447,0,0,1,.455-.456" transform="translate(-80.675 -196.804)"/></svg>