<svg xmlns="http://www.w3.org/2000/svg" width="28" height="28" viewBox="0 0 28 28"><defs><style>.a{fill:#68161c;}</style></defs><path class="a" d="M23.806,36.069A13.879,13.879,0,0,0,1.969,52.813L0,60l7.356-1.931a13.833,13.833,0,0,0,6.631,1.688h.006a13.787,13.787,0,0,0,9.812-23.688Zm-9.812,21.35a11.512,11.512,0,0,1-5.875-1.606l-.419-.25L3.337,56.706,4.5,52.45l-.275-.437a11.555,11.555,0,1,1,21.431-6.131A11.661,11.661,0,0,1,13.994,57.419Zm6.325-8.637c-.344-.175-2.05-1.013-2.369-1.125s-.55-.175-.781.175-.894,1.125-1.1,1.362-.406.263-.75.088A9.437,9.437,0,0,1,10.6,45.156c-.356-.612.356-.569,1.019-1.894a.642.642,0,0,0-.031-.606c-.087-.175-.781-1.881-1.069-2.575-.281-.675-.569-.581-.781-.594s-.431-.013-.663-.013a1.284,1.284,0,0,0-.925.431A3.9,3.9,0,0,0,6.937,42.8,6.792,6.792,0,0,0,8.35,46.388a15.492,15.492,0,0,0,5.925,5.238c2.2.95,3.063,1.031,4.163.869a3.551,3.551,0,0,0,2.337-1.65,2.9,2.9,0,0,0,.2-1.65C20.894,49.038,20.662,48.95,20.319,48.781Z" transform="translate(0 -32)"/></svg>